<svg id="Layer_1" data-name="Layer 1" xmlns="http://www.w3.org/2000/svg" viewBox="0 0 174.25 90.83"><defs><style>.cls-1{fill:#010101;}</style></defs><title>black-p</title><path class="cls-1" d="M127.7,419.07h2.88l39.4.07-1.58,7.52,48.41.09,7.31-34.6,31.76.06a144.44,144.44,0,0,0,16.47-.59,45.37,45.37,0,0,0,12-3,28.22,28.22,0,0,0,8.33-5.9,31.46,31.46,0,0,0,6.55-10.39A34.88,34.88,0,0,0,302,358.93a23.67,23.67,0,0,0-3.31-12.8,18.93,18.93,0,0,0-9.06-7.7q-5.71-2.32-15.57-2.35l-86.44-.16s-6.52,32.54-8.54,40.66c-34,18.16-49.58,40-49.65,40.14Zm6.08-2.79c9.41-11.36,52.46-57.22,138-60.18l0,8.11c-18.92,2.46-64.6,12.27-82.2,52.36l-55.91-.1.15-.19" transform="translate(-127.7 -335.92)"/></svg>