<svg id="Layer_1" data-name="Layer 1" xmlns="http://www.w3.org/2000/svg" viewBox="0 0 283.84 64.8"><defs><style>.cls-1{fill:#010101;}.cls-2{fill:#fff;}</style></defs><title>black</title><path class="cls-1" d="M300,378.5,305.19,354l22.52,0a100.22,100.22,0,0,0,11.68-.42,31.76,31.76,0,0,0,8.52-2.16,19.63,19.63,0,0,0,5.91-4.18,22.15,22.15,0,0,0,4.65-7.36,25,25,0,0,0,1.91-9.48,16.91,16.91,0,0,0-2.35-9.08,13.47,13.47,0,0,0-6.43-5.46,30.46,30.46,0,0,0-11-1.66l-61.29-.12-13.6,64.35Zm11.35-53.76h5.26q6.47,0,8.32.69a5.91,5.91,0,0,1,2.9,2.18,6.57,6.57,0,0,1,1,3.82,10.82,10.82,0,0,1-2,6.36,11.53,11.53,0,0,1-5.54,4.22q-3.5,1.29-13.88,1.28Z" transform="translate(-150.41 -313.93)"/><polygon class="cls-1" points="272.83 64.8 276.74 46.84 240.14 46.78 242.59 35.01 275.46 35.07 278.42 21.51 245.31 21.66 247.48 11.14 281.58 11.2 283.84 0.45 215.05 0.32 201.48 64.67 272.83 64.8"/><path class="cls-1" d="M150.41,372.89h2l27.94.05-1.12,5.33,34.33.06,5.18-24.53,22.53,0a100.22,100.22,0,0,0,11.68-.42,31.86,31.86,0,0,0,8.52-2.16,19.81,19.81,0,0,0,5.91-4.18,22.47,22.47,0,0,0,4.65-7.36,24.83,24.83,0,0,0,1.9-9.48,16.73,16.73,0,0,0-2.35-9.08,13.32,13.32,0,0,0-6.42-5.45,30.15,30.15,0,0,0-11-1.67l-61.29-.12s-4.63,23.08-6.06,28.84c-24.09,12.88-35.16,28.38-35.21,28.46Zm4.31-2c6.67-8.06,37.2-40.58,97.84-42.68V334c-13.42,1.75-45.81,8.71-58.29,37.14l-39.64-.08.1-.13" transform="translate(-150.41 -313.93)"/><path class="cls-2" d="M154.72,370.66c6.67-8.06,37.2-40.58,97.84-42.68v5.76c-13.42,1.74-45.81,8.7-58.29,37.13l-39.64-.07.1-.14" transform="translate(-150.41 -313.93)"/></svg>