<svg id="Layer_1" data-name="Layer 1" xmlns="http://www.w3.org/2000/svg" viewBox="0 0 393.92 39.18"><defs><style>.cls-1{fill:#231f20;}</style></defs><title>Untitled-1</title><polygon class="cls-1" points="4.74 31.7 0 31.7 8.86 0 13.6 0 4.74 31.7"/><path class="cls-1" d="M191.16,516H186.5l4.64-16.6-4.38.09L182.14,516h-4.63l5.71-20.47h4.64l-.21.75,3.37-.5a22.31,22.31,0,0,1,3.35-.33c1.69,0,2.3.83,1.83,2.5Z" transform="translate(-169.12 -484.3)"/><path class="cls-1" d="M208.14,516h-4.66l4.63-16.6-4.37.09L199.12,516h-4.64l5.72-20.47h4.64l-.21.75,3.36-.5a22.55,22.55,0,0,1,3.36-.33c1.68,0,2.3.83,1.83,2.5Z" transform="translate(-169.12 -484.3)"/><path class="cls-1" d="M225.66,513.47a3.12,3.12,0,0,1-3.28,2.54h-8.31c-1.74,0-2.37-.85-1.9-2.54l4.3-15.39a3.15,3.15,0,0,1,3.32-2.54h8.31c1.71,0,2.34.85,1.86,2.54Zm-4.17-1.31,3.56-12.75h-4.39l-3.56,12.75Z" transform="translate(-169.12 -484.3)"/><polygon class="cls-1" points="78.75 11.24 67.8 31.75 63.36 31.75 63.86 11.24 68.62 11.24 67.56 24.7 74.01 11.24 78.75 11.24"/><path class="cls-1" d="M257.63,516h-4.44l.2-.71-3.29.48a24.33,24.33,0,0,1-3.23.31c-1.69,0-2.3-.83-1.84-2.49l2.07-7.38a3.14,3.14,0,0,1,3.32-2.53h6.26L258,499h-4.44l-.81,2.92h-4.2l1.07-3.83a3.16,3.16,0,0,1,3.33-2.54h7.84c1.71,0,2.33.85,1.86,2.54Zm-3.37-3.69,1.54-5.49h-4.44l-1.58,5.65Z" transform="translate(-169.12 -484.3)"/><path class="cls-1" d="M269.79,516h-5.15c-1.71,0-2.34-.85-1.87-2.54l3.91-14h-2.19l1.11-4h2.19l1.55-5.55H274l-1.56,5.55h3l-1.1,4h-3l-3.51,12.56h3.1Z" transform="translate(-169.12 -484.3)"/><path class="cls-1" d="M277,516h-4.56l5.72-20.47h4.56Zm6.58-23.4H279l1.34-4.78H285Z" transform="translate(-169.12 -484.3)"/><path class="cls-1" d="M294.68,513.47A3.12,3.12,0,0,1,291.4,516h-8.3c-1.75,0-2.38-.85-1.91-2.54l4.3-15.39a3.16,3.16,0,0,1,3.32-2.54h8.31c1.72,0,2.34.85,1.87,2.54Zm-4.17-1.31,3.56-12.75h-4.39l-3.56,12.75Z" transform="translate(-169.12 -484.3)"/><path class="cls-1" d="M311,516h-4.66l4.64-16.6-4.38.09L302,516h-4.64L303,495.54h4.64l-.21.75,3.36-.5a22.31,22.31,0,0,1,3.35-.33c1.69,0,2.3.83,1.84,2.5Z" transform="translate(-169.12 -484.3)"/><path class="cls-1" d="M327.87,513.47a3.13,3.13,0,0,1-3.28,2.54h-7.8c-1.72,0-2.34-.85-1.87-2.54l1.23-4.39h4.44l-1,3.44h4.08l.9-3.24-5.94-4.19a1.9,1.9,0,0,1-.77-2.23l1.34-4.78a3.14,3.14,0,0,1,3.32-2.54h7.72c1.71,0,2.33.85,1.86,2.54L331,502.19h-4.4l.89-3.16H323.4l-.83,3,5.93,4.15a1.88,1.88,0,0,1,.78,2.27Z" transform="translate(-169.12 -484.3)"/><path class="cls-1" d="M343.63,516h-4.56l5.72-20.47h4.56Zm6.58-23.4h-4.64l1.34-4.78h4.64Z" transform="translate(-169.12 -484.3)"/><path class="cls-1" d="M360.73,516h-4.66l4.64-16.6-4.38.09L351.72,516h-4.64l5.71-20.47h4.64l-.21.75,3.37-.5a22.31,22.31,0,0,1,3.35-.33c1.69,0,2.3.83,1.83,2.5Z" transform="translate(-169.12 -484.3)"/><path class="cls-1" d="M387.42,511.89a5.14,5.14,0,0,1-2.76,3.49,9.83,9.83,0,0,1-4.13.71l-1.7,0c-.72,0-1.25,0-1.57,0l-2.09,7.47h-4.64l7.8-27.94H383l-.21.75,3.39-.5a23.2,23.2,0,0,1,3.33-.33c1.69,0,2.3.83,1.83,2.5Zm-4.3-1.27,3.13-11.21-4.38.09-3.54,12.66h2.88a1.86,1.86,0,0,0,1.91-1.54" transform="translate(-169.12 -484.3)"/><path class="cls-1" d="M403.49,513.47a3.15,3.15,0,0,1-3.32,2.54h-8c-1.75,0-2.38-.85-1.91-2.54l4.3-15.39a3.15,3.15,0,0,1,3.32-2.54h8c1.74,0,2.37.85,1.9,2.54l-2.1,7.51-1.63,1.28h-7.52l-1.6,5.73h4.36l.95-3.4h4.43Zm-1.75-9.62,1.37-4.9h-4.35l-1.37,4.9Z" transform="translate(-169.12 -484.3)"/><path class="cls-1" d="M422.38,504.09h-4.6l1.31-4.68-3.69.09L410.78,516h-4.64l5.72-20.47h4.64l-.21.75,3-.52a17.8,17.8,0,0,1,3-.31c1.69,0,2.3.83,1.83,2.5Z" transform="translate(-169.12 -484.3)"/><path class="cls-1" d="M438.39,488.33H435l-2,7.21h3l-1.1,4h-3L427.25,516h-4.59l4.61-16.51h-2.11l1.11-4h2.1l2.44-8.71a3.12,3.12,0,0,1,3.28-2.53h5.43Z" transform="translate(-169.12 -484.3)"/><path class="cls-1" d="M446.56,513.47a3.13,3.13,0,0,1-3.28,2.54H435c-1.74,0-2.37-.85-1.9-2.54l4.3-15.39a3.15,3.15,0,0,1,3.32-2.54H449c1.71,0,2.34.85,1.86,2.54Zm-4.17-1.31L446,499.41h-4.39L438,512.16Z" transform="translate(-169.12 -484.3)"/><path class="cls-1" d="M465.43,504.09h-4.6l1.31-4.68-3.69.09L453.83,516H449.2l5.71-20.47h4.64l-.21.75,3-.52a17.8,17.8,0,0,1,3-.31c1.69,0,2.3.83,1.84,2.5Z" transform="translate(-169.12 -484.3)"/><path class="cls-1" d="M487.28,516h-4.6l4.64-16.6-4.38.09L478.33,516h-4.62l4.64-16.6-4.38.09L469.35,516h-4.64l5.72-20.47h4.64l-.21.75,3.37-.52a22.87,22.87,0,0,1,3.35-.31c1.06,0,1.67.31,1.81.92l3.56-.55a24.25,24.25,0,0,1,3.54-.37c1.69,0,2.3.83,1.84,2.5Z" transform="translate(-169.12 -484.3)"/><path class="cls-1" d="M503.79,516h-4.43l.19-.71-3.29.48a24.18,24.18,0,0,1-3.23.31c-1.68,0-2.3-.83-1.83-2.49l2.06-7.38a3.14,3.14,0,0,1,3.32-2.53h6.26l1.31-4.7h-4.43l-.82,2.92h-4.19l1.07-3.83a3.15,3.15,0,0,1,3.32-2.54h7.84c1.72,0,2.34.85,1.86,2.54Zm-3.36-3.69,1.53-5.49h-4.43L496,512.48Z" transform="translate(-169.12 -484.3)"/><path class="cls-1" d="M520.77,516h-4.66l4.64-16.6-4.38.09L511.75,516h-4.63l5.71-20.47h4.64l-.21.75,3.37-.5a22.31,22.31,0,0,1,3.35-.33c1.69,0,2.3.83,1.83,2.5Z" transform="translate(-169.12 -484.3)"/><path class="cls-1" d="M538,513.47a3.13,3.13,0,0,1-3.28,2.54h-8c-1.75,0-2.38-.85-1.91-2.54l4.3-15.39a3.16,3.16,0,0,1,3.32-2.54h8.05c1.71,0,2.33.85,1.86,2.54L541,502.94h-4.51l1-3.53h-4.15l-3.56,12.75h4.15l1.09-3.91h4.52Z" transform="translate(-169.12 -484.3)"/><path class="cls-1" d="M554.58,513.47a3.15,3.15,0,0,1-3.32,2.54h-8c-1.74,0-2.38-.85-1.91-2.54l4.31-15.39a3.14,3.14,0,0,1,3.32-2.54h8c1.74,0,2.38.85,1.91,2.54l-2.11,7.51-1.63,1.28h-7.51L546,512.6h4.36l1-3.4h4.44Zm-1.74-9.62,1.37-4.9h-4.36l-1.37,4.9Z" transform="translate(-169.12 -484.3)"/><polygon class="cls-1" points="392.56 31.7 388 31.7 389.37 26.8 393.93 26.8 392.56 31.7"/></svg>