<svg id="Layer_1" data-name="Layer 1" xmlns="http://www.w3.org/2000/svg" xmlns:xlink="http://www.w3.org/1999/xlink" viewBox="0 0 660.56 289.79"><defs><style>.cls-1,.cls-7,.cls-8{fill:none;}.cls-2{opacity:0.4;}.cls-3{clip-path:url(#clip-path);}.cls-4{fill:#58595b;}.cls-5{fill:#fff;}.cls-6{fill:#e31e27;}.cls-7{stroke:#f1f1f2;stroke-width:0.81px;stroke-dasharray:2.53 2.53;}.cls-7,.cls-8{stroke-miterlimit:10;}.cls-8{stroke:#fff;stroke-width:0.93px;stroke-dasharray:3.11 3.11;}</style><clipPath id="clip-path" transform="translate(-134.45 -479.27)"><rect class="cls-1" x="134.84" y="479.98" width="659.63" height="288.53"/></clipPath></defs><title>border-img</title><g class="cls-2"><g class="cls-3"><path class="cls-4" d="M134.84,768.51H794.47V480H134.84Zm593.52-64.14H201V544.12H728.36Z" transform="translate(-134.45 -479.27)"/></g></g><path class="cls-5" d="M201,690h10.87a3.57,3.57,0,0,1,2.58.79,4,4,0,0,1,.82,2.9v.57a3.28,3.28,0,0,1-4,4h-8.51v5.46H201Zm1.76,1.5v5.31h8.48c1.51,0,2.26-.65,2.26-2v-1.31a2,2,0,0,0-.51-1.6,2.93,2.93,0,0,0-1.83-.43Z" transform="translate(-134.45 -479.27)"/><path class="cls-5" d="M218,703.78,225.67,690h2.16l7.63,13.79h-2l-1.64-2.94h-10.2L220,703.79Zm4.44-4.46H231l-4.29-7.81h0Z" transform="translate(-134.45 -479.27)"/><path class="cls-5" d="M252.75,699.17h1.64v1a3.64,3.64,0,0,1-1,2.88,5,5,0,0,1-3.32.85H243.5a4.72,4.72,0,0,1-3.58-1.16,5.62,5.62,0,0,1-1.06-3.83v-4.07a5.54,5.54,0,0,1,1.08-3.81,4.67,4.67,0,0,1,3.57-1.18h6.58q4,0,4,3.39v1.21h-1.54v-.61A2.47,2.47,0,0,0,252,692a3.32,3.32,0,0,0-2.18-.55h-6.12a3.18,3.18,0,0,0-2.34.72,3.09,3.09,0,0,0-.69,2.25v5.07a3.36,3.36,0,0,0,.67,2.25,3.13,3.13,0,0,0,2.37.75h6.11a4,4,0,0,0,2.35-.51,2.21,2.21,0,0,0,.64-1.82Z" transform="translate(-134.45 -479.27)"/><rect class="cls-5" x="253.03" y="696.04" width="13.78" height="1.76" transform="translate(-572.19 475.59) rotate(-89.84)"/><polygon class="cls-5" points="131.59 224.55 131.61 210.76 143.92 210.77 143.92 212.28 133.36 212.27 133.36 216.74 143.52 216.74 143.51 218.26 133.36 218.25 133.36 224.55 131.59 224.55"/><rect class="cls-5" x="148.32" y="210.78" width="1.76" height="13.79"/><path class="cls-5" d="M303.29,699.21h1.63v1a3.69,3.69,0,0,1-1,2.9,5.13,5.13,0,0,1-3.33.84H294a4.72,4.72,0,0,1-3.58-1.16,5.58,5.58,0,0,1-1.07-3.84v-4.06a5.52,5.52,0,0,1,1.08-3.82,4.65,4.65,0,0,1,3.56-1.17h6.59c2.67,0,4,1.14,4,3.4l0,1.2h-1.54l0-.62a2.43,2.43,0,0,0-.63-1.92,3.38,3.38,0,0,0-2.18-.55h-6.11a3.14,3.14,0,0,0-2.33.71,3.08,3.08,0,0,0-.7,2.25v5.08a3.26,3.26,0,0,0,.68,2.24,3,3,0,0,0,2.36.75h6.11a4,4,0,0,0,2.35-.51,2.25,2.25,0,0,0,.64-1.82Z" transform="translate(-134.45 -479.27)"/><path class="cls-5" d="M319.9,690.07h10.86a3.56,3.56,0,0,1,2.58.79,4.08,4.08,0,0,1,.83,2.91v.56c0,1.58-.29,2.65-.88,3.22a4.55,4.55,0,0,1-3.13.84h-8.51v5.47h-1.76Zm1.75,1.51v5.31h8.49c1.51,0,2.26-.65,2.26-2v-1.3a2,2,0,0,0-.51-1.61,3,3,0,0,0-1.83-.42Z" transform="translate(-134.45 -479.27)"/><polygon class="cls-5" points="203.9 224.6 203.92 210.82 216.52 210.82 216.52 212.34 205.68 212.32 205.68 216.79 216.07 216.8 216.07 218.3 205.68 218.3 205.67 223.09 216.58 223.1 216.58 224.61 203.9 224.6"/><path class="cls-5" d="M355.37,703.88V690.09l10.44,0a5.11,5.11,0,0,1,3.32.81,4,4,0,0,1,.92,3v1.12a2.7,2.7,0,0,1-.57,2,3.09,3.09,0,0,1-1.85.73,2.45,2.45,0,0,1,2.26,2.68v3.47h-1.65v-3a2.46,2.46,0,0,0-.57-1.9,3.06,3.06,0,0,0-2.08-.51h-8.47v5.46Zm1.76-7h8.32a4.36,4.36,0,0,0,2.11-.42,1.7,1.7,0,0,0,.73-1.61v-1.23a1.75,1.75,0,0,0-.69-1.64,5.23,5.23,0,0,0-2.41-.41h-8.05Z" transform="translate(-134.45 -479.27)"/><polygon class="cls-5" points="240.36 224.63 240.37 210.84 252.69 210.85 252.69 212.36 242.13 212.35 242.12 216.81 252.28 216.82 252.27 218.33 242.13 218.32 242.12 224.63 240.36 224.63"/><path class="cls-5" d="M391.13,699.05V695a5.44,5.44,0,0,1,1.09-3.81,4.73,4.73,0,0,1,3.59-1.18h7.33a4.47,4.47,0,0,1,3.59,1.22,5.9,5.9,0,0,1,1,3.83v4a5.72,5.72,0,0,1-1.05,3.85,4.63,4.63,0,0,1-3.57,1.17H395.8a4.71,4.71,0,0,1-3.59-1.16,5.51,5.51,0,0,1-1.08-3.83m1.76-4.58v5.07a3.11,3.11,0,0,0,.73,2.29,3.26,3.26,0,0,0,2.35.71h7a3.09,3.09,0,0,0,2.32-.73,3.16,3.16,0,0,0,.69-2.24v-5.06a3.09,3.09,0,0,0-.72-2.3,3.17,3.17,0,0,0-2.3-.7h-7a3.12,3.12,0,0,0-2.4.75,3.22,3.22,0,0,0-.67,2.22" transform="translate(-134.45 -479.27)"/><path class="cls-5" d="M412.48,703.92V690.13l10.43,0a5.11,5.11,0,0,1,3.32.81,3.92,3.92,0,0,1,.92,3v1.12a2.72,2.72,0,0,1-.57,1.95,3.05,3.05,0,0,1-1.85.73,2.46,2.46,0,0,1,2.26,2.68v3.48h-1.65v-3a2.52,2.52,0,0,0-.55-1.9,3.11,3.11,0,0,0-2.09-.51h-8.47v5.47Zm1.76-7h8.32a4.25,4.25,0,0,0,2.11-.42,1.67,1.67,0,0,0,.73-1.6v-1.23a1.73,1.73,0,0,0-.69-1.64,4.93,4.93,0,0,0-2.4-.42h-8.07Z" transform="translate(-134.45 -479.27)"/><polygon class="cls-5" points="297.35 210.88 300.09 210.89 307.57 222.47 307.56 222.47 315.05 210.9 317.78 210.9 317.78 224.68 316.02 224.68 316.03 212.51 316.05 212.51 308.19 224.68 306.93 224.68 299.09 212.49 299.12 212.49 299.11 224.67 297.34 224.67 297.35 210.88"/><path class="cls-5" d="M455.93,704l7.65-13.78h2.17L473.38,704h-2l-1.64-3H459.55L457.91,704Zm4.44-4.47H469l-4.31-7.81h0Z" transform="translate(-134.45 -479.27)"/><polygon class="cls-5" points="342.58 210.92 345.16 210.92 357.08 223.04 357.03 223.04 357.04 210.92 358.8 210.93 358.79 224.71 356.22 224.71 344.3 212.59 344.34 212.59 344.33 224.7 342.57 224.7 342.58 210.92"/><path class="cls-5" d="M511.77,699.37h1.63v1a3.68,3.68,0,0,1-1,2.89,5.13,5.13,0,0,1-3.33.84h-6.58a4.66,4.66,0,0,1-3.57-1.16,5.64,5.64,0,0,1-1.07-3.83v-4.07a5.54,5.54,0,0,1,1.08-3.82,4.66,4.66,0,0,1,3.56-1.17h6.59c2.67,0,4,1.14,4,3.4l0,1.2h-1.54v-.61a2.4,2.4,0,0,0-.62-1.92,3.32,3.32,0,0,0-2.18-.56h-6.12a2.56,2.56,0,0,0-3,3v5.07a3.36,3.36,0,0,0,.67,2.25,3.09,3.09,0,0,0,2.37.74h6.11a3.85,3.85,0,0,0,2.34-.51,2.21,2.21,0,0,0,.65-1.82Z" transform="translate(-134.45 -479.27)"/><polygon class="cls-5" points="383.57 224.73 383.58 210.94 396.19 210.96 396.18 212.47 385.34 212.46 385.34 216.92 395.74 216.93 395.74 218.44 385.33 218.43 385.33 223.22 396.24 223.23 396.24 224.74 383.57 224.73"/><polygon class="cls-5" points="411.05 224.75 411.06 210.97 423.66 210.97 423.66 212.49 412.82 212.48 412.82 216.94 423.22 216.94 423.22 218.46 412.81 218.45 412.81 223.25 423.72 223.25 423.72 224.76 411.05 224.75"/><polygon class="cls-5" points="428.06 210.98 430.65 210.98 442.56 223.11 442.52 223.11 442.52 210.99 444.29 210.99 444.28 224.77 441.7 224.78 429.78 212.65 429.83 212.65 429.82 224.76 428.06 224.76 428.06 210.98"/><path class="cls-5" d="M591.25,698.76v-1.52h8.33v2.12a5.53,5.53,0,0,1-1,3.7,4.42,4.42,0,0,1-3.47,1.12H588a4.65,4.65,0,0,1-3.59-1.16,5.69,5.69,0,0,1-1.09-3.94V695a5.49,5.49,0,0,1,1.13-3.78,5,5,0,0,1,3.63-1.12h6.44q4.91,0,4.9,3.78v.52h-1.64c0-1.2-.26-2-.79-2.29a8.31,8.31,0,0,0-3.66-.49h-5.12a3.32,3.32,0,0,0-2.41.72,3.14,3.14,0,0,0-.72,2.3v4.82a3.72,3.72,0,0,0,.67,2.44,3.24,3.24,0,0,0,2.46.76h6.65a3.49,3.49,0,0,0,2.22-.58,2.56,2.56,0,0,0,.71-2v-1.31Z" transform="translate(-134.45 -479.27)"/><rect class="cls-5" x="598.4" y="696.29" width="13.79" height="1.76" transform="matrix(0, -1, 1, 0, -228.05, 821.21)"/><polygon class="cls-5" points="476.84 211.01 479.42 211.01 491.34 223.14 491.3 223.14 491.31 211.03 493.06 211.02 493.06 224.81 490.48 224.81 478.56 212.68 478.6 212.68 478.59 224.8 476.83 224.8 476.84 211.01"/><polygon class="cls-5" points="498.06 224.82 498.07 211.03 510.67 211.04 510.67 212.55 499.83 212.54 499.82 217 510.23 217.01 510.23 218.52 499.82 218.51 499.82 223.31 510.73 223.31 510.73 224.82 498.06 224.82"/><polygon class="cls-5" points="515.19 224.83 515.2 211.04 527.81 211.05 527.81 212.56 516.96 212.55 516.96 217.01 527.36 217.02 527.36 218.53 516.96 218.52 516.96 223.32 527.86 223.32 527.86 224.83 515.19 224.83"/><path class="cls-5" d="M666.65,704.11V690.32H677.1a5,5,0,0,1,3.32.82,3.93,3.93,0,0,1,.92,3v1.13a2.74,2.74,0,0,1-.57,1.94,3.09,3.09,0,0,1-1.86.73,2.47,2.47,0,0,1,2.27,2.69v3.47h-1.65v-3.06a2.49,2.49,0,0,0-.56-1.9,3.15,3.15,0,0,0-2.09-.51h-8.47v5.47Zm1.76-7h8.33a4.25,4.25,0,0,0,2.11-.42,1.7,1.7,0,0,0,.73-1.6v-1.23a1.72,1.72,0,0,0-.68-1.64,5.1,5.1,0,0,0-2.41-.41h-8.06Z" transform="translate(-134.45 -479.27)"/><rect class="cls-5" x="551.68" y="211.07" width="1.77" height="13.79"/><polygon class="cls-5" points="558.57 211.07 561.15 211.08 573.06 223.2 573.02 223.2 573.03 211.08 574.79 211.09 574.78 224.87 572.2 224.87 560.29 212.74 560.33 212.74 560.32 224.86 558.56 224.86 558.57 211.07"/><path class="cls-5" d="M721.75,698.85v-1.51h8.33v2.12a5.55,5.55,0,0,1-1,3.7,4.46,4.46,0,0,1-3.47,1.13h-7.07a4.81,4.81,0,0,1-3.61-1.16,5.75,5.75,0,0,1-1.08-3.94v-4.06a5.46,5.46,0,0,1,1.14-3.78,5,5,0,0,1,3.63-1.12h6.43q4.91,0,4.9,3.78v.52h-1.64c0-1.21-.26-2-.78-2.3a8.56,8.56,0,0,0-3.67-.49h-5.12a3.24,3.24,0,0,0-2.41.72,3.12,3.12,0,0,0-.72,2.3v4.81a3.73,3.73,0,0,0,.66,2.44,3.17,3.17,0,0,0,2.46.76h6.65a3.48,3.48,0,0,0,2.22-.6,2.51,2.51,0,0,0,.71-2v-1.31Z" transform="translate(-134.45 -479.27)"/><path class="cls-6" d="M479,672.48l9.68-48.87,42,.09q16,0,21.79-.84,10-1.46,15.9-4.29a37.21,37.21,0,0,0,11-8.33,45.13,45.13,0,0,0,8.67-14.67,52.54,52.54,0,0,0,3.57-18.88q0-10.5-4.4-18.07a25.5,25.5,0,0,0-12-10.87c-5.05-2.19-11.92-3.31-20.6-3.32l-114.38-.23L415,672.35ZM500.21,565.4l9.84,0q12,0,15.51,1.38a11,11,0,0,1,5.41,4.34,13.67,13.67,0,0,1,1.91,7.61,22.7,22.7,0,0,1-3.79,12.67,21.65,21.65,0,0,1-10.35,8.39q-6.5,2.58-25.89,2.56Z" transform="translate(-134.45 -479.27)"/><polygon class="cls-6" points="574.6 193.67 581.88 157.91 513.59 157.78 518.16 134.34 579.51 134.46 585.03 107.45 523.23 107.74 527.29 86.8 590.93 86.92 595.15 65.51 466.76 65.25 441.44 193.4 574.6 193.67"/><path class="cls-6" d="M199.86,661.31h3.81l52.15.11L253.72,672l64.07.13,9.67-48.87,42,.09q16,0,21.8-.84a57.11,57.11,0,0,0,15.91-4.29,37.43,37.43,0,0,0,11-8.33,45.13,45.13,0,0,0,8.67-14.67,52.56,52.56,0,0,0,3.56-18.88q0-10.5-4.39-18.07a25.49,25.49,0,0,0-12-10.87q-7.56-3.28-20.6-3.33l-114.39-.22s-8.63,46-11.31,57.43c-45,25.65-65.62,56.52-65.7,56.68Zm8-3.93c12.45-16,69.42-80.82,182.59-85v11.45c-25.05,3.48-85.5,17.33-108.8,74l-74-.15c.06-.07.12-.17.2-.26" transform="translate(-134.45 -479.27)"/><path class="cls-5" d="M207.91,656.86c12.45-16.05,69.42-80.82,182.59-85v11.46c-25.05,3.47-85.5,17.33-108.8,73.95l-74-.14.2-.27" transform="translate(-134.45 -479.27)"/><rect class="cls-7" x="65.41" y="65.25" width="529.73" height="159.45"/><rect class="cls-8" x="595.15" y="0.47" width="64.46" height="64.46"/><rect class="cls-8" x="595.63" y="224.7" width="64.46" height="64.46"/><rect class="cls-8" x="0.47" y="0.63" width="64.46" height="64.46"/><rect class="cls-8" x="0.95" y="224.86" width="64.46" height="64.46"/></svg>