<svg id="Layer_1" data-name="Layer 1" xmlns="http://www.w3.org/2000/svg" viewBox="0 0 651.96 407.69"><defs><style>.cls-1{fill:#e31e27;}.cls-2{fill:#fff;}.cls-3,.cls-4,.cls-5,.cls-6,.cls-7{fill:none;stroke:#fff;stroke-miterlimit:10;}.cls-3{stroke-width:0.9px;}.cls-4{stroke-width:0.9px;}.cls-5{stroke-width:0.99px;}.cls-6{stroke-width:1px;}.cls-7{stroke-width:0.74px;}</style></defs><title>main</title><path class="cls-1" d="M411.48,563.88,422,514.2l45.6.08q17.34,0,23.64-.84c7.25-1,13-2.46,17.26-4.37a40.14,40.14,0,0,0,12-8.47,45.38,45.38,0,0,0,9.41-14.91,50.43,50.43,0,0,0,3.86-19.2q0-10.68-4.76-18.37a27.12,27.12,0,0,0-13-11.05q-8.21-3.35-22.34-3.38l-124.11-.23L342,563.75Zm23-108.86h10.66q13.08,0,16.84,1.41a11.85,11.85,0,0,1,5.87,4.42,13.33,13.33,0,0,1,2.07,7.73,22,22,0,0,1-4.11,12.88A23.37,23.37,0,0,1,454.55,490q-7.07,2.63-28.09,2.6Z" transform="translate(-80.64 -404.1)"/><polygon class="cls-1" points="580.39 160.25 588.29 123.89 514.19 123.76 519.15 99.93 585.71 100.05 591.71 72.59 524.66 72.89 529.06 51.59 598.11 51.72 602.68 29.95 463.38 29.69 435.92 159.98 580.39 160.25"/><path class="cls-1" d="M108.57,552.52h4.13l56.58.11L167,563.42l69.51.13L247,513.87l45.61.09q17.36,0,23.65-.85c7.24-1,13-2.46,17.26-4.37a40.1,40.1,0,0,0,12-8.47,45.17,45.17,0,0,0,9.41-14.91,50.23,50.23,0,0,0,3.86-19.19q0-10.68-4.76-18.38a27.14,27.14,0,0,0-13-11.05q-8.21-3.33-22.35-3.38l-124.11-.23s-9.37,46.72-12.27,58.39C133.5,517.6,111.07,549,111,549.15Zm8.73-4c13.51-16.31,75.32-82.16,198.11-86.41l0,11.64c-27.17,3.54-92.76,17.62-118,75.19l-80.27-.14c.06-.08.13-.18.22-.28" transform="translate(-80.64 -404.1)"/><path class="cls-2" d="M117.3,548c13.51-16.32,75.32-82.16,198.11-86.42l0,11.65c-27.17,3.53-92.76,17.62-118,75.19l-80.27-.15c.06-.08.13-.17.22-.27" transform="translate(-80.64 -404.1)"/><ellipse class="cls-3" cx="235.03" cy="69.03" rx="40.26" ry="39.67"/><ellipse class="cls-3" cx="237.09" cy="66.05" rx="40.15" ry="40.01"/><path class="cls-3" d="M358.77,467.53a40,40,0,1,1-40-40A40,40,0,0,1,358.77,467.53Z" transform="translate(-80.64 -404.1)"/><circle class="cls-4" cx="324.57" cy="473.3" r="39.84" transform="translate(-329.32 96.46) rotate(-58.28)"/><circle class="cls-4" cx="491.24" cy="473.3" r="39.84" transform="translate(-250.27 238.24) rotate(-58.28)"/><path class="cls-3" d="M532.57,469.8a40,40,0,1,1-40-40A40,40,0,0,1,532.57,469.8Z" transform="translate(-80.64 -404.1)"/><path class="cls-3" d="M533.73,467.18a40,40,0,1,1-40-40A40,40,0,0,1,533.73,467.18Z" transform="translate(-80.64 -404.1)"/><path class="cls-4" d="M539.15,473.64a39.85,39.85,0,1,1-39.84-39.84A39.84,39.84,0,0,1,539.15,473.64Z" transform="translate(-80.64 -404.1)"/><line class="cls-5" x1="4.9" y1="29.36" x2="651.96" y2="29.36"/><line class="cls-5" x1="4.9" y1="50.92" x2="651.96" y2="50.92"/><line class="cls-5" x1="4.9" y1="72.47" x2="651.96" y2="72.47"/><line class="cls-5" x1="4.9" y1="88.5" x2="651.96" y2="88.5"/><line class="cls-5" x1="4.9" y1="99.52" x2="651.96" y2="99.52"/><line class="cls-5" x1="4.9" y1="109.38" x2="651.96" y2="109.38"/><line class="cls-5" x1="4.9" y1="123.97" x2="651.96" y2="123.97"/><line class="cls-5" x1="4.9" y1="148.42" x2="651.96" y2="148.42"/><line class="cls-5" x1="4.9" y1="160.25" x2="651.96" y2="160.25"/><line class="cls-5" x1="611.4" y1="0.09" x2="574.48" y2="191.08"/><line class="cls-5" x1="605.4" y1="0.09" x2="568.47" y2="191.08"/><line class="cls-5" x1="608.35" y1="0.09" x2="571.42" y2="191.08"/><line class="cls-5" x1="602.68" y1="0.09" x2="565.76" y2="191.08"/><line class="cls-5" x1="538.73" y1="0.09" x2="501.8" y2="191.08"/><line class="cls-5" x1="468.05" y1="0.09" x2="431.12" y2="191.08"/><line class="cls-5" x1="294.14" y1="0.09" x2="257.21" y2="191.08"/><line class="cls-5" x1="363" y1="0.09" x2="326.08" y2="191.08"/><line class="cls-5" x1="118.12" y1="0.09" x2="81.2" y2="191.08"/><line class="cls-5" x1="187.92" y1="0.09" x2="150.99" y2="191.08"/><ellipse class="cls-6" cx="170.6" cy="240.92" rx="170.1" ry="166.27"/><path class="cls-5" d="M469.89,468.09a24,24,0,1,1-24-24A24,24,0,0,1,469.89,468.09Z" transform="translate(-80.64 -404.1)"/><circle class="cls-7" cx="454.28" cy="472.96" r="17.95" transform="translate(-237.16 307.57) rotate(-67.5)"/></svg>