<svg id="Layer_1" data-name="Layer 1" xmlns="http://www.w3.org/2000/svg" xmlns:xlink="http://www.w3.org/1999/xlink" viewBox="0 0 1086.73 2722.56"><defs><style>.cls-1,.cls-102,.cls-103,.cls-104,.cls-105,.cls-106,.cls-107,.cls-109,.cls-110,.cls-22,.cls-67,.cls-71,.cls-72,.cls-9,.cls-95{fill:none;}.cls-2{clip-path:url(#clip-path);}.cls-3{fill:#d1d3d4;}.cls-4{fill:#292728;}.cls-5{fill:#231f20;}.cls-6{fill:#e31e27;}.cls-23,.cls-65,.cls-7{fill:#fff;}.cls-8{fill:#010101;}.cls-9{stroke:#eb0d8c;stroke-width:1.9px;}.cls-102,.cls-103,.cls-104,.cls-105,.cls-106,.cls-107,.cls-109,.cls-110,.cls-22,.cls-67,.cls-71,.cls-72,.cls-9,.cls-95{stroke-miterlimit:10;}.cls-10,.cls-21,.cls-65{font-size:14px;}.cls-10,.cls-13,.cls-26,.cls-37,.cls-40,.cls-42,.cls-44,.cls-55,.cls-58,.cls-63,.cls-70,.cls-74,.cls-83,.cls-88,.cls-96,.cls-97{fill:#58595b;}.cls-10,.cls-108,.cls-13,.cls-21,.cls-44,.cls-58,.cls-63,.cls-65,.cls-74,.cls-83,.cls-88,.cls-96,.cls-97{font-family:ArialMT, Arial;}.cls-11{letter-spacing:-0.11em;}.cls-12{letter-spacing:-0.07em;}.cls-108,.cls-13{font-size:12px;}.cls-14{letter-spacing:-0.05em;}.cls-15{letter-spacing:-0.02em;}.cls-16{letter-spacing:-0.05em;}.cls-17{letter-spacing:-0.11em;}.cls-18{letter-spacing:-0.07em;}.cls-19{letter-spacing:-0.07em;}.cls-20{letter-spacing:-0.07em;}.cls-21,.cls-94{fill:#e6e7e8;}.cls-102,.cls-22,.cls-67{stroke:#292728;}.cls-22{stroke-width:6.73px;}.cls-23{font-size:15px;}.cls-23,.cls-26,.cls-40,.cls-42{font-family:Arial-BoldMT, Arial;}.cls-23,.cls-26,.cls-37,.cls-40,.cls-42{font-weight:700;}.cls-24{letter-spacing:-0.06em;}.cls-25{letter-spacing:-0.07em;}.cls-26,.cls-44{font-size:32px;}.cls-27{letter-spacing:-0.09em;}.cls-28{letter-spacing:-0.05em;}.cls-29{letter-spacing:-0.05em;}.cls-30{letter-spacing:-0.05em;}.cls-31{letter-spacing:-0.05em;}.cls-32{letter-spacing:-0.05em;}.cls-33{letter-spacing:-0.07em;}.cls-34{letter-spacing:-0.05em;}.cls-35{letter-spacing:-0.07em;}.cls-36{letter-spacing:-0.07em;}.cls-37{font-size:222px;font-family:Calibri-Bold, Calibri;}.cls-38{letter-spacing:-0.12em;}.cls-39{letter-spacing:-0.12em;}.cls-40,.cls-58{font-size:34px;}.cls-41{letter-spacing:0em;}.cls-42,.cls-63{font-size:30px;}.cls-43{letter-spacing:-0.07em;}.cls-45{letter-spacing:-0.1em;}.cls-46{letter-spacing:-0.04em;}.cls-47{letter-spacing:-0.04em;}.cls-48{letter-spacing:-0.04em;}.cls-49{letter-spacing:-0.04em;}.cls-50{letter-spacing:-0.08em;}.cls-51{letter-spacing:-0.04em;}.cls-52{letter-spacing:-0.05em;}.cls-53{letter-spacing:-0.06em;}.cls-54{letter-spacing:-0.06em;}.cls-55{font-size:225px;font-family:Calibri;}.cls-56{letter-spacing:-0.1em;}.cls-57{letter-spacing:-0.1em;}.cls-59{letter-spacing:0.02em;}.cls-60{letter-spacing:0.02em;}.cls-61{letter-spacing:0.02em;}.cls-62{letter-spacing:0.02em;}.cls-64{letter-spacing:-0.05em;}.cls-66{letter-spacing:-0.05em;}.cls-67{stroke-width:7.2px;}.cls-68{opacity:0.4;}.cls-69{clip-path:url(#clip-path-9);}.cls-71{stroke:#f1f2f2;stroke-width:0.81px;stroke-dasharray:2.53 2.53;}.cls-103,.cls-104,.cls-105,.cls-106,.cls-107,.cls-72{stroke:#fff;}.cls-72{stroke-width:0.93px;stroke-dasharray:3.11 3.11;}.cls-73{fill:#ec2227;}.cls-74,.cls-83,.cls-88,.cls-96,.cls-97{font-size:18.76px;}.cls-75,.cls-88{letter-spacing:-0.08em;}.cls-76{letter-spacing:0em;}.cls-77,.cls-83{letter-spacing:-0.01em;}.cls-78{letter-spacing:-0.02em;}.cls-79{letter-spacing:-0.01em;}.cls-80{letter-spacing:-0.01em;}.cls-81{opacity:0.6;}.cls-82{clip-path:url(#clip-path-11);}.cls-84{letter-spacing:0em;}.cls-85{clip-path:url(#clip-path-12);}.cls-86{clip-path:url(#clip-path-13);}.cls-87{fill:#6c7070;}.cls-89{letter-spacing:-0.02em;}.cls-90{letter-spacing:-0.01em;}.cls-91{letter-spacing:0em;}.cls-92,.cls-97{letter-spacing:-0.01em;}.cls-93{letter-spacing:0em;}.cls-95{stroke:#231f20;}.cls-109,.cls-110,.cls-95{stroke-width:0.72px;}.cls-96,.cls-99{letter-spacing:-0.08em;}.cls-98{letter-spacing:-0.04em;}.cls-100{letter-spacing:-0.02em;}.cls-101{letter-spacing:0em;}.cls-102{stroke-width:6.91px;}.cls-103{stroke-width:0.9px;}.cls-104{stroke-width:0.9px;}.cls-105{stroke-width:0.99px;}.cls-106{stroke-width:1px;}.cls-107{stroke-width:0.74px;}.cls-108{fill:#ed1c24;}.cls-109,.cls-110{stroke:#ed1c24;}.cls-110{stroke-dasharray:3.64 3.64;}</style><clipPath id="clip-path" transform="translate(-69.46 -72.5)"><rect class="cls-1" width="1224" height="2871.8"/></clipPath><clipPath id="clip-path-9" transform="translate(-69.46 -72.5)"><rect class="cls-1" x="283.61" y="1595.03" width="659.63" height="288.53"/></clipPath><clipPath id="clip-path-11" transform="translate(-69.46 -72.5)"><rect class="cls-1" x="101.63" y="2667.31" width="54.3" height="25.01"/></clipPath><clipPath id="clip-path-12" transform="translate(-69.46 -72.5)"><rect class="cls-1" x="115.47" y="2700.5" width="40.47" height="25.01"/></clipPath><clipPath id="clip-path-13" transform="translate(-69.46 -72.5)"><rect class="cls-1" x="113.33" y="2733.7" width="42.6" height="25.01"/></clipPath></defs><title>PPE_main</title><g class="cls-2"><rect class="cls-3" x="6.55" y="752.13" width="535.82" height="83.89"/><rect class="cls-4" x="2.33" y="899.07" width="1079.5" height="1079.5"/><rect class="cls-4" x="5.96" y="706.38" width="535.82" height="68.37"/><g class="cls-2"><path class="cls-5" d="M126.88,285.73h10.93a3.77,3.77,0,0,1,2.6.75,3.61,3.61,0,0,1,.82,2.73v.54a4.09,4.09,0,0,1-.86,3,4.85,4.85,0,0,1-3.16.79h-8.56v5.15h-1.77Zm1.77,1.42v5h8.53c1.52,0,2.28-.61,2.28-1.85v-1.23a1.83,1.83,0,0,0-.52-1.51,3.11,3.11,0,0,0-1.84-.4Z" transform="translate(-69.46 -72.5)"/><path class="cls-5" d="M144,298.73l7.7-13h2.18l7.66,13h-2L157.89,296H147.63L146,298.74Zm4.46-4.2h8.63l-4.33-7.35h0Z" transform="translate(-69.46 -72.5)"/><path class="cls-5" d="M178.93,294.39h1.64v1a3.29,3.29,0,0,1-1,2.72,5.29,5.29,0,0,1-3.34.8h-6.62a4.88,4.88,0,0,1-3.59-1.1,5.09,5.09,0,0,1-1.08-3.61v-3.83a5,5,0,0,1,1.08-3.6,4.88,4.88,0,0,1,3.59-1.11h6.62q4,0,4,3.19l0,1.14h-1.54v-.58a2.24,2.24,0,0,0-.62-1.81,3.5,3.5,0,0,0-2.2-.52h-6.14a3.41,3.41,0,0,0-2.36.68,2.82,2.82,0,0,0-.7,2.12v4.78a3,3,0,0,0,.67,2.12,3.29,3.29,0,0,0,2.39.71h6.14a4.2,4.2,0,0,0,2.36-.48,2,2,0,0,0,.65-1.72Z" transform="translate(-69.46 -72.5)"/><rect class="cls-5" x="179.64" y="291.38" width="12.99" height="1.77" transform="translate(-176.02 405.21) rotate(-89.87)"/><polygon class="cls-5" points="122.84 226.26 122.85 213.27 135.24 213.28 135.24 214.7 124.61 214.69 124.61 218.9 134.83 218.9 134.82 220.33 124.61 220.32 124.61 226.26 122.84 226.26"/><rect class="cls-5" x="139.65" y="213.28" width="1.77" height="12.99"/><path class="cls-5" d="M229.75,294.43h1.64v1a3.31,3.31,0,0,1-1,2.72,5.38,5.38,0,0,1-3.34.8h-6.62a4.92,4.92,0,0,1-3.6-1.1,5,5,0,0,1-1.07-3.61v-3.83a5,5,0,0,1,1.09-3.6,4.88,4.88,0,0,1,3.59-1.1h6.62c2.69,0,4,1.07,4,3.2V290h-1.56l0-.58a2.21,2.21,0,0,0-.63-1.81,3.55,3.55,0,0,0-2.19-.52H220.6a3.31,3.31,0,0,0-2.34.67,2.79,2.79,0,0,0-.7,2.12v4.79a3,3,0,0,0,.68,2.11,3.21,3.21,0,0,0,2.37.71h6.15a4.21,4.21,0,0,0,2.36-.47,2.07,2.07,0,0,0,.65-1.72Z" transform="translate(-69.46 -72.5)"/><path class="cls-5" d="M246.46,285.81h10.93a3.73,3.73,0,0,1,2.59.75,3.62,3.62,0,0,1,.83,2.74v.52a4.08,4.08,0,0,1-.88,3,4.8,4.8,0,0,1-3.15.79h-8.56v5.15h-1.77Zm1.77,1.43v5h8.53c1.52,0,2.27-.62,2.27-1.86v-1.23a1.85,1.85,0,0,0-.52-1.51,3.09,3.09,0,0,0-1.84-.4Z" transform="translate(-69.46 -72.5)"/><polygon class="cls-5" points="195.56 226.31 195.57 213.32 208.25 213.32 208.25 214.75 197.34 214.74 197.34 218.95 207.8 218.96 207.8 220.38 197.34 220.37 197.33 224.89 208.31 224.89 208.31 226.32 195.56 226.31"/><path class="cls-5" d="M282.13,298.83v-13h10.49a5.36,5.36,0,0,1,3.34.77,3.56,3.56,0,0,1,.93,2.84v1.06a2.46,2.46,0,0,1-.57,1.84,3.22,3.22,0,0,1-1.87.69,2.37,2.37,0,0,1,2.28,2.53v3.27h-1.66V296a2.25,2.25,0,0,0-.57-1.78,3.26,3.26,0,0,0-2.1-.49H283.9v5.15Zm1.77-6.57h8.37a4.57,4.57,0,0,0,2.12-.39,1.56,1.56,0,0,0,.74-1.52V289.2a1.61,1.61,0,0,0-.69-1.55,5.5,5.5,0,0,0-2.42-.39h-8.11Z" transform="translate(-69.46 -72.5)"/><polygon class="cls-5" points="232.23 226.34 232.23 213.34 244.63 213.35 244.63 214.77 234.01 214.77 234 218.97 244.21 218.97 244.21 220.4 234 220.39 234 226.34 232.23 226.34"/><path class="cls-5" d="M318.1,294.27v-3.83a4,4,0,0,1,4.71-4.71h7.36a4.74,4.74,0,0,1,3.62,1.15,5.33,5.33,0,0,1,1,3.61v3.75a5.19,5.19,0,0,1-1.06,3.63,4.82,4.82,0,0,1-3.59,1.11h-7.38a5,5,0,0,1-3.61-1.1,5,5,0,0,1-1.08-3.61m1.77-4.31v4.78a2.77,2.77,0,0,0,.74,2.15,3.41,3.41,0,0,0,2.36.67H330a3.24,3.24,0,0,0,2.34-.69,2.81,2.81,0,0,0,.7-2.11V290a2.82,2.82,0,0,0-.72-2.17,3.34,3.34,0,0,0-2.31-.66H323a3.26,3.26,0,0,0-2.41.7,2.9,2.9,0,0,0-.68,2.1" transform="translate(-69.46 -72.5)"/><path class="cls-5" d="M339.57,298.86v-13h10.49a5.45,5.45,0,0,1,3.35.77,3.58,3.58,0,0,1,.92,2.84v1.06a2.47,2.47,0,0,1-.57,1.84,3.22,3.22,0,0,1-1.87.69,2.35,2.35,0,0,1,2.27,2.52v3.28h-1.66V296a2.36,2.36,0,0,0-.56-1.8,3.33,3.33,0,0,0-2.1-.48h-8.52v5.15Zm1.77-6.57h8.37a4.57,4.57,0,0,0,2.12-.39,1.59,1.59,0,0,0,.74-1.52v-1.15a1.6,1.6,0,0,0-.7-1.55,5.28,5.28,0,0,0-2.41-.39h-8.11Z" transform="translate(-69.46 -72.5)"/><polygon class="cls-5" points="289.55 213.38 292.3 213.39 299.83 224.31 299.81 224.31 307.35 213.4 310.1 213.4 310.09 226.39 308.32 226.39 308.33 214.91 308.35 214.92 300.45 226.38 299.18 226.38 291.3 214.9 291.32 214.9 291.31 226.38 289.54 226.37 289.55 213.38"/><path class="cls-5" d="M383.27,298.9l7.7-13h2.18l7.67,13h-2l-1.65-2.78H386.91l-1.65,2.77Zm4.47-4.21h8.62L392,287.34h0Z" transform="translate(-69.46 -72.5)"/><polygon class="cls-5" points="335.03 213.42 337.63 213.41 349.61 224.84 349.57 224.84 349.58 213.42 351.35 213.43 351.34 226.42 348.75 226.41 336.76 214.99 336.81 214.99 336.8 226.41 335.03 226.41 335.03 213.42"/><path class="cls-5" d="M439.43,294.57h1.65v1a3.36,3.36,0,0,1-1,2.72,5.35,5.35,0,0,1-3.35.8h-6.62a4.85,4.85,0,0,1-3.59-1.1,5,5,0,0,1-1.08-3.61v-3.83a5,5,0,0,1,1.09-3.6,4.86,4.86,0,0,1,3.58-1.1h6.63q4,0,4,3.2v1.14h-1.55v-.57a2.2,2.2,0,0,0-.62-1.81,3.54,3.54,0,0,0-2.19-.53h-6.16a3.35,3.35,0,0,0-2.34.67,2.8,2.8,0,0,0-.7,2.13v4.78a3,3,0,0,0,.67,2.12,3.22,3.22,0,0,0,2.38.7h6.14a4.18,4.18,0,0,0,2.36-.48,2,2,0,0,0,.65-1.72Z" transform="translate(-69.46 -72.5)"/><polygon class="cls-5" points="376.26 226.43 376.26 213.44 388.95 213.45 388.94 214.87 378.04 214.86 378.04 219.07 388.5 219.08 388.5 220.5 378.03 220.49 378.03 225.01 389 225.02 389 226.44 376.26 226.43"/><polygon class="cls-5" points="403.89 226.45 403.9 213.46 416.58 213.47 416.58 214.89 405.67 214.88 405.67 219.09 416.14 219.09 416.14 220.52 405.67 220.51 405.67 225.03 416.63 225.04 416.63 226.46 403.89 226.45"/><polygon class="cls-5" points="421 213.47 423.6 213.47 435.58 224.9 435.54 224.91 435.55 213.48 437.32 213.48 437.31 226.47 434.73 226.47 422.74 215.04 422.78 215.04 422.77 226.46 421 226.46 421 213.47"/><path class="cls-5" d="M519.37,294v-1.42h8.37v2a5,5,0,0,1-1,3.49,4.65,4.65,0,0,1-3.49,1.06h-7.11a5,5,0,0,1-3.61-1.1,5.14,5.14,0,0,1-1.1-3.71v-3.81a4.94,4.94,0,0,1,1.14-3.57,5.17,5.17,0,0,1,3.65-1.05h6.48c3.28,0,4.93,1.19,4.93,3.56v.49H526c0-1.13-.27-1.85-.8-2.16a9,9,0,0,0-3.68-.47h-5.15a3.5,3.5,0,0,0-2.43.68,2.89,2.89,0,0,0-.72,2.17v4.54a2.57,2.57,0,0,0,3.14,3H523a3.57,3.57,0,0,0,2.23-.55,2.33,2.33,0,0,0,.71-1.91V294Z" transform="translate(-69.46 -72.5)"/><rect class="cls-5" x="526.99" y="291.62" width="12.99" height="1.77" transform="translate(170.28 752.8) rotate(-89.87)"/><polygon class="cls-5" points="470.06 213.5 472.66 213.5 484.64 224.94 484.6 224.93 484.61 213.52 486.38 213.52 486.38 226.51 483.78 226.5 471.79 215.08 471.83 215.08 471.82 226.5 470.06 226.5 470.06 213.5"/><polygon class="cls-5" points="491.41 226.51 491.41 213.52 504.09 213.53 504.09 214.95 493.18 214.94 493.18 219.15 503.65 219.15 503.64 220.58 493.18 220.57 493.17 225.09 504.15 225.09 504.15 226.52 491.41 226.51"/><polygon class="cls-5" points="508.63 226.52 508.64 213.53 521.33 213.54 521.32 214.96 510.41 214.95 510.41 219.16 520.88 219.17 520.88 220.59 510.41 220.58 510.41 225.1 521.38 225.11 521.37 226.53 508.63 226.52"/><path class="cls-5" d="M595.2,299v-13h10.5a5.32,5.32,0,0,1,3.34.78,3.56,3.56,0,0,1,.92,2.84v1.05a2.46,2.46,0,0,1-.57,1.84,3.22,3.22,0,0,1-1.87.69,2.37,2.37,0,0,1,2.28,2.53v3.27h-1.66v-2.88a2.28,2.28,0,0,0-.56-1.8,3.34,3.34,0,0,0-2.1-.47H597V299Zm1.77-6.57h8.37a4.62,4.62,0,0,0,2.13-.39,1.58,1.58,0,0,0,.73-1.52v-1.15a1.61,1.61,0,0,0-.69-1.55,5.5,5.5,0,0,0-2.42-.39H597Z" transform="translate(-69.46 -72.5)"/><rect class="cls-5" x="545.33" y="213.56" width="1.78" height="12.99"/><polygon class="cls-5" points="552.26 213.56 554.85 213.56 566.84 224.99 566.79 224.99 566.81 213.57 568.58 213.57 568.56 226.57 565.97 226.56 553.99 215.13 554.03 215.13 554.02 226.55 552.25 226.55 552.26 213.56"/><path class="cls-5" d="M650.62,294.08v-1.42H659v2a5,5,0,0,1-1,3.49,4.65,4.65,0,0,1-3.49,1.06h-7.1a5,5,0,0,1-3.63-1.1,5.19,5.19,0,0,1-1.09-3.71v-3.82a4.93,4.93,0,0,1,1.14-3.56,5.18,5.18,0,0,1,3.66-1.06H654c3.28,0,4.93,1.19,4.93,3.56V290h-1.65c0-1.14-.27-1.85-.79-2.16a8.92,8.92,0,0,0-3.69-.47h-5.16a3.48,3.48,0,0,0-2.42.68,2.88,2.88,0,0,0-.72,2.17v4.54a2.58,2.58,0,0,0,3.14,3h6.69a3.64,3.64,0,0,0,2.23-.55,2.3,2.3,0,0,0,.71-1.91v-1.24Z" transform="translate(-69.46 -72.5)"/><path class="cls-6" d="M406.52,269.23l9.73-46.05,42.28.08q16.07,0,21.91-.79a60,60,0,0,0,16-4.05,37.13,37.13,0,0,0,11.1-7.85,41.88,41.88,0,0,0,8.72-13.82A46.83,46.83,0,0,0,519.85,179a31.64,31.64,0,0,0-4.42-17,25.17,25.17,0,0,0-12.07-10.25q-7.61-3.09-20.71-3.13l-115-.21L342.08,269.11Zm21.29-100.91h9.89q12.12,0,15.6,1.31a11,11,0,0,1,5.44,4.09,12.2,12.2,0,0,1,1.92,7.17,20.39,20.39,0,0,1-3.81,11.94,21.58,21.58,0,0,1-10.4,7.91q-6.56,2.43-26,2.41Z" transform="translate(-69.46 -72.5)"/><polygon class="cls-6" points="568.38 197.16 575.71 163.46 507.02 163.33 511.62 141.25 573.32 141.36 578.88 115.9 516.72 116.18 520.8 96.44 584.81 96.56 589.05 76.38 459.92 76.13 434.46 196.91 568.38 197.16"/><path class="cls-6" d="M125.74,258.7h3.83l52.44.1-2.11,10,64.43.12,9.74-46.05,42.27.08q16.1,0,21.93-.79a60.32,60.32,0,0,0,16-4,37.27,37.27,0,0,0,11.09-7.85,42,42,0,0,0,8.72-13.82,46.51,46.51,0,0,0,3.58-17.79,31.5,31.5,0,0,0-4.41-17,25.12,25.12,0,0,0-12.06-10.24q-7.6-3.09-20.72-3.13L205.42,148s-8.68,43.31-11.36,54.13c-45.22,24.17-66,53.27-66.09,53.42Zm8.09-3.7c12.52-15.13,69.82-76.17,183.64-80.11l0,10.8C292.26,189,231.47,202,208,255.39l-74.4-.14.2-.25" transform="translate(-69.46 -72.5)"/><path class="cls-7" d="M133.83,254.51c12.52-15.12,69.82-76.16,183.64-80.1l0,10.79c-25.19,3.28-86,16.34-109.42,69.7l-74.4-.14.2-.25" transform="translate(-69.46 -72.5)"/><path class="cls-6" d="M880.62,525.9l5.18-24.53,22.53,0A99.9,99.9,0,0,0,920,501a31.75,31.75,0,0,0,8.53-2.16,19.76,19.76,0,0,0,5.91-4.18,22.47,22.47,0,0,0,4.65-7.36,25,25,0,0,0,1.91-9.48,16.82,16.82,0,0,0-2.36-9.08,13.42,13.42,0,0,0-6.43-5.46,30.37,30.37,0,0,0-11-1.66l-61.29-.12-13.6,64.35ZM892,472.14h5.27q6.46,0,8.32.69a5.84,5.84,0,0,1,2.89,2.18,6.57,6.57,0,0,1,1,3.82,10.89,10.89,0,0,1-2,6.36,11.51,11.51,0,0,1-5.55,4.22q-3.48,1.29-13.87,1.28Z" transform="translate(-69.46 -72.5)"/><polygon class="cls-6" points="934.4 453.63 938.3 435.67 901.71 435.61 904.16 423.84 937.03 423.9 939.99 410.34 906.88 410.48 909.05 399.97 943.15 400.03 945.41 389.28 876.62 389.15 863.05 453.5 934.4 453.63"/><path class="cls-6" d="M731,520.29h2l27.94.05-1.13,5.33,34.33.06,5.19-24.53,22.52,0a100.1,100.1,0,0,0,11.68-.42,32.34,32.34,0,0,0,8.53-2.16,19.94,19.94,0,0,0,5.91-4.18,22.3,22.3,0,0,0,4.64-7.36,24.84,24.84,0,0,0,1.91-9.48,16.82,16.82,0,0,0-2.35-9.08,13.42,13.42,0,0,0-6.43-5.46,30.37,30.37,0,0,0-11-1.66l-61.3-.12s-4.62,23.08-6.05,28.84c-24.09,12.88-35.16,28.38-35.21,28.46Zm4.31-2c6.67-8.06,37.2-40.58,97.84-42.68v5.75c-13.42,1.75-45.81,8.71-58.3,37.14l-39.64-.08.11-.13" transform="translate(-69.46 -72.5)"/><path class="cls-7" d="M735.34,518.06c6.67-8.06,37.2-40.58,97.84-42.68v5.75c-13.42,1.75-45.81,8.71-58.3,37.14l-39.64-.08.11-.13" transform="translate(-69.46 -72.5)"/><path class="cls-8" d="M880.62,635.38l5.18-24.53,22.53,0a99.9,99.9,0,0,0,11.67-.42,31.75,31.75,0,0,0,8.53-2.16,19.94,19.94,0,0,0,5.91-4.18,22.47,22.47,0,0,0,4.65-7.36,25,25,0,0,0,1.91-9.48,16.82,16.82,0,0,0-2.36-9.08,13.37,13.37,0,0,0-6.43-5.46,30.37,30.37,0,0,0-11-1.66L859.89,571l-13.6,64.35ZM892,581.62h5.27q6.46,0,8.32.69a5.84,5.84,0,0,1,2.89,2.18,6.57,6.57,0,0,1,1,3.82,10.89,10.89,0,0,1-2,6.36,11.43,11.43,0,0,1-5.55,4.21q-3.48,1.3-13.87,1.29Z" transform="translate(-69.46 -72.5)"/><polygon class="cls-8" points="934.4 563.11 938.3 545.15 901.71 545.09 904.16 533.32 937.03 533.38 939.99 519.82 906.88 519.96 909.05 509.45 943.15 509.51 945.41 498.76 876.62 498.63 863.05 562.98 934.4 563.11"/><path class="cls-8" d="M731,629.77h2l27.94.05-1.13,5.33,34.33.06,5.19-24.53,22.52,0a100.1,100.1,0,0,0,11.68-.42,32.34,32.34,0,0,0,8.53-2.16A19.94,19.94,0,0,0,848,604a22.4,22.4,0,0,0,4.64-7.36,24.84,24.84,0,0,0,1.91-9.48,16.82,16.82,0,0,0-2.35-9.08,13.42,13.42,0,0,0-6.43-5.46,30.37,30.37,0,0,0-11-1.66l-61.3-.12s-4.62,23.07-6.05,28.84c-24.09,12.88-35.16,28.38-35.21,28.46Zm4.31-2c6.67-8.06,37.2-40.58,97.84-42.68v5.75c-13.42,1.75-45.81,8.71-58.3,37.14l-39.64-.08.11-.13" transform="translate(-69.46 -72.5)"/><path class="cls-7" d="M735.34,627.54c6.67-8.06,37.2-40.58,97.84-42.68v5.75c-13.42,1.75-45.81,8.71-58.3,37.14l-39.64-.08.11-.13" transform="translate(-69.46 -72.5)"/><line class="cls-9" x1="883.71" y1="2609.64" x2="883.71" y2="2609.63"/><path class="cls-6" d="M696.88,884h2.87l39.41.07-1.59,7.52,48.41.09,7.31-34.6,31.77.06a144.56,144.56,0,0,0,16.47-.59,45.67,45.67,0,0,0,12-3,28.26,28.26,0,0,0,8.34-5.9,31.78,31.78,0,0,0,6.55-10.39,35.11,35.11,0,0,0,2.69-13.37,23.64,23.64,0,0,0-3.32-12.79,18.83,18.83,0,0,0-9.06-7.7Q853,801,843.18,801l-86.43-.16s-6.52,32.53-8.54,40.66c-34,18.16-49.59,40-49.65,40.14Zm6.07-2.79c9.41-11.36,52.46-57.22,138-60.18v8.11c-18.93,2.46-64.61,12.27-82.21,52.36l-55.9-.1.14-.19" transform="translate(-69.46 -72.5)"/><path class="cls-8" d="M885.52,884h2.88l39.4.07-1.59,7.52,48.41.09,7.32-34.6,31.76.06a144.56,144.56,0,0,0,16.47-.59,45.56,45.56,0,0,0,12-3,28.26,28.26,0,0,0,8.34-5.9,31.78,31.78,0,0,0,6.55-10.39,35.11,35.11,0,0,0,2.69-13.37,23.64,23.64,0,0,0-3.32-12.79,18.78,18.78,0,0,0-9.06-7.7q-5.72-2.32-15.56-2.35l-86.44-.16s-6.52,32.53-8.54,40.66c-34,18.16-49.59,40-49.65,40.14Zm6.08-2.79c9.4-11.36,52.46-57.22,138-60.18v8.11c-18.93,2.46-64.61,12.27-82.21,52.36l-55.9-.1.15-.19" transform="translate(-69.46 -72.5)"/><rect class="cls-4" x="4.15" y="351.35" width="540" height="321.44"/><polygon class="cls-7" points="84.71 755.47 79.97 755.47 88.83 723.76 93.57 723.76 84.71 755.47"/><path class="cls-7" d="M171.47,828h-4.66l4.64-16.59-4.38.08L162.45,828h-4.64l5.72-20.46h4.64l-.21.75,3.37-.51a23.47,23.47,0,0,1,3.35-.32q2.53,0,1.83,2.49Z" transform="translate(-69.46 -72.5)"/><path class="cls-7" d="M188.45,828h-4.66l4.63-16.59-4.37.08L179.43,828h-4.64l5.72-20.46h4.64l-.21.75,3.36-.51a23.59,23.59,0,0,1,3.36-.32c1.68,0,2.3.83,1.83,2.49Z" transform="translate(-69.46 -72.5)"/><path class="cls-7" d="M206,825.44a3.12,3.12,0,0,1-3.28,2.53h-8.31c-1.74,0-2.37-.84-1.9-2.53l4.3-15.4a3.14,3.14,0,0,1,3.32-2.53h8.31c1.71,0,2.33.84,1.86,2.53Zm-4.17-1.32,3.56-12.74H201l-3.56,12.74Z" transform="translate(-69.46 -72.5)"/><polygon class="cls-7" points="158.72 735 147.76 755.51 143.33 755.51 143.83 735 148.59 735 147.53 748.46 153.98 735 158.72 735"/><path class="cls-7" d="M237.94,828H233.5l.2-.71-3.29.49a25.88,25.88,0,0,1-3.23.3c-1.69,0-2.3-.83-1.84-2.49l2.06-7.37a3.16,3.16,0,0,1,3.33-2.54H237l1.31-4.7h-4.44l-.81,2.92h-4.2l1.07-3.83a3.15,3.15,0,0,1,3.32-2.53h7.84c1.72,0,2.34.84,1.87,2.53Zm-3.37-3.69,1.54-5.48h-4.44l-1.58,5.65Z" transform="translate(-69.46 -72.5)"/><path class="cls-7" d="M250.1,828H245c-1.72,0-2.34-.84-1.87-2.53l3.91-14H244.8l1.11-4h2.18l1.56-5.55h4.62l-1.56,5.55h3l-1.1,4h-3L248.1,824h3.1Z" transform="translate(-69.46 -72.5)"/><path class="cls-7" d="M257.35,828h-4.56l5.72-20.46h4.56Zm6.58-23.4h-4.64l1.34-4.78h4.63Z" transform="translate(-69.46 -72.5)"/><path class="cls-7" d="M275,825.44a3.12,3.12,0,0,1-3.28,2.53h-8.3c-1.75,0-2.38-.84-1.91-2.53l4.3-15.4a3.14,3.14,0,0,1,3.32-2.53h8.31c1.72,0,2.34.84,1.86,2.53Zm-4.17-1.32,3.56-12.74H270l-3.56,12.74Z" transform="translate(-69.46 -72.5)"/><path class="cls-7" d="M291.28,828h-4.66l4.64-16.59-4.38.08L282.27,828h-4.64l5.72-20.46H288l-.21.75,3.36-.51a23.47,23.47,0,0,1,3.35-.32c1.69,0,2.3.83,1.84,2.49Z" transform="translate(-69.46 -72.5)"/><path class="cls-7" d="M308.18,825.44A3.12,3.12,0,0,1,304.9,828h-7.8c-1.72,0-2.34-.84-1.87-2.53l1.23-4.4h4.44l-1,3.45H304l.9-3.25L299,817.05a1.9,1.9,0,0,1-.77-2.23l1.33-4.78a3.15,3.15,0,0,1,3.33-2.53h7.71c1.72,0,2.34.84,1.87,2.53l-1.15,4.11h-4.4l.89-3.16H303.7l-.82,3,5.93,4.16a1.88,1.88,0,0,1,.78,2.26Z" transform="translate(-69.46 -72.5)"/><path class="cls-7" d="M323.94,828h-4.56l5.72-20.46h4.56Zm6.58-23.4h-4.64l1.34-4.78h4.64Z" transform="translate(-69.46 -72.5)"/><path class="cls-7" d="M341,828h-4.66L341,811.38l-4.38.08L332,828h-4.64l5.72-20.46h4.64l-.21.75,3.36-.51a23.72,23.72,0,0,1,3.36-.32q2.53,0,1.83,2.49Z" transform="translate(-69.46 -72.5)"/><path class="cls-7" d="M367.73,823.86a5.2,5.2,0,0,1-2.76,3.48,9.7,9.7,0,0,1-4.13.71c-.4,0-1,0-1.7,0s-1.25,0-1.58,0l-2.09,7.48h-4.63l7.8-27.94h4.64l-.21.75,3.39-.51a24.44,24.44,0,0,1,3.33-.32q2.54,0,1.83,2.49Zm-4.3-1.28,3.13-11.2-4.38.08-3.54,12.66h2.88a1.86,1.86,0,0,0,1.91-1.54" transform="translate(-69.46 -72.5)"/><path class="cls-7" d="M383.8,825.44a3.14,3.14,0,0,1-3.32,2.53h-8c-1.74,0-2.37-.84-1.9-2.53l4.3-15.4a3.14,3.14,0,0,1,3.32-2.53h8c1.75,0,2.38.84,1.91,2.53l-2.1,7.52-1.63,1.27h-7.52l-1.6,5.74h4.35l1-3.41H385Zm-1.75-9.62,1.37-4.91h-4.35l-1.38,4.91Z" transform="translate(-69.46 -72.5)"/><path class="cls-7" d="M402.69,816.06h-4.6l1.31-4.68-3.69.08L391.09,828h-4.64l5.72-20.46h4.64l-.21.75,3-.53a19,19,0,0,1,3-.3c1.68,0,2.3.83,1.83,2.49Z" transform="translate(-69.46 -72.5)"/><path class="cls-7" d="M418.7,800.3h-3.4l-2,7.21h3l-1.11,4h-2.95L407.56,828H403l4.61-16.51h-2.11l1.11-4h2.1l2.44-8.71a3.12,3.12,0,0,1,3.28-2.53h5.43Z" transform="translate(-69.46 -72.5)"/><path class="cls-7" d="M426.87,825.44a3.12,3.12,0,0,1-3.28,2.53h-8.31c-1.74,0-2.37-.84-1.9-2.53l4.3-15.4a3.14,3.14,0,0,1,3.32-2.53h8.31c1.71,0,2.33.84,1.86,2.53Zm-4.17-1.32,3.56-12.74h-4.4l-3.56,12.74Z" transform="translate(-69.46 -72.5)"/><path class="cls-7" d="M445.74,816.06h-4.6l1.31-4.68-3.69.08L434.14,828H429.5l5.72-20.46h4.64l-.21.75,3-.53a18.75,18.75,0,0,1,3-.3q2.53,0,1.83,2.49Z" transform="translate(-69.46 -72.5)"/><path class="cls-7" d="M467.59,828H463l4.64-16.59-4.38.08L458.64,828H454l4.63-16.59-4.37.08L449.66,828H445l5.72-20.46h4.64l-.21.75,3.37-.53a24.1,24.1,0,0,1,3.35-.3c1.06,0,1.67.3,1.81.91l3.55-.55a25.65,25.65,0,0,1,3.55-.36c1.69,0,2.3.83,1.84,2.49Z" transform="translate(-69.46 -72.5)"/><path class="cls-7" d="M484.1,828h-4.43l.19-.71-3.29.49a25.72,25.72,0,0,1-3.23.3q-2.54,0-1.83-2.49l2.06-7.37a3.15,3.15,0,0,1,3.32-2.54h6.26l1.31-4.7H480l-.81,2.92H475l1.07-3.83a3.14,3.14,0,0,1,3.32-2.53h7.84c1.71,0,2.33.84,1.86,2.53Zm-3.36-3.69,1.53-5.48h-4.44l-1.58,5.65Z" transform="translate(-69.46 -72.5)"/><path class="cls-7" d="M501.08,828h-4.66l4.64-16.59-4.38.08L492.06,828h-4.64l5.72-20.46h4.64l-.21.75,3.37-.51a23.47,23.47,0,0,1,3.35-.32q2.54,0,1.83,2.49Z" transform="translate(-69.46 -72.5)"/><path class="cls-7" d="M518.34,825.44a3.12,3.12,0,0,1-3.28,2.53h-8c-1.75,0-2.38-.84-1.91-2.53l4.3-15.4a3.14,3.14,0,0,1,3.32-2.53h8c1.71,0,2.33.84,1.86,2.53l-1.36,4.86h-4.51l1-3.52H513.6L510,824.12h4.15l1.09-3.91h4.52Z" transform="translate(-69.46 -72.5)"/><path class="cls-7" d="M534.89,825.44a3.14,3.14,0,0,1-3.32,2.53h-8c-1.74,0-2.38-.84-1.91-2.53L526,810a3.15,3.15,0,0,1,3.33-2.53h8c1.74,0,2.38.84,1.91,2.53l-2.11,7.52-1.63,1.27h-7.52l-1.6,5.74h4.36l.95-3.41h4.44Zm-1.75-9.62,1.37-4.91h-4.35l-1.37,4.91Z" transform="translate(-69.46 -72.5)"/><polygon class="cls-7" points="472.52 755.47 467.97 755.47 469.33 750.57 473.89 750.57 472.52 755.47"/><polygon class="cls-5" points="84.71 816.62 79.97 816.62 88.83 784.92 93.57 784.92 84.71 816.62"/><path class="cls-5" d="M171.47,889.13h-4.66l4.64-16.6-4.38.08-4.62,16.52h-4.64l5.72-20.47h4.64l-.21.75,3.37-.5a22.31,22.31,0,0,1,3.35-.33c1.69,0,2.3.83,1.83,2.5Z" transform="translate(-69.46 -72.5)"/><path class="cls-5" d="M188.45,889.13h-4.66l4.63-16.6-4.37.08-4.62,16.52h-4.64l5.72-20.47h4.64l-.21.75,3.36-.5a22.43,22.43,0,0,1,3.36-.33c1.68,0,2.3.83,1.83,2.5Z" transform="translate(-69.46 -72.5)"/><path class="cls-5" d="M206,886.59a3.13,3.13,0,0,1-3.28,2.54h-8.31c-1.74,0-2.37-.85-1.9-2.54l4.3-15.39a3.15,3.15,0,0,1,3.32-2.54h8.31c1.71,0,2.33.85,1.86,2.54Zm-4.17-1.31,3.56-12.75H201l-3.56,12.75Z" transform="translate(-69.46 -72.5)"/><polygon class="cls-5" points="158.72 796.16 147.76 816.66 143.33 816.66 143.83 796.16 148.59 796.16 147.53 809.61 153.98 796.16 158.72 796.16"/><path class="cls-5" d="M237.94,889.13H233.5l.2-.71-3.29.48a26.35,26.35,0,0,1-3.23.31c-1.69,0-2.3-.83-1.84-2.5l2.06-7.37a3.15,3.15,0,0,1,3.33-2.53H237l1.31-4.7h-4.44l-.81,2.91h-4.2l1.07-3.82a3.16,3.16,0,0,1,3.32-2.54h7.84c1.72,0,2.34.85,1.87,2.54Zm-3.37-3.69,1.54-5.49h-4.44l-1.58,5.65Z" transform="translate(-69.46 -72.5)"/><path class="cls-5" d="M250.1,889.13H245c-1.72,0-2.34-.85-1.87-2.54l3.91-14H244.8l1.11-4h2.18l1.56-5.55h4.62l-1.56,5.55h3l-1.1,4h-3l-3.51,12.56h3.1Z" transform="translate(-69.46 -72.5)"/><path class="cls-5" d="M257.35,889.13h-4.56l5.72-20.47h4.56Zm6.58-23.4h-4.64l1.34-4.79h4.63Z" transform="translate(-69.46 -72.5)"/><path class="cls-5" d="M275,886.59a3.12,3.12,0,0,1-3.28,2.54h-8.3c-1.75,0-2.38-.85-1.91-2.54l4.3-15.39a3.15,3.15,0,0,1,3.32-2.54h8.31c1.72,0,2.34.85,1.86,2.54Zm-4.17-1.31,3.56-12.75H270l-3.56,12.75Z" transform="translate(-69.46 -72.5)"/><path class="cls-5" d="M291.28,889.13h-4.66l4.64-16.6-4.38.08-4.61,16.52h-4.64l5.72-20.47H288l-.21.75,3.36-.5a22.31,22.31,0,0,1,3.35-.33c1.69,0,2.3.83,1.84,2.5Z" transform="translate(-69.46 -72.5)"/><path class="cls-5" d="M308.18,886.59a3.13,3.13,0,0,1-3.28,2.54h-7.8c-1.72,0-2.34-.85-1.87-2.54l1.23-4.39h4.44l-1,3.44H304l.9-3.24L299,878.21a1.9,1.9,0,0,1-.77-2.23l1.33-4.78a3.16,3.16,0,0,1,3.33-2.54h7.71c1.72,0,2.34.85,1.87,2.54l-1.15,4.11h-4.4l.89-3.16H303.7l-.82,3,5.93,4.15a1.9,1.9,0,0,1,.78,2.27Z" transform="translate(-69.46 -72.5)"/><path class="cls-5" d="M323.94,889.13h-4.56l5.72-20.47h4.56Zm6.58-23.4h-4.64l1.34-4.79h4.64Z" transform="translate(-69.46 -72.5)"/><path class="cls-5" d="M341,889.13h-4.66l4.64-16.6-4.38.08L332,889.13h-4.64l5.72-20.47h4.64l-.21.75,3.36-.5a22.55,22.55,0,0,1,3.36-.33c1.69,0,2.3.83,1.83,2.5Z" transform="translate(-69.46 -72.5)"/><path class="cls-5" d="M367.73,885A5.22,5.22,0,0,1,365,888.5a9.86,9.86,0,0,1-4.13.71l-1.7,0c-.73,0-1.25,0-1.58,0l-2.09,7.47h-4.63l7.8-27.94h4.64l-.21.75,3.39-.5a23.2,23.2,0,0,1,3.33-.33q2.54,0,1.83,2.49Zm-4.3-1.27,3.13-11.21-4.38.08-3.54,12.67h2.88a1.86,1.86,0,0,0,1.91-1.54" transform="translate(-69.46 -72.5)"/><path class="cls-5" d="M383.8,886.59a3.15,3.15,0,0,1-3.32,2.54h-8c-1.74,0-2.37-.85-1.9-2.54l4.3-15.39a3.15,3.15,0,0,1,3.32-2.54h8c1.75,0,2.38.85,1.91,2.54l-2.1,7.51L384.37,880h-7.52l-1.6,5.73h4.35l1-3.4H385ZM382.05,877l1.37-4.9h-4.35l-1.38,4.9Z" transform="translate(-69.46 -72.5)"/><path class="cls-5" d="M402.69,877.21h-4.6l1.31-4.68-3.69.08-4.62,16.52h-4.64l5.72-20.47h4.64l-.21.75,3-.52a18,18,0,0,1,3-.31c1.68,0,2.3.83,1.83,2.49Z" transform="translate(-69.46 -72.5)"/><path class="cls-5" d="M418.7,861.45h-3.4l-2,7.21h3l-1.11,4h-2.95l-4.62,16.52H403l4.61-16.52h-2.11l1.11-4h2.1l2.44-8.71a3.12,3.12,0,0,1,3.28-2.53h5.43Z" transform="translate(-69.46 -72.5)"/><path class="cls-5" d="M426.87,886.59a3.13,3.13,0,0,1-3.28,2.54h-8.31c-1.74,0-2.37-.85-1.9-2.54l4.3-15.39a3.15,3.15,0,0,1,3.32-2.54h8.31c1.71,0,2.33.85,1.86,2.54Zm-4.17-1.31,3.56-12.75h-4.4l-3.56,12.75Z" transform="translate(-69.46 -72.5)"/><path class="cls-5" d="M445.74,877.21h-4.6l1.31-4.68-3.69.08-4.62,16.52H429.5l5.72-20.47h4.64l-.21.75,3-.52a17.8,17.8,0,0,1,3-.31q2.53,0,1.83,2.49Z" transform="translate(-69.46 -72.5)"/><path class="cls-5" d="M467.59,889.13H463l4.64-16.6-4.38.08-4.61,16.52H454l4.63-16.6-4.37.08-4.62,16.52H445l5.72-20.47h4.64l-.21.75,3.37-.52a22.87,22.87,0,0,1,3.35-.31c1.06,0,1.67.31,1.81.91,1.18-.17,2.37-.35,3.55-.54a24.49,24.49,0,0,1,3.55-.37c1.69,0,2.3.83,1.84,2.5Z" transform="translate(-69.46 -72.5)"/><path class="cls-5" d="M484.1,889.13h-4.43l.19-.71-3.29.48a26.18,26.18,0,0,1-3.23.31c-1.69,0-2.3-.83-1.83-2.5l2.06-7.37a3.14,3.14,0,0,1,3.32-2.53h6.26l1.31-4.7H480l-.81,2.91H475l1.07-3.82a3.15,3.15,0,0,1,3.32-2.54h7.84c1.71,0,2.33.85,1.86,2.54Zm-3.36-3.69,1.53-5.49h-4.44l-1.58,5.65Z" transform="translate(-69.46 -72.5)"/><path class="cls-5" d="M501.08,889.13h-4.66l4.64-16.6-4.38.08-4.62,16.52h-4.64l5.72-20.47h4.64l-.21.75,3.37-.5a22.31,22.31,0,0,1,3.35-.33c1.69,0,2.3.83,1.83,2.5Z" transform="translate(-69.46 -72.5)"/><path class="cls-5" d="M518.34,886.59a3.13,3.13,0,0,1-3.28,2.54h-8c-1.75,0-2.38-.85-1.91-2.54l4.3-15.39a3.15,3.15,0,0,1,3.32-2.54h8c1.71,0,2.33.85,1.86,2.54l-1.36,4.86h-4.51l1-3.53H513.6L510,885.28h4.15l1.09-3.91h4.52Z" transform="translate(-69.46 -72.5)"/><path class="cls-5" d="M534.89,886.59a3.15,3.15,0,0,1-3.32,2.54h-8c-1.74,0-2.38-.85-1.91-2.54L526,871.2a3.16,3.16,0,0,1,3.33-2.54h8c1.74,0,2.38.85,1.91,2.54l-2.11,7.51L535.46,880h-7.52l-1.6,5.73h4.36l.95-3.4h4.44ZM533.14,877l1.37-4.9h-4.35l-1.37,4.9Z" transform="translate(-69.46 -72.5)"/><polygon class="cls-5" points="472.52 816.62 467.97 816.62 469.33 811.72 473.89 811.72 472.52 816.62"/></g><text class="cls-10" transform="translate(98.28 269.1)"><tspan class="cls-11">T</tspan><tspan x="7.01" y="0">o be used when representing the company in most applications as long as </tspan></text><text class="cls-10" transform="translate(121.52 285.1)">&quot;<tspan class="cls-12" x="4.97" y="0">P</tspan><tspan x="13.27" y="0">ACIFIC PERFORMANCE ENGINEERING&quot; does not lose legibility</tspan></text><text class="cls-13" transform="translate(723.35 70.21)">Founded in 1985, PPE made engineering innovations the </text><text class="cls-13" transform="translate(723.35 82.21)">prime directive. Since the beginning our engineers improved </text><text class="cls-13" transform="translate(723.35 94.21)">the horsepower and torque of the duramax diesel platform </text><text class="cls-13" transform="translate(723.35 106.21)">with the PPE Duramaximize<tspan class="cls-14" x="148.72" y="0">r</tspan><tspan x="152.06" y="0">.</tspan></text><text class="cls-13" transform="translate(723.35 130.21)">PPE continued to innovate creating products to enhance and </text><text class="cls-13" transform="translate(723.35 142.21)">improve the Duramax diesel platform, systematically finding </text><text class="cls-13" transform="translate(723.35 154.21)">and improving “weak links” which would fail under the new </text><text class="cls-13" transform="translate(723.35 166.21)">high horsepower and torque demands.</text><text class="cls-13" transform="translate(723.35 190.21)">Our engineers built on their success by turning their sights on </text><text class="cls-13" transform="translate(723.35 202.21)">Ford and Dodge diesel platforms. With each improvement, </text><text class="cls-13" transform="translate(723.35 214.21)">they learned how to make clean, e<tspan class="cls-15" x="182.78" y="0">f</tspan><tspan x="185.92" y="0">ficient powe</tspan><tspan class="cls-16" x="249.29" y="0">r</tspan><tspan x="252.64" y="0">, while improv</tspan></text><text class="cls-13" transform="translate(1049.31 214.21)">-</text><text class="cls-13" transform="translate(723.35 226.21)">ing fuel mileage and the drivers experience.</text><text class="cls-13" transform="translate(723.35 250.21)"><tspan class="cls-17">T</tspan><tspan x="6.01" y="0">oda</tspan><tspan class="cls-18" x="26.03" y="0">y</tspan><tspan x="31.16" y="0">, PPE has expanded and is now focusing more than 30 </tspan></text><text class="cls-13" transform="translate(723.35 262.21)">years of experience to create a new line of intelligent, </text><text class="cls-13" transform="translate(723.35 274.21)">heavy-duty upgrades for GM, Ford, Dodge/Ram, Jeep and </text><text class="cls-13" transform="translate(723.35 286.21)">many others. </text><text class="cls-10" transform="translate(595.83 617.13)">For use on smaller application only where &quot;<tspan class="cls-19" x="267.21" y="0">P</tspan><tspan x="275.55" y="0">ACIFIC PERFORMANCE </tspan></text><text class="cls-10" transform="translate(600.87 633.13)">ENGINEERING&quot; loses legibilit<tspan class="cls-20" x="186.25" y="0">y</tspan><tspan x="192.24" y="0">. For all other applications please use </tspan></text><text class="cls-10" transform="translate(773.23 649.13)">original logo.</text><text class="cls-21" transform="translate(37.87 617.13)">For use on dark background &quot;<tspan class="cls-18" x="183.96" y="0">P</tspan><tspan x="192.28" y="0">ACIFIC PERFORMANCE ENGINEERING&quot; </tspan></text><text class="cls-21" transform="translate(161.46 633.13)">text may be inverted to white onl<tspan class="cls-18" x="200.77" y="0">y</tspan><tspan x="206.75" y="0">.</tspan></text><g class="cls-2"><path class="cls-7" d="M225.06,532.29h5.28a1.74,1.74,0,0,1,1.26.39,2,2,0,0,1,.39,1.41v.27a1.59,1.59,0,0,1-1.94,2h-4.13V539h-.86Zm.86.73v2.58H230c.73,0,1.1-.32,1.1-1V534a1,1,0,0,0-.25-.78,1.38,1.38,0,0,0-.89-.2Z" transform="translate(-69.46 -72.5)"/><path class="cls-7" d="M233.33,539,237,532.3h1.06l3.7,6.7h-1l-.8-1.43h-4.95l-.8,1.43Zm2.15-2.17h4.17l-2.09-3.8h0Z" transform="translate(-69.46 -72.5)"/><path class="cls-7" d="M250.2,536.75H251v.5a1.74,1.74,0,0,1-.48,1.4,2.41,2.41,0,0,1-1.61.42h-3.2a2.27,2.27,0,0,1-1.73-.56,2.7,2.7,0,0,1-.52-1.86v-2a2.65,2.65,0,0,1,.53-1.85,2.25,2.25,0,0,1,1.73-.57h3.19c1.3,0,2,.55,1.95,1.65v.59h-.74v-.3a1.21,1.21,0,0,0-.3-.93,1.63,1.63,0,0,0-1.06-.27h-3a1.57,1.57,0,0,0-1.14.35,1.51,1.51,0,0,0-.34,1.09v2.47a1.6,1.6,0,0,0,.33,1.09,1.51,1.51,0,0,0,1.15.36h3a2,2,0,0,0,1.14-.24,1.09,1.09,0,0,0,.32-.89Z" transform="translate(-69.46 -72.5)"/><rect class="cls-7" x="250.33" y="535.23" width="6.69" height="0.85" transform="translate(-352.09 715.45) rotate(-89.85)"/><polygon class="cls-7" points="187.19 466.5 187.2 459.81 193.18 459.81 193.18 460.54 188.05 460.54 188.05 462.71 192.98 462.71 192.98 463.44 188.05 463.44 188.05 466.5 187.19 466.5"/><rect class="cls-7" x="195.31" y="459.81" width="0.85" height="6.7"/><path class="cls-7" d="M274.74,536.77h.79v.5a1.75,1.75,0,0,1-.48,1.4,2.42,2.42,0,0,1-1.61.41h-3.19a2.31,2.31,0,0,1-1.74-.56,2.73,2.73,0,0,1-.52-1.87v-2a2.65,2.65,0,0,1,.53-1.85,2.21,2.21,0,0,1,1.73-.57h3.2q1.95,0,1.95,1.65v.58h-.75v-.3a1.18,1.18,0,0,0-.3-.93,1.63,1.63,0,0,0-1.06-.27h-3a1.53,1.53,0,0,0-1.13.34,1.51,1.51,0,0,0-.34,1.1v2.47a1.6,1.6,0,0,0,.32,1.08,1.51,1.51,0,0,0,1.15.37h3a1.88,1.88,0,0,0,1.14-.25,1.06,1.06,0,0,0,.31-.88Z" transform="translate(-69.46 -72.5)"/><path class="cls-7" d="M282.8,532.33h5.28a1.74,1.74,0,0,1,1.26.39,2,2,0,0,1,.39,1.41v.27a2.22,2.22,0,0,1-.42,1.57,2.2,2.2,0,0,1-1.52.41h-4.13V539h-.86Zm.86.73v2.58h4.12c.73,0,1.1-.32,1.1-.95v-.64a1,1,0,0,0-.25-.78,1.44,1.44,0,0,0-.89-.2Z" transform="translate(-69.46 -72.5)"/><polygon class="cls-7" points="222.31 466.53 222.31 459.83 228.44 459.84 228.44 460.57 223.17 460.57 223.17 462.73 228.22 462.74 228.22 463.47 223.17 463.47 223.16 465.79 228.46 465.8 228.46 466.53 222.31 466.53"/><path class="cls-7" d="M300,539v-6.7h5.07a2.47,2.47,0,0,1,1.61.39,1.93,1.93,0,0,1,.45,1.47v.54a1.35,1.35,0,0,1-.27,1,1.53,1.53,0,0,1-.9.35,1.19,1.19,0,0,1,1.09,1.31V539h-.8v-1.48a1.2,1.2,0,0,0-.28-.92,1.48,1.48,0,0,0-1-.25h-4.11V539Zm.86-3.39h4a2.11,2.11,0,0,0,1-.2.8.8,0,0,0,.36-.78v-.59a.83.83,0,0,0-.34-.8,2.47,2.47,0,0,0-1.17-.2h-3.91Z" transform="translate(-69.46 -72.5)"/><polygon class="cls-7" points="240.01 466.54 240.02 459.84 246 459.85 246 460.58 240.87 460.58 240.87 462.74 245.8 462.75 245.8 463.48 240.87 463.48 240.87 466.54 240.01 466.54"/><path class="cls-7" d="M317.4,536.69v-2a2.69,2.69,0,0,1,.53-1.85,2.28,2.28,0,0,1,1.74-.57h3.56a2.15,2.15,0,0,1,1.74.6,2.85,2.85,0,0,1,.5,1.86v1.93a2.77,2.77,0,0,1-.51,1.87,2.25,2.25,0,0,1-1.74.57h-3.55a2.29,2.29,0,0,1-1.75-.57,2.7,2.7,0,0,1-.52-1.86m.85-2.22v2.46a1.52,1.52,0,0,0,.35,1.11,1.6,1.6,0,0,0,1.14.34h3.41a1.49,1.49,0,0,0,1.13-.36,1.55,1.55,0,0,0,.34-1.09v-2.45a1.52,1.52,0,0,0-.35-1.12,1.53,1.53,0,0,0-1.12-.34h-3.4a1.48,1.48,0,0,0-1.17.37,1.55,1.55,0,0,0-.33,1.08" transform="translate(-69.46 -72.5)"/><path class="cls-7" d="M327.77,539.06v-6.7h5.07a2.51,2.51,0,0,1,1.61.39,1.93,1.93,0,0,1,.45,1.47v.54a1.35,1.35,0,0,1-.28,1,1.57,1.57,0,0,1-.9.36,1.19,1.19,0,0,1,1.1,1.3v1.68H334v-1.48a1.22,1.22,0,0,0-.27-.92,1.52,1.52,0,0,0-1-.25h-4.11v2.66Zm.85-3.39h4a2.07,2.07,0,0,0,1-.2.82.82,0,0,0,.35-.78v-.59a.85.85,0,0,0-.33-.8,2.5,2.5,0,0,0-1.17-.2h-3.92Z" transform="translate(-69.46 -72.5)"/><polygon class="cls-7" points="267.69 459.86 269.02 459.87 272.65 465.49 272.65 465.49 276.29 459.87 277.61 459.87 277.61 466.57 276.76 466.57 276.76 460.65 276.77 460.65 272.96 466.56 272.34 466.56 268.54 460.65 268.55 460.65 268.54 466.56 267.69 466.56 267.69 459.86"/><path class="cls-7" d="M348.87,539.07l3.72-6.69h1.05l3.7,6.7h-1l-.79-1.43h-5l-.8,1.43Zm2.15-2.16h4.17l-2.09-3.79h0Z" transform="translate(-69.46 -72.5)"/><polygon class="cls-7" points="289.65 459.88 290.91 459.88 296.7 465.77 296.68 465.77 296.68 459.88 297.53 459.89 297.53 466.58 296.28 466.58 290.49 460.69 290.51 460.69 290.51 466.58 289.65 466.58 289.65 459.88"/><path class="cls-7" d="M376,536.84h.8v.49a1.78,1.78,0,0,1-.48,1.41,2.49,2.49,0,0,1-1.61.41h-3.2a2.24,2.24,0,0,1-1.73-.56,2.7,2.7,0,0,1-.52-1.86v-2a2.71,2.71,0,0,1,.52-1.85,2.28,2.28,0,0,1,1.74-.57h3.19q1.95,0,1.95,1.65v.58h-.75v-.29a1.22,1.22,0,0,0-.3-.94,1.58,1.58,0,0,0-1-.27h-3a1.25,1.25,0,0,0-1.47,1.45V537a1.6,1.6,0,0,0,.33,1.09,1.49,1.49,0,0,0,1.15.36h3a2,2,0,0,0,1.14-.24,1.09,1.09,0,0,0,.31-.89Z" transform="translate(-69.46 -72.5)"/><polygon class="cls-7" points="309.56 466.59 309.56 459.89 315.69 459.9 315.69 460.63 310.42 460.63 310.42 462.8 315.47 462.8 315.47 463.53 310.42 463.53 310.42 465.86 315.72 465.86 315.72 466.6 309.56 466.59"/><polygon class="cls-7" points="322.91 466.6 322.91 459.9 329.03 459.91 329.03 460.64 323.76 460.64 323.76 462.8 328.82 462.81 328.82 463.54 323.76 463.54 323.76 465.87 329.06 465.87 329.06 466.61 322.91 466.6"/><polygon class="cls-7" points="331.17 459.91 332.42 459.91 338.21 465.8 338.19 465.8 338.19 459.92 339.05 459.92 339.05 466.61 337.79 466.61 332 460.72 332.03 460.72 332.02 466.61 331.17 466.61 331.17 459.91"/><path class="cls-7" d="M414.58,536.55v-.74h4.05v1a2.73,2.73,0,0,1-.48,1.8,2.17,2.17,0,0,1-1.69.55H413a2.28,2.28,0,0,1-1.75-.56,2.81,2.81,0,0,1-.53-1.92v-2a2.71,2.71,0,0,1,.55-1.84,2.43,2.43,0,0,1,1.77-.54h3.12c1.59,0,2.38.61,2.38,1.84v.25h-.79c0-.59-.13-1-.39-1.12a4.35,4.35,0,0,0-1.78-.24h-2.48a1.66,1.66,0,0,0-1.18.35,1.58,1.58,0,0,0-.34,1.12v2.34a1.75,1.75,0,0,0,.33,1.18,1.51,1.51,0,0,0,1.19.37h3.23a1.68,1.68,0,0,0,1.08-.28,1.25,1.25,0,0,0,.34-1v-.63Z" transform="translate(-69.46 -72.5)"/><rect class="cls-7" x="418.06" y="535.35" width="6.7" height="0.85" transform="translate(-184.92 883.3) rotate(-89.85)"/><polygon class="cls-7" points="354.86 459.93 356.11 459.93 361.9 465.82 361.88 465.82 361.88 459.94 362.74 459.93 362.73 466.63 361.48 466.63 355.69 460.74 355.71 460.74 355.71 466.62 354.85 466.62 354.86 459.93"/><polygon class="cls-7" points="365.17 466.63 365.17 459.94 371.29 459.94 371.29 460.67 366.02 460.67 366.02 462.83 371.07 462.84 371.07 463.57 366.02 463.57 366.02 465.9 371.31 465.9 371.31 466.63 365.17 466.63"/><polygon class="cls-7" points="373.48 466.64 373.49 459.94 379.61 459.95 379.61 460.68 374.34 460.67 374.34 462.84 379.39 462.85 379.39 463.58 374.34 463.57 374.34 465.9 379.64 465.91 379.63 466.64 373.48 466.64"/><path class="cls-7" d="M451.2,539.15v-6.7h5.07a2.57,2.57,0,0,1,1.61.4,1.87,1.87,0,0,1,.44,1.47v.54a1.35,1.35,0,0,1-.27.95,1.53,1.53,0,0,1-.9.35,1.2,1.2,0,0,1,1.1,1.31v1.68h-.81v-1.48a1.25,1.25,0,0,0-.26-.93,1.58,1.58,0,0,0-1-.24h-4.11v2.66Zm.86-3.39h4a2,2,0,0,0,1-.2.8.8,0,0,0,.36-.78v-.6a.82.82,0,0,0-.34-.79,2.33,2.33,0,0,0-1.16-.2h-3.92Z" transform="translate(-69.46 -72.5)"/><rect class="cls-7" x="391.2" y="459.95" width="0.86" height="6.7"/><polygon class="cls-7" points="394.55 459.96 395.8 459.96 401.59 465.85 401.57 465.85 401.57 459.96 402.43 459.96 402.42 466.66 401.17 466.66 395.38 460.77 395.4 460.77 395.4 466.65 394.54 466.65 394.55 459.96"/><path class="cls-7" d="M478,536.59v-.73H482v1a2.73,2.73,0,0,1-.49,1.8,2.17,2.17,0,0,1-1.68.54H476.4a2.28,2.28,0,0,1-1.74-.57,2.71,2.71,0,0,1-.53-1.91v-2a2.63,2.63,0,0,1,.55-1.83,2.37,2.37,0,0,1,1.76-.55h3.13c1.58,0,2.38.62,2.38,1.84v.26h-.8c0-.58-.12-1-.38-1.11a4,4,0,0,0-1.78-.24H476.5a1.61,1.61,0,0,0-1.17.35,1.52,1.52,0,0,0-.34,1.11v2.34a1.84,1.84,0,0,0,.32,1.19,1.59,1.59,0,0,0,1.2.37h3.23a1.59,1.59,0,0,0,1.07-.29,1.18,1.18,0,0,0,.35-1v-.64Z" transform="translate(-69.46 -72.5)"/><path class="cls-6" d="M360.09,523.79l4.7-23.73,20.42,0a83.45,83.45,0,0,0,10.58-.4,27.09,27.09,0,0,0,7.72-2.09,17.9,17.9,0,0,0,5.36-4,21.75,21.75,0,0,0,4.21-7.12,25.47,25.47,0,0,0,1.74-9.17,17.13,17.13,0,0,0-2.14-8.78,12.37,12.37,0,0,0-5.82-5.28,25.88,25.88,0,0,0-10-1.61l-55.56-.11L329,523.73Zm10.28-52h4.78c3.9,0,6.41.23,7.53.68a5.3,5.3,0,0,1,2.63,2.1,6.66,6.66,0,0,1,.93,3.7,11.07,11.07,0,0,1-1.84,6.15,10.5,10.5,0,0,1-5,4.08c-2.1.83-6.3,1.24-12.57,1.24Z" transform="translate(-69.46 -72.5)"/><polygon class="cls-6" points="402.33 451.5 405.87 434.14 372.7 434.07 374.92 422.69 404.72 422.75 407.4 409.63 377.39 409.77 379.36 399.6 410.26 399.66 412.31 389.26 349.96 389.14 337.67 451.38 402.33 451.5"/><path class="cls-6" d="M224.51,518.36h1.85l25.33.06-1,5.15,31.11.06,4.7-23.73,20.41,0a87.66,87.66,0,0,0,10.59-.4,28,28,0,0,0,7.73-2.09,18.07,18.07,0,0,0,5.35-4.05,21.75,21.75,0,0,0,4.21-7.12,25.21,25.21,0,0,0,1.73-9.17,17.05,17.05,0,0,0-2.13-8.78,12.35,12.35,0,0,0-5.82-5.27,25.69,25.69,0,0,0-10-1.62L263,461.33s-4.19,22.32-5.49,27.89c-21.83,12.46-31.87,27.45-31.91,27.53Zm3.91-1.91c6.05-7.79,33.71-39.25,88.67-41.28v5.57c-12.17,1.68-41.52,8.41-52.84,35.91l-35.93-.07.1-.13" transform="translate(-69.46 -72.5)"/><path class="cls-7" d="M228.42,516.2c6.05-7.79,33.71-39.25,88.67-41.28v5.57c-12.17,1.68-41.52,8.41-52.84,35.91l-35.93-.07.1-.13" transform="translate(-69.46 -72.5)"/><path class="cls-7" d="M225.06,640.77h5.28a1.74,1.74,0,0,1,1.26.39,2,2,0,0,1,.39,1.41v.27a1.59,1.59,0,0,1-1.94,2h-4.13v2.65h-.86Zm.86.73v2.58H230c.73,0,1.1-.32,1.1-1v-.63a1,1,0,0,0-.25-.78,1.43,1.43,0,0,0-.89-.21Z" transform="translate(-69.46 -72.5)"/><path class="cls-7" d="M233.33,647.47l3.71-6.69h1.06l3.7,6.7h-1L240,646h-4.95l-.8,1.43Zm2.15-2.17h4.17l-2.09-3.79h0Z" transform="translate(-69.46 -72.5)"/><path class="cls-7" d="M250.2,645.23H251v.5a1.74,1.74,0,0,1-.48,1.4,2.36,2.36,0,0,1-1.61.41h-3.2A2.27,2.27,0,0,1,244,647a2.7,2.7,0,0,1-.52-1.86v-2a2.65,2.65,0,0,1,.53-1.85,2.25,2.25,0,0,1,1.73-.57h3.19c1.3,0,2,.55,1.95,1.65V643h-.74v-.3a1.19,1.19,0,0,0-.3-.93,1.63,1.63,0,0,0-1.06-.27h-3a1.57,1.57,0,0,0-1.14.35,1.51,1.51,0,0,0-.34,1.09v2.47a1.6,1.6,0,0,0,.33,1.09,1.51,1.51,0,0,0,1.15.36h3a2,2,0,0,0,1.14-.24,1.09,1.09,0,0,0,.32-.89Z" transform="translate(-69.46 -72.5)"/><rect class="cls-7" x="250.33" y="643.71" width="6.69" height="0.85" transform="translate(-460.57 823.66) rotate(-89.85)"/><polygon class="cls-7" points="187.19 574.98 187.2 568.29 193.18 568.29 193.18 569.02 188.05 569.02 188.05 571.19 192.98 571.19 192.98 571.92 188.05 571.92 188.05 574.98 187.19 574.98"/><rect class="cls-7" x="195.31" y="568.29" width="0.85" height="6.7"/><path class="cls-7" d="M274.74,645.25h.79v.5a1.75,1.75,0,0,1-.48,1.4,2.42,2.42,0,0,1-1.61.41h-3.19a2.31,2.31,0,0,1-1.74-.56,2.73,2.73,0,0,1-.52-1.87v-2a2.65,2.65,0,0,1,.53-1.85,2.21,2.21,0,0,1,1.73-.57h3.2q1.95,0,1.95,1.65V643h-.75v-.3a1.18,1.18,0,0,0-.3-.93,1.63,1.63,0,0,0-1.06-.27h-3a1.53,1.53,0,0,0-1.13.34,1.51,1.51,0,0,0-.34,1.1v2.47a1.6,1.6,0,0,0,.32,1.08,1.51,1.51,0,0,0,1.15.37h3a1.88,1.88,0,0,0,1.14-.25,1.06,1.06,0,0,0,.31-.88Z" transform="translate(-69.46 -72.5)"/><path class="cls-7" d="M282.8,640.81h5.28a1.74,1.74,0,0,1,1.26.39,2,2,0,0,1,.39,1.41v.27a1.59,1.59,0,0,1-1.94,2h-4.13v2.65h-.86Zm.86.73v2.58h4.12c.73,0,1.1-.32,1.1-1v-.64a1,1,0,0,0-.25-.78,1.44,1.44,0,0,0-.89-.2Z" transform="translate(-69.46 -72.5)"/><polygon class="cls-7" points="222.31 575.01 222.31 568.31 228.44 568.32 228.44 569.05 223.17 569.04 223.17 571.21 228.22 571.22 228.22 571.95 223.17 571.95 223.16 574.27 228.46 574.27 228.46 575.01 222.31 575.01"/><path class="cls-7" d="M300,647.52v-6.7h5.07a2.47,2.47,0,0,1,1.61.39,1.93,1.93,0,0,1,.45,1.47v.54a1.35,1.35,0,0,1-.27.95,1.53,1.53,0,0,1-.9.35,1.19,1.19,0,0,1,1.09,1.31v1.68h-.8V646a1.2,1.2,0,0,0-.28-.92,1.48,1.48,0,0,0-1-.25h-4.11v2.66Zm.86-3.39h4a2.11,2.11,0,0,0,1-.2.8.8,0,0,0,.36-.78v-.6a.82.82,0,0,0-.34-.79,2.35,2.35,0,0,0-1.17-.2h-3.91Z" transform="translate(-69.46 -72.5)"/><polygon class="cls-7" points="240.01 575.02 240.02 568.32 246 568.33 246 569.06 240.87 569.06 240.87 571.22 245.8 571.23 245.8 571.96 240.87 571.96 240.87 575.02 240.01 575.02"/><path class="cls-7" d="M317.4,645.17v-2a2.67,2.67,0,0,1,.53-1.85,2.28,2.28,0,0,1,1.74-.57h3.56a2.15,2.15,0,0,1,1.74.6,2.85,2.85,0,0,1,.5,1.86v1.93A2.77,2.77,0,0,1,325,647a2.25,2.25,0,0,1-1.74.57h-3.55a2.25,2.25,0,0,1-1.75-.56,2.7,2.7,0,0,1-.52-1.86m.85-2.22v2.46a1.52,1.52,0,0,0,.35,1.11,1.6,1.6,0,0,0,1.14.34h3.41a1.49,1.49,0,0,0,1.13-.36,1.56,1.56,0,0,0,.34-1.09V643a1.49,1.49,0,0,0-.35-1.11,1.53,1.53,0,0,0-1.12-.34h-3.4a1.48,1.48,0,0,0-1.17.37,1.55,1.55,0,0,0-.33,1.08" transform="translate(-69.46 -72.5)"/><path class="cls-7" d="M327.77,647.54v-6.7h5.07a2.51,2.51,0,0,1,1.61.39,1.93,1.93,0,0,1,.45,1.47v.54a1.35,1.35,0,0,1-.28,1,1.57,1.57,0,0,1-.9.36,1.19,1.19,0,0,1,1.1,1.3v1.68H334v-1.48a1.24,1.24,0,0,0-.27-.93,1.58,1.58,0,0,0-1-.24h-4.11v2.66Zm.85-3.39h4a2.18,2.18,0,0,0,1-.2.82.82,0,0,0,.35-.78v-.59c0-.41-.11-.68-.33-.8a2.38,2.38,0,0,0-1.17-.2h-3.92Z" transform="translate(-69.46 -72.5)"/><polygon class="cls-7" points="267.69 568.34 269.02 568.35 272.65 573.97 272.65 573.97 276.29 568.35 277.61 568.35 277.61 575.05 276.76 575.05 276.76 569.13 276.77 569.13 272.96 575.04 272.34 575.04 268.54 569.13 268.55 569.13 268.54 575.04 267.69 575.04 267.69 568.34"/><path class="cls-7" d="M348.87,647.55l3.72-6.69h1.05l3.7,6.7h-1l-.79-1.43h-5l-.8,1.43Zm2.15-2.16h4.17l-2.09-3.79h0Z" transform="translate(-69.46 -72.5)"/><polygon class="cls-7" points="289.65 568.36 290.91 568.36 296.7 574.25 296.68 574.25 296.68 568.36 297.53 568.37 297.53 575.06 296.28 575.06 290.49 569.17 290.51 569.17 290.51 575.05 289.65 575.05 289.65 568.36"/><path class="cls-7" d="M376,645.32h.8v.49a1.78,1.78,0,0,1-.48,1.41,2.49,2.49,0,0,1-1.61.41h-3.2a2.24,2.24,0,0,1-1.73-.56,2.72,2.72,0,0,1-.52-1.86v-2a2.71,2.71,0,0,1,.52-1.85,2.28,2.28,0,0,1,1.74-.57h3.19q1.95,0,1.95,1.65V643h-.75v-.3a1.21,1.21,0,0,0-.3-.93,1.58,1.58,0,0,0-1-.27h-3a1.25,1.25,0,0,0-1.47,1.44v2.47a1.6,1.6,0,0,0,.33,1.09,1.49,1.49,0,0,0,1.15.36h3a2,2,0,0,0,1.14-.24,1.09,1.09,0,0,0,.31-.89Z" transform="translate(-69.46 -72.5)"/><polygon class="cls-7" points="309.56 575.07 309.56 568.37 315.69 568.38 315.69 569.11 310.42 569.11 310.42 571.27 315.47 571.28 315.47 572.01 310.42 572.01 310.42 574.34 315.72 574.34 315.72 575.07 309.56 575.07"/><polygon class="cls-7" points="322.91 575.08 322.91 568.38 329.03 568.39 329.03 569.12 323.76 569.12 323.76 571.28 328.82 571.28 328.82 572.02 323.76 572.02 323.76 574.35 329.06 574.35 329.06 575.08 322.91 575.08"/><polygon class="cls-7" points="331.17 568.39 332.42 568.39 338.21 574.28 338.19 574.28 338.19 568.39 339.05 568.4 339.05 575.09 337.79 575.09 332 569.2 332.03 569.2 332.02 575.08 331.17 575.09 331.17 568.39"/><path class="cls-7" d="M414.58,645v-.74h4.05v1a2.73,2.73,0,0,1-.48,1.8,2.17,2.17,0,0,1-1.69.55H413a2.32,2.32,0,0,1-1.75-.56,2.81,2.81,0,0,1-.53-1.92v-2a2.71,2.71,0,0,1,.55-1.84,2.43,2.43,0,0,1,1.77-.54h3.12c1.59,0,2.38.61,2.38,1.83v.26h-.79c0-.59-.13-1-.39-1.12a4.35,4.35,0,0,0-1.78-.24h-2.48a1.66,1.66,0,0,0-1.18.35,1.58,1.58,0,0,0-.34,1.12v2.34a1.75,1.75,0,0,0,.33,1.18,1.51,1.51,0,0,0,1.19.37h3.23a1.68,1.68,0,0,0,1.08-.28,1.25,1.25,0,0,0,.34-1V645Z" transform="translate(-69.46 -72.5)"/><rect class="cls-7" x="418.06" y="643.83" width="6.7" height="0.85" transform="translate(-293.4 991.5) rotate(-89.85)"/><polygon class="cls-7" points="354.86 568.41 356.11 568.41 361.9 574.3 361.88 574.3 361.88 568.41 362.74 568.41 362.73 575.11 361.48 575.11 355.69 569.22 355.71 569.22 355.71 575.1 354.85 575.1 354.86 568.41"/><polygon class="cls-7" points="365.17 575.11 365.17 568.42 371.29 568.42 371.29 569.15 366.02 569.15 366.02 571.31 371.07 571.32 371.07 572.05 366.02 572.05 366.02 574.38 371.31 574.38 371.31 575.11 365.17 575.11"/><polygon class="cls-7" points="373.48 575.12 373.49 568.42 379.61 568.42 379.61 569.16 374.34 569.15 374.34 571.32 379.39 571.32 379.39 572.06 374.34 572.05 374.34 574.38 379.64 574.38 379.63 575.12 373.48 575.12"/><path class="cls-7" d="M451.2,647.63v-6.7h5.07a2.57,2.57,0,0,1,1.61.4,1.87,1.87,0,0,1,.44,1.47v.54a1.35,1.35,0,0,1-.27.95,1.53,1.53,0,0,1-.9.35,1.2,1.2,0,0,1,1.1,1.31v1.68h-.81v-1.48a1.25,1.25,0,0,0-.26-.93,1.58,1.58,0,0,0-1-.24h-4.11v2.66Zm.86-3.39h4a2,2,0,0,0,1-.2.8.8,0,0,0,.36-.78v-.6a.82.82,0,0,0-.34-.79,2.33,2.33,0,0,0-1.16-.2h-3.92Z" transform="translate(-69.46 -72.5)"/><rect class="cls-7" x="391.2" y="568.43" width="0.86" height="6.7"/><polygon class="cls-7" points="394.55 568.43 395.8 568.44 401.59 574.33 401.57 574.33 401.57 568.44 402.43 568.44 402.42 575.14 401.17 575.13 395.38 569.25 395.4 569.25 395.4 575.13 394.54 575.13 394.55 568.43"/><path class="cls-7" d="M478,645.07v-.73H482v1a2.73,2.73,0,0,1-.49,1.8,2.17,2.17,0,0,1-1.68.54H476.4a2.28,2.28,0,0,1-1.74-.57,2.71,2.71,0,0,1-.53-1.91v-2a2.63,2.63,0,0,1,.55-1.83,2.37,2.37,0,0,1,1.76-.55h3.13c1.58,0,2.38.62,2.38,1.84V643h-.8c0-.58-.12-1-.38-1.11a4,4,0,0,0-1.78-.24H476.5a1.61,1.61,0,0,0-1.17.35,1.52,1.52,0,0,0-.34,1.11v2.34a1.84,1.84,0,0,0,.32,1.19,1.59,1.59,0,0,0,1.2.37h3.23a1.59,1.59,0,0,0,1.07-.29,1.18,1.18,0,0,0,.35-1v-.64Z" transform="translate(-69.46 -72.5)"/><path class="cls-7" d="M360.09,632.27l4.7-23.73,20.42,0a83.45,83.45,0,0,0,10.58-.4,27.09,27.09,0,0,0,7.72-2.09,17.9,17.9,0,0,0,5.36-4,21.75,21.75,0,0,0,4.21-7.12,25.47,25.47,0,0,0,1.74-9.17,17.13,17.13,0,0,0-2.14-8.78,12.37,12.37,0,0,0-5.82-5.28,25.88,25.88,0,0,0-10-1.61L341.3,570,329,632.2Zm10.28-52h4.78c3.9,0,6.41.23,7.53.68a5.3,5.3,0,0,1,2.63,2.1,6.66,6.66,0,0,1,.93,3.7,11.07,11.07,0,0,1-1.84,6.15,10.42,10.42,0,0,1-5,4.07c-2.1.84-6.3,1.25-12.57,1.25Z" transform="translate(-69.46 -72.5)"/><polygon class="cls-7" points="402.33 559.98 405.87 542.62 372.7 542.55 374.92 531.17 404.72 531.23 407.4 518.11 377.39 518.25 379.36 508.08 410.26 508.14 412.31 497.74 349.96 497.62 337.67 559.86 402.33 559.98"/><path class="cls-7" d="M224.51,626.84h1.85l25.33,0-1,5.16,31.11.06,4.7-23.73,20.41,0a84.92,84.92,0,0,0,10.59-.41,27.64,27.64,0,0,0,7.73-2.08,18.07,18.07,0,0,0,5.35-4,21.75,21.75,0,0,0,4.21-7.12,25.25,25.25,0,0,0,1.73-9.17,17.05,17.05,0,0,0-2.13-8.78,12.35,12.35,0,0,0-5.82-5.27,25.69,25.69,0,0,0-10-1.62L263,569.81s-4.19,22.32-5.49,27.89c-21.83,12.46-31.87,27.45-31.91,27.53Zm3.91-1.91c6.05-7.79,33.71-39.25,88.67-41.28v5.56c-12.17,1.69-41.52,8.42-52.84,35.92l-35.93-.07.1-.13" transform="translate(-69.46 -72.5)"/><rect class="cls-4" x="3.36" y="316.17" width="1080.01" height="36.74"/><rect class="cls-4" x="3.36" y="672.15" width="1080.01" height="36.74"/><rect class="cls-22" x="3.36" y="3.36" width="1080" height="2715.83"/></g><text class="cls-23" transform="translate(17.3 338)">Logo <tspan class="cls-24" x="40.82" y="0">V</tspan><tspan x="50" y="0">ariations</tspan></text><g class="cls-2"><rect class="cls-4" x="3.36" y="4.36" width="1080.01" height="36.74"/></g><text class="cls-23" transform="translate(17.3 26.2)">Logo <tspan class="cls-24" x="40.82" y="0">V</tspan><tspan x="50" y="0">ariations</tspan></text><text class="cls-23" transform="translate(699.59 26.63)">Summary</text><text class="cls-23" transform="translate(555.06 696.79)">Logomark</text><text class="cls-23" transform="translate(17.31 696.79)"><tspan class="cls-25">T</tspan><tspan x="8.05" y="0">agline</tspan></text><g class="cls-2"><rect class="cls-4" x="0.68" y="1941.82" width="1080.01" height="36.74"/></g><text class="cls-23" transform="translate(18.17 1966.47)"><tspan class="cls-25">T</tspan><tspan x="8.05" y="0">ypography</tspan></text><g class="cls-2"><rect class="cls-4" x="1.68" y="1418.22" width="1080.01" height="36.74"/></g><text class="cls-23" transform="translate(18.17 1442.86)">Minimium Space Requirments</text><g class="cls-2"><rect class="cls-4" x="2.54" y="2414.63" width="1080.01" height="36.74"/></g><text class="cls-23" transform="translate(21.03 2439.28)">Color</text><text class="cls-26" transform="translate(316.55 2117.33)"><tspan class="cls-27">A</tspan><tspan class="cls-28" x="20.33" y="0"> </tspan><tspan class="cls-29" x="27.65" y="0">B</tspan><tspan class="cls-28" x="49.16" y="0"> </tspan><tspan class="cls-29" x="56.48" y="0">C</tspan><tspan class="cls-28" x="77.99" y="0"> </tspan><tspan class="cls-29" x="85.31" y="0">D</tspan><tspan class="cls-28" x="106.82" y="0" xml:space="preserve"> E F G </tspan><tspan class="cls-29" x="197.19" y="0">H</tspan><tspan class="cls-30" x="218.7" y="0" xml:space="preserve"> I </tspan><tspan class="cls-31" x="240.67" y="0">J</tspan><tspan class="cls-32" x="256.86" y="0"> </tspan><tspan class="cls-31" x="264.19" y="0">K</tspan><tspan class="cls-32" x="285.69" y="0"> </tspan><tspan class="cls-33" x="293.02" y="0">L</tspan><tspan class="cls-30" x="310.39" y="0"> </tspan><tspan class="cls-34" x="317.71" y="0">M</tspan><tspan class="cls-30" x="342.77" y="0"> </tspan><tspan class="cls-34" x="350.09" y="0">N</tspan><tspan class="cls-30" x="371.6" y="0" xml:space="preserve"> O </tspan><tspan class="cls-35" x="409.57" y="0">P</tspan><tspan class="cls-32" x="428.73" y="0" xml:space="preserve"> Q </tspan><tspan class="cls-31" x="466.7" y="0">R</tspan><tspan class="cls-30" x="488.21" y="0" xml:space="preserve"> S T </tspan><tspan class="cls-31" x="547.94" y="0">U</tspan><tspan class="cls-32" x="569.44" y="0" xml:space="preserve"> V W X</tspan><tspan class="cls-35" x="659.6" y="0"> </tspan><tspan class="cls-36" x="666.31" y="0">Y</tspan><tspan class="cls-30" x="685.51" y="0"> </tspan><tspan x="692.84" y="0">Z</tspan></text><text class="cls-37" transform="translate(39.61 2158.38)"><tspan class="cls-38">A</tspan><tspan class="cls-39" x="108.1" y="0"> </tspan><tspan x="131.65" y="0">B</tspan></text><text class="cls-40" transform="translate(315.55 2156.76)">a b c d e f g h i j k l m n o p q r<tspan class="cls-41" x="485.5" y="0"> </tspan><tspan x="494.84" y="0">s t u v w x y z </tspan></text><text class="cls-42" transform="translate(316.55 2039.35)"><tspan xml:space="preserve">Arial Bold  </tspan></text><text class="cls-42" transform="translate(316.55 2069.35)"><tspan class="cls-43">T</tspan><tspan x="16.1" y="0">ypeface Usage - Headline </tspan></text><text class="cls-44" transform="translate(319.92 2331.45)"><tspan class="cls-45">A</tspan><tspan class="cls-46" x="18.14" y="0" xml:space="preserve"> B </tspan><tspan class="cls-47" x="53.04" y="0">C</tspan><tspan class="cls-48" x="74.71" y="0"> </tspan><tspan class="cls-47" x="82.2" y="0">D</tspan><tspan class="cls-48" x="103.87" y="0" xml:space="preserve"> E F G </tspan><tspan class="cls-47" x="195.35" y="0">H</tspan><tspan class="cls-48" x="217.02" y="0" xml:space="preserve"> I </tspan><tspan class="cls-49" x="239.47" y="0">J</tspan><tspan class="cls-48" x="254.03" y="0" xml:space="preserve"> K </tspan><tspan class="cls-50" x="288.93" y="0">L</tspan><tspan class="cls-51" x="304.1" y="0"> </tspan><tspan class="cls-52" x="311.59" y="0">M</tspan><tspan class="cls-48" x="336.8" y="0"> </tspan><tspan class="cls-49" x="344.29" y="0">N</tspan><tspan class="cls-48" x="365.96" y="0" xml:space="preserve"> O </tspan><tspan class="cls-53" x="404.4" y="0">P</tspan><tspan class="cls-48" x="423.73" y="0" xml:space="preserve"> Q </tspan><tspan class="cls-52" x="462.18" y="0">R</tspan><tspan class="cls-48" x="483.85" y="0" xml:space="preserve"> S</tspan><tspan class="cls-53" x="511.27" y="0" xml:space="preserve"> T</tspan><tspan class="cls-48" x="535.67" y="0"> </tspan><tspan class="cls-52" x="543.16" y="0">U</tspan><tspan class="cls-51" x="564.82" y="0" xml:space="preserve"> V W X</tspan><tspan class="cls-54" x="655.94" y="0" xml:space="preserve"> Y</tspan><tspan class="cls-48" x="682.14" y="0"> </tspan><tspan x="689.62" y="0">Z</tspan></text><text class="cls-55" transform="translate(38.98 2375.54)"><tspan class="cls-56">A</tspan><tspan class="cls-57" x="107.91" y="0"> </tspan><tspan x="136.28" y="0">B</tspan></text><text class="cls-58" transform="translate(317.92 2370.88)"><tspan class="cls-59">a</tspan><tspan class="cls-60" x="19.66" y="0"> </tspan><tspan class="cls-59" x="29.89" y="0">b</tspan><tspan class="cls-61" x="49.54" y="0" xml:space="preserve"> c </tspan><tspan class="cls-59" x="87.78" y="0">d</tspan><tspan class="cls-60" x="107.44" y="0"> </tspan><tspan class="cls-59" x="117.67" y="0">e</tspan><tspan class="cls-61" x="137.32" y="0" xml:space="preserve"> f </tspan><tspan class="cls-59" x="168.01" y="0">g</tspan><tspan class="cls-60" x="187.67" y="0"> </tspan><tspan class="cls-59" x="197.89" y="0">h</tspan><tspan class="cls-60" x="217.55" y="0"> </tspan><tspan class="cls-59" x="227.78" y="0">i</tspan><tspan class="cls-61" x="236.08" y="0"> </tspan><tspan class="cls-59" x="246.31" y="0">j</tspan><tspan class="cls-61" x="254.61" y="0"> </tspan><tspan class="cls-59" x="264.84" y="0">k</tspan><tspan class="cls-61" x="282.59" y="0"> </tspan><tspan class="cls-59" x="292.82" y="0">l</tspan><tspan class="cls-62" x="301.12" y="0"> </tspan><tspan class="cls-59" x="311.35" y="0">m</tspan><tspan class="cls-61" x="340.42" y="0"> </tspan><tspan class="cls-59" x="350.64" y="0">n</tspan><tspan class="cls-61" x="370.3" y="0"> </tspan><tspan class="cls-59" x="380.53" y="0">o</tspan><tspan class="cls-62" x="400.19" y="0"> </tspan><tspan class="cls-59" x="410.42" y="0">p</tspan><tspan class="cls-61" x="430.07" y="0"> </tspan><tspan class="cls-59" x="440.3" y="0">q</tspan><tspan class="cls-61" x="459.96" y="0"> </tspan><tspan class="cls-59" x="470.19" y="0">r</tspan><tspan class="cls-61" x="482.26" y="0"> </tspan><tspan class="cls-59" x="492.49" y="0">s</tspan><tspan class="cls-62" x="510.23" y="0" xml:space="preserve"> t </tspan><tspan class="cls-59" x="540.92" y="0">u</tspan><tspan class="cls-61" x="560.58" y="0"> </tspan><tspan class="cls-59" x="570.8" y="0">v</tspan><tspan class="cls-62" x="588.55" y="0"> </tspan><tspan class="cls-59" x="598.78" y="0">w</tspan><tspan class="cls-61" x="624.08" y="0"> </tspan><tspan class="cls-59" x="634.31" y="0">x</tspan><tspan class="cls-61" x="652.06" y="0"> </tspan><tspan class="cls-59" x="662.29" y="0">y</tspan><tspan class="cls-62" x="680.03" y="0"> </tspan><tspan class="cls-59" x="690.26" y="0">z</tspan><tspan x="708.01" y="0"> </tspan></text><text class="cls-63" transform="translate(319.92 2253.47)"><tspan xml:space="preserve">Arial Regular  </tspan></text><text class="cls-63" transform="translate(319.92 2283.47)"><tspan class="cls-64">T</tspan><tspan x="16.68" y="0">ypeface Usage - Body Copy</tspan></text><text class="cls-23" transform="translate(17.32 922.75)">Logo Grid</text><text class="cls-10" transform="translate(93.63 861.96)">Founded in 1985, PPE (Pacific Performance Engineering) </text><text class="cls-10" transform="translate(118.15 877.96)">made engineering innovations the prime directive.</text><text class="cls-10" transform="translate(612.56 861.96)">PPE logomark can be used alone or in conjunction with other </text><text class="cls-10" transform="translate(665.46 877.96)">elements to identify and enhance the brand.</text><text class="cls-65" transform="translate(328.64 1877.98)">The minimum clear space surrounding the Banks logo should be no less </text><text class="cls-65" transform="translate(319.69 1893.98)">than the width of the left stem on the letter “P” in “PPE”, as indicated belo<tspan class="cls-66" x="452.13" y="0">w</tspan><tspan x="461.48" y="0">.</tspan></text><g class="cls-2"><line class="cls-67" x1="684.76" y1="17.12" x2="684.76" y2="319.15"/><g class="cls-68"><g class="cls-69"><path class="cls-70" d="M283.61,1883.56H943.24V1595H283.61Zm593.52-64.14H349.72V1659.17H877.13Z" transform="translate(-69.46 -72.5)"/></g></g><path class="cls-7" d="M349.77,1805h10.87a3.6,3.6,0,0,1,2.59.79,4,4,0,0,1,.81,2.91v.56c0,1.58-.28,2.65-.87,3.22a4.57,4.57,0,0,1-3.13.84h-8.51v5.46h-1.76Zm1.76,1.51v5.3H360c1.5,0,2.26-.65,2.26-2v-1.31a2,2,0,0,0-.52-1.6,2.89,2.89,0,0,0-1.83-.43Z" transform="translate(-69.46 -72.5)"/><path class="cls-7" d="M366.79,1818.84l7.65-13.78h2.17l7.62,13.79h-2l-1.65-2.94h-10.2l-1.65,2.95Zm4.43-4.47h8.58l-4.3-7.81h0Z" transform="translate(-69.46 -72.5)"/><path class="cls-7" d="M401.52,1814.23h1.64v1a3.59,3.59,0,0,1-1,2.88,5,5,0,0,1-3.32.85h-6.58a4.64,4.64,0,0,1-3.57-1.17,5.67,5.67,0,0,1-1.07-3.83v-4.07a5.49,5.49,0,0,1,1.08-3.81,4.67,4.67,0,0,1,3.57-1.18h6.57q4,0,4,3.39l0,1.21h-1.53v-.61a2.47,2.47,0,0,0-.62-1.92,3.31,3.31,0,0,0-2.18-.55h-6.11a3.21,3.21,0,0,0-2.34.72,3,3,0,0,0-.7,2.25v5.07a3.34,3.34,0,0,0,.67,2.25,3.07,3.07,0,0,0,2.37.75h6.11a3.92,3.92,0,0,0,2.34-.51,2.17,2.17,0,0,0,.64-1.82Z" transform="translate(-69.46 -72.5)"/><rect class="cls-7" x="401.8" y="1811.09" width="13.78" height="1.76" transform="translate(-1473.89 2143.02) rotate(-89.84)"/><polygon class="cls-7" points="345.36 1746.37 345.37 1732.58 357.69 1732.59 357.69 1734.1 347.13 1734.09 347.13 1738.55 357.28 1738.56 357.28 1740.07 347.13 1740.06 347.12 1746.37 345.36 1746.37"/><rect class="cls-7" x="362.08" y="1732.59" width="1.76" height="13.79"/><path class="cls-7" d="M452.06,1814.27h1.63v1a3.65,3.65,0,0,1-1,2.9,5.08,5.08,0,0,1-3.32.84h-6.57a4.73,4.73,0,0,1-3.59-1.17,5.62,5.62,0,0,1-1.06-3.83V1810a5.52,5.52,0,0,1,1.08-3.82,4.69,4.69,0,0,1,3.57-1.17h6.59c2.67,0,4,1.14,4,3.4v1.2h-1.55l0-.61a2.44,2.44,0,0,0-.62-1.92,3.38,3.38,0,0,0-2.18-.56H443a3.18,3.18,0,0,0-2.33.71,3.13,3.13,0,0,0-.69,2.26v5.08a3.28,3.28,0,0,0,.67,2.24,3.16,3.16,0,0,0,2.36.75h6.12a3.92,3.92,0,0,0,2.34-.51,2.24,2.24,0,0,0,.65-1.82Z" transform="translate(-69.46 -72.5)"/><path class="cls-7" d="M468.67,1805.12h10.87a3.56,3.56,0,0,1,2.58.8,4,4,0,0,1,.82,2.91v.55a4.54,4.54,0,0,1-.87,3.23,4.6,4.6,0,0,1-3.14.83h-8.5v5.46h-1.77Zm1.76,1.52v5.3h8.48c1.52,0,2.26-.65,2.26-2v-1.31a2,2,0,0,0-.52-1.61,3,3,0,0,0-1.83-.42Z" transform="translate(-69.46 -72.5)"/><polygon class="cls-7" points="417.67 1746.42 417.68 1732.63 430.28 1732.64 430.28 1734.15 419.44 1734.14 419.44 1738.61 429.84 1738.61 429.84 1740.12 419.44 1740.12 419.43 1744.91 430.34 1744.91 430.34 1746.42 417.67 1746.42"/><path class="cls-7" d="M504.14,1818.93v-13.78h10.43a5.09,5.09,0,0,1,3.32.81,3.92,3.92,0,0,1,.92,3v1.12a2.71,2.71,0,0,1-.56,2,3.09,3.09,0,0,1-1.86.73,2.45,2.45,0,0,1,2.26,2.68v3.47H517v-3a2.5,2.5,0,0,0-.56-1.9,3.09,3.09,0,0,0-2.09-.51H505.9v5.46Zm1.76-7h8.33a4.35,4.35,0,0,0,2.1-.42,1.69,1.69,0,0,0,.74-1.61v-1.22a1.73,1.73,0,0,0-.69-1.64,5.07,5.07,0,0,0-2.41-.42h-8.06Z" transform="translate(-69.46 -72.5)"/><polygon class="cls-7" points="454.13 1746.44 454.13 1732.66 466.45 1732.67 466.46 1734.18 455.89 1734.17 455.89 1738.63 466.04 1738.63 466.04 1740.15 455.89 1740.14 455.89 1746.44 454.13 1746.44"/><path class="cls-7" d="M539.9,1814.1V1810a5.49,5.49,0,0,1,1.1-3.81,4.7,4.7,0,0,1,3.59-1.18h7.32a4.53,4.53,0,0,1,3.6,1.22,6,6,0,0,1,1,3.83v4a5.75,5.75,0,0,1-1,3.85,4.58,4.58,0,0,1-3.58,1.17h-7.33a4.68,4.68,0,0,1-3.59-1.16,5.56,5.56,0,0,1-1.08-3.83m1.76-4.58v5.08a3.09,3.09,0,0,0,.73,2.28,3.26,3.26,0,0,0,2.35.71h7a2.58,2.58,0,0,0,3-3v-5.06a3.13,3.13,0,0,0-.71-2.3,3.2,3.2,0,0,0-2.3-.7h-7a3.1,3.1,0,0,0-2.4.75,3.24,3.24,0,0,0-.68,2.22" transform="translate(-69.46 -72.5)"/><path class="cls-7" d="M561.25,1819v-13.78H571.7a5.06,5.06,0,0,1,3.32.82,3.93,3.93,0,0,1,.92,3v1.13a2.69,2.69,0,0,1-.57,1.94,3.12,3.12,0,0,1-1.85.74,2.44,2.44,0,0,1,2.25,2.67V1819h-1.65v-3.06a2.56,2.56,0,0,0-.56-1.9,3.07,3.07,0,0,0-2.09-.51H563V1819Zm1.77-7h8.32a4.28,4.28,0,0,0,2.11-.42,1.71,1.71,0,0,0,.73-1.6v-1.23a1.73,1.73,0,0,0-.69-1.64,5,5,0,0,0-2.41-.41H563Z" transform="translate(-69.46 -72.5)"/><polygon class="cls-7" points="511.12 1732.7 513.85 1732.7 521.34 1744.29 521.32 1744.29 528.82 1732.71 531.55 1732.71 531.54 1746.5 529.78 1746.5 529.79 1734.33 529.81 1734.33 521.96 1746.49 520.7 1746.49 512.86 1734.31 512.88 1734.31 512.87 1746.49 511.11 1746.48 511.12 1732.7"/><path class="cls-7" d="M604.7,1819l7.66-13.78h2.17l7.62,13.79h-2l-1.64-3H608.33l-1.65,3Zm4.44-4.47h8.58l-4.31-7.81h0Z" transform="translate(-69.46 -72.5)"/><polygon class="cls-7" points="556.35 1732.73 558.92 1732.73 570.84 1744.86 570.8 1744.86 570.81 1732.74 572.57 1732.75 572.56 1746.53 569.98 1746.53 558.07 1734.4 558.11 1734.4 558.1 1746.52 556.34 1746.52 556.35 1732.73"/><path class="cls-7" d="M660.54,1814.42h1.64v1a3.68,3.68,0,0,1-1,2.89,5.15,5.15,0,0,1-3.33.84h-6.58a4.66,4.66,0,0,1-3.57-1.16,5.58,5.58,0,0,1-1.07-3.83v-4.07a5.59,5.59,0,0,1,1.08-3.82,4.67,4.67,0,0,1,3.57-1.17h6.59c2.67,0,4,1.14,4,3.4l0,1.2h-1.54l0-.61a2.42,2.42,0,0,0-.63-1.92,3.33,3.33,0,0,0-2.17-.56h-6.12a3.18,3.18,0,0,0-2.33.71,3.13,3.13,0,0,0-.7,2.26v5.07a3.31,3.31,0,0,0,.67,2.25,3.06,3.06,0,0,0,2.37.74h6.1a3.87,3.87,0,0,0,2.35-.51,2.21,2.21,0,0,0,.64-1.82Z" transform="translate(-69.46 -72.5)"/><polygon class="cls-7" points="597.34 1746.55 597.34 1732.76 609.95 1732.77 609.95 1734.28 599.11 1734.27 599.11 1738.73 609.5 1738.74 609.5 1740.25 599.1 1740.24 599.1 1745.04 610.01 1745.05 610.01 1746.56 597.34 1746.55"/><polygon class="cls-7" points="624.82 1746.57 624.83 1732.78 637.43 1732.79 637.43 1734.3 626.58 1734.29 626.58 1738.75 636.99 1738.76 636.99 1740.27 626.58 1740.26 626.58 1745.06 637.48 1745.07 637.48 1746.58 624.82 1746.57"/><polygon class="cls-7" points="641.83 1732.8 644.41 1732.8 656.32 1744.92 656.28 1744.93 656.29 1732.8 658.05 1732.81 658.04 1746.59 655.47 1746.59 643.55 1734.46 643.6 1734.46 643.59 1746.58 641.82 1746.58 641.83 1732.8"/><path class="cls-7" d="M740,1813.81v-1.52h8.33v2.12a5.59,5.59,0,0,1-1,3.7c-.66.76-1.82,1.12-3.48,1.12h-7.06a4.68,4.68,0,0,1-3.6-1.16,5.75,5.75,0,0,1-1.09-3.94v-4.05a5.44,5.44,0,0,1,1.14-3.78,4.92,4.92,0,0,1,3.63-1.12h6.44c3.26,0,4.9,1.26,4.9,3.77v.52H746.6c0-1.2-.27-2-.79-2.29a8.4,8.4,0,0,0-3.67-.49H737a3.31,3.31,0,0,0-2.41.73,3.14,3.14,0,0,0-.72,2.29v4.82a3.78,3.78,0,0,0,.66,2.44,3.28,3.28,0,0,0,2.47.76h6.65a3.44,3.44,0,0,0,2.21-.58,2.53,2.53,0,0,0,.71-2v-1.31Z" transform="translate(-69.46 -72.5)"/><rect class="cls-7" x="747.17" y="1811.34" width="13.79" height="1.76" transform="matrix(0, -1, 1, 0, -1129.75, 2488.63)"/><polygon class="cls-7" points="690.61 1732.83 693.19 1732.83 705.11 1744.96 705.06 1744.95 705.07 1732.84 706.83 1732.84 706.83 1746.63 704.25 1746.62 692.33 1734.5 692.37 1734.5 692.36 1746.61 690.6 1746.61 690.61 1732.83"/><polygon class="cls-7" points="711.83 1746.63 711.83 1732.85 724.44 1732.85 724.44 1734.36 713.59 1734.35 713.59 1738.82 724 1738.82 723.99 1740.33 713.59 1740.32 713.58 1745.12 724.5 1745.13 724.5 1746.63 711.83 1746.63"/><polygon class="cls-7" points="728.96 1746.64 728.97 1732.85 741.58 1732.87 741.57 1734.37 730.73 1734.36 730.73 1738.83 741.13 1738.84 741.13 1740.34 730.72 1740.34 730.72 1745.13 741.63 1745.14 741.62 1746.65 728.96 1746.64"/><path class="cls-7" d="M815.43,1819.16v-13.79h10.45a5.07,5.07,0,0,1,3.31.82,3.86,3.86,0,0,1,.92,3v1.13a2.72,2.72,0,0,1-.57,2,3.15,3.15,0,0,1-1.85.73,2.45,2.45,0,0,1,2.26,2.68v3.47H828.3v-3.06a2.54,2.54,0,0,0-.55-1.9,3.16,3.16,0,0,0-2.1-.51h-8.47v5.46Zm1.76-7h8.32a4.38,4.38,0,0,0,2.11-.41,1.71,1.71,0,0,0,.73-1.61v-1.23a1.74,1.74,0,0,0-.69-1.64,5,5,0,0,0-2.4-.41h-8.07Z" transform="translate(-69.46 -72.5)"/><rect class="cls-7" x="765.45" y="1732.88" width="1.77" height="13.79"/><polygon class="cls-7" points="772.33 1732.89 774.91 1732.89 786.83 1745.02 786.78 1745.02 786.8 1732.9 788.55 1732.9 788.54 1746.69 785.96 1746.68 774.05 1734.56 774.09 1734.56 774.09 1746.67 772.33 1746.67 772.33 1732.89"/><path class="cls-7" d="M870.53,1813.9v-1.51h8.33v2.11a5.55,5.55,0,0,1-1,3.7,4.42,4.42,0,0,1-3.47,1.13h-7.07a4.79,4.79,0,0,1-3.6-1.16,5.7,5.7,0,0,1-1.08-3.94v-4.06a5.41,5.41,0,0,1,1.13-3.78,5,5,0,0,1,3.63-1.12h6.44c3.26,0,4.9,1.26,4.9,3.78v.52H877.1c0-1.21-.26-2-.79-2.3a8.47,8.47,0,0,0-3.66-.49h-5.13a3.25,3.25,0,0,0-2.41.72,3.17,3.17,0,0,0-.71,2.3v4.82a3.67,3.67,0,0,0,.67,2.43,3.16,3.16,0,0,0,2.46.76h6.65a3.39,3.39,0,0,0,2.21-.59,2.51,2.51,0,0,0,.71-2v-1.31Z" transform="translate(-69.46 -72.5)"/><path class="cls-6" d="M627.82,1787.53l9.68-48.86,42,.08q16,0,21.79-.84c6.68-1,12-2.41,15.91-4.29a37.18,37.18,0,0,0,11-8.33,45.14,45.14,0,0,0,8.68-14.67,52.48,52.48,0,0,0,3.56-18.88q0-10.5-4.39-18.07a25.52,25.52,0,0,0-12-10.87c-5.05-2.19-11.92-3.31-20.59-3.32l-114.39-.23L563.75,1787.4ZM649,1680.45l9.83,0c8,0,13.21.47,15.52,1.38a11,11,0,0,1,5.41,4.35,13.78,13.78,0,0,1,1.91,7.6,22.67,22.67,0,0,1-3.79,12.67,21.69,21.69,0,0,1-10.35,8.39q-6.51,2.58-25.89,2.56Z" transform="translate(-69.46 -72.5)"/><polygon class="cls-6" points="788.37 1715.48 795.65 1679.72 727.35 1679.59 731.92 1656.15 793.27 1656.28 798.8 1629.27 737 1629.56 741.06 1608.61 804.7 1608.74 808.91 1587.32 680.52 1587.06 655.21 1715.22 788.37 1715.48"/><path class="cls-6" d="M348.64,1776.36h3.81l52.15.11-2.11,10.61,64.07.13,9.68-48.87,42,.09c10.67,0,17.92-.26,21.8-.84A57,57,0,0,0,556,1733.3a37.34,37.34,0,0,0,11-8.33,45.3,45.3,0,0,0,8.66-14.67,52.14,52.14,0,0,0,3.56-18.88q0-10.5-4.39-18.07a25.4,25.4,0,0,0-12-10.87c-5-2.19-11.91-3.31-20.6-3.32l-114.39-.23s-8.63,46-11.3,57.43c-45,25.65-65.62,56.52-65.71,56.69Zm8-3.93c12.45-16,69.43-80.82,182.6-85l0,11.45c-25,3.48-85.49,17.33-108.79,74l-74-.15.2-.26" transform="translate(-69.46 -72.5)"/><path class="cls-7" d="M356.68,1771.91c12.45-16.05,69.43-80.81,182.6-85l0,11.46c-25,3.47-85.49,17.33-108.79,74l-74-.15.2-.27" transform="translate(-69.46 -72.5)"/><rect class="cls-71" x="279.18" y="1587.06" width="529.73" height="159.45"/><rect class="cls-72" x="808.91" y="1522.28" width="64.46" height="64.46"/><rect class="cls-72" x="809.4" y="1746.51" width="64.46" height="64.46"/><rect class="cls-72" x="214.23" y="1522.44" width="64.46" height="64.46"/><rect class="cls-72" x="214.72" y="1746.67" width="64.46" height="64.46"/><rect class="cls-73" x="94.05" y="2484.98" width="146.98" height="41.93"/></g><text class="cls-74" transform="translate(93.38 2553.01)"><tspan class="cls-75">P</tspan><tspan class="cls-76" x="11.01" y="0">A</tspan><tspan class="cls-77" x="23.43" y="0">N</tspan><tspan class="cls-78" x="36.86" y="0">T</tspan><tspan class="cls-79" x="47.87" y="0">O</tspan><tspan class="cls-77" x="62.36" y="0">N</tspan><tspan class="cls-76" x="75.8" y="0">E</tspan><tspan x="88.21" y="0"> </tspan></text><text class="cls-74" transform="translate(93.38 2575.52)"><tspan class="cls-77">179</tspan><tspan x="30.96" y="0">7</tspan></text><text class="cls-74" transform="translate(93.73 2610.69)"><tspan class="cls-77">0</tspan><tspan class="cls-79" x="10.32" y="0">, </tspan><tspan class="cls-80" x="20.55" y="0">100</tspan><tspan class="cls-79" x="51.51" y="0">, </tspan><tspan class="cls-80" x="61.75" y="0">90</tspan><tspan class="cls-76" x="82.38" y="0">, </tspan><tspan class="cls-77" x="92.62" y="0">1</tspan><tspan x="102.94" y="0">0</tspan></text><text class="cls-74" transform="translate(93.73 2643.89)"><tspan class="cls-77">227</tspan><tspan class="cls-79" x="30.96" y="0">, </tspan><tspan class="cls-77" x="41.19" y="0">27</tspan><tspan class="cls-76" x="61.83" y="0">, </tspan><tspan class="cls-77" x="72.07" y="0">3</tspan><tspan x="82.38" y="0">5</tspan></text><text class="cls-74" transform="translate(93.73 2677.09)"><tspan class="cls-77">#</tspan><tspan class="cls-79" x="10.32" y="0">E</tspan><tspan class="cls-77" x="22.74" y="0">51</tspan><tspan class="cls-76" x="43.37" y="0">B</tspan><tspan class="cls-80" x="55.79" y="0">2</tspan><tspan x="66.11" y="0">4</tspan></text><g class="cls-2"><g class="cls-81"><g class="cls-82"><text class="cls-83" transform="translate(32.17 2610.9)">CM<tspan class="cls-76" x="28.95" y="0">Y</tspan><tspan class="cls-84" x="41.36" y="0">K</tspan></text></g></g><g class="cls-81"><g class="cls-85"><text class="cls-74" transform="translate(46.01 2644.09)"><tspan class="cls-77">R</tspan><tspan class="cls-76" x="13.43" y="0">G</tspan><tspan x="27.93" y="0">B</tspan></text></g></g><g class="cls-81"><g class="cls-86"><text class="cls-74" transform="translate(43.87 2677.29)"><tspan class="cls-76">WE</tspan><tspan x="30.03" y="0">B</tspan></text></g></g><rect class="cls-5" x="294.22" y="2484.98" width="146.98" height="41.93"/></g><text class="cls-74" transform="translate(293.55 2553.01)"><tspan class="cls-75">P</tspan><tspan class="cls-76" x="11.01" y="0">A</tspan><tspan class="cls-77" x="23.43" y="0">N</tspan><tspan class="cls-78" x="36.86" y="0">T</tspan><tspan class="cls-79" x="47.87" y="0">O</tspan><tspan class="cls-77" x="62.36" y="0">N</tspan><tspan class="cls-76" x="75.8" y="0">E</tspan><tspan x="88.21" y="0"> </tspan></text><text class="cls-74" transform="translate(293.55 2575.52)"><tspan class="cls-76">P</tspan><tspan class="cls-77" x="12.42" y="0">R</tspan><tspan class="cls-79" x="25.85" y="0">O</tspan><tspan class="cls-77" x="40.35" y="0">C</tspan><tspan class="cls-76" x="53.78" y="0">ESS B</tspan><tspan class="cls-77" x="108.56" y="0">L</tspan><tspan class="cls-76" x="118.88" y="0">A</tspan><tspan class="cls-77" x="131.3" y="0">C</tspan><tspan x="144.73" y="0">K</tspan></text><text class="cls-74" transform="translate(293.91 2610.69)"><tspan class="cls-77">0</tspan><tspan class="cls-79" x="10.32" y="0">, </tspan><tspan class="cls-80" x="20.55" y="0">0</tspan><tspan class="cls-76" x="30.87" y="0">, </tspan><tspan class="cls-80" x="41.11" y="0">0</tspan><tspan class="cls-76" x="51.43" y="0">, </tspan><tspan class="cls-77" x="61.66" y="0">10</tspan><tspan x="82.3" y="0">0</tspan></text><text class="cls-74" transform="translate(293.91 2643.89)"><tspan class="cls-77">0</tspan><tspan class="cls-79" x="10.32" y="0">, </tspan><tspan class="cls-80" x="20.55" y="0">0</tspan><tspan class="cls-76" x="30.87" y="0">, </tspan><tspan x="41.11" y="0">0</tspan></text><text class="cls-74" transform="translate(293.91 2677.09)"><tspan class="cls-77">#00</tspan><tspan x="30.96" y="0">0</tspan></text><g class="cls-2"><rect class="cls-87" x="494.49" y="2484.98" width="146.98" height="41.93"/></g><text class="cls-88" transform="translate(493.82 2553.01)">P<tspan class="cls-76" x="11.01" y="0">A</tspan><tspan class="cls-77" x="23.43" y="0">N</tspan><tspan class="cls-89" x="36.86" y="0">T</tspan><tspan class="cls-76" x="47.87" y="0">O</tspan><tspan class="cls-77" x="62.36" y="0">N</tspan><tspan class="cls-90" x="75.8" y="0">E</tspan><tspan class="cls-91" x="88.21" y="0"> </tspan></text><text class="cls-74" transform="translate(493.82 2575.52)"><tspan class="cls-77">42</tspan><tspan x="20.64" y="0">4</tspan></text><text class="cls-74" transform="translate(494.17 2610.69)"><tspan class="cls-77">59</tspan><tspan class="cls-76" x="20.64" y="0">, </tspan><tspan class="cls-77" x="30.87" y="0">48</tspan><tspan class="cls-76" x="51.51" y="0">, </tspan><tspan class="cls-77" x="61.75" y="0">48</tspan><tspan class="cls-76" x="82.38" y="0">, </tspan><tspan class="cls-92" x="92.62" y="0">1</tspan><tspan x="102.94" y="0">5</tspan></text><text class="cls-74" transform="translate(494.17 2643.89)"><tspan class="cls-77">147</tspan><tspan class="cls-79" x="30.96" y="0">, </tspan><tspan class="cls-77" x="41.19" y="0">149</tspan><tspan class="cls-93" x="72.15" y="0">, </tspan><tspan class="cls-77" x="82.38" y="0">15</tspan><tspan x="103.02" y="0">1</tspan></text><text class="cls-74" transform="translate(494.17 2677.09)"><tspan class="cls-77">#6C6</tspan><tspan class="cls-79" x="44.39" y="0">F</tspan><tspan class="cls-77" x="55.75" y="0">7</tspan><tspan x="66.07" y="0">0</tspan></text><g class="cls-2"><rect class="cls-94" x="694.77" y="2484.98" width="146.98" height="41.93"/><rect class="cls-95" x="694.77" y="2484.98" width="146.98" height="41.93"/></g><text class="cls-96" transform="translate(694.1 2553.01)">P<tspan class="cls-76" x="11.01" y="0">A</tspan><tspan class="cls-77" x="23.43" y="0">N</tspan><tspan class="cls-78" x="36.86" y="0">T</tspan><tspan class="cls-76" x="47.87" y="0">O</tspan><tspan class="cls-77" x="62.36" y="0">N</tspan><tspan class="cls-90" x="75.8" y="0">E</tspan><tspan class="cls-91" x="88.21" y="0"> </tspan></text><text class="cls-97" transform="translate(694.1 2575.52)">C<tspan class="cls-76" x="13.43" y="0">OO</tspan><tspan class="cls-98" x="42.42" y="0">L</tspan><tspan class="cls-93" x="52.05" y="0" xml:space="preserve"> G</tspan><tspan class="cls-77" x="71.66" y="0">R</tspan><tspan class="cls-99" x="85.1" y="0">A</tspan><tspan class="cls-100" x="96.11" y="0">Y</tspan><tspan class="cls-93" x="108.19" y="0"> </tspan><tspan class="cls-101" x="113.3" y="0">C</tspan></text><text class="cls-74" transform="translate(694.45 2610.69)"><tspan class="cls-77">0</tspan><tspan class="cls-76" x="10.32" y="0">, </tspan><tspan class="cls-77" x="20.55" y="0">0</tspan><tspan class="cls-76" x="30.87" y="0">, </tspan><tspan class="cls-77" x="41.11" y="0">0</tspan><tspan class="cls-76" x="51.43" y="0">, </tspan><tspan class="cls-77" x="61.66" y="0">1</tspan><tspan x="71.98" y="0">0</tspan></text><text class="cls-74" transform="translate(694.45 2643.89)"><tspan class="cls-77">217</tspan><tspan class="cls-93" x="30.96" y="0">, </tspan><tspan class="cls-77" x="41.19" y="0">217</tspan><tspan class="cls-93" x="72.15" y="0">, </tspan><tspan class="cls-77" x="82.38" y="0">21</tspan><tspan x="103.02" y="0">7</tspan></text><text class="cls-74" transform="translate(694.45 2677.09)"><tspan class="cls-77">#</tspan><tspan class="cls-76" x="10.32" y="0">E</tspan><tspan class="cls-77" x="22.74" y="0">6</tspan><tspan class="cls-90" x="33.06" y="0">E</tspan><tspan class="cls-77" x="45.47" y="0">7</tspan><tspan class="cls-76" x="55.79" y="0">E</tspan><tspan x="68.21" y="0">8</tspan></text><g class="cls-2"><rect class="cls-7" x="895.6" y="2484.98" width="146.98" height="41.93"/><rect class="cls-95" x="895.6" y="2484.98" width="146.98" height="41.93"/></g><text class="cls-96" transform="translate(894.93 2553.01)">P<tspan class="cls-76" x="11.01" y="0">A</tspan><tspan class="cls-77" x="23.43" y="0">N</tspan><tspan class="cls-78" x="36.86" y="0">T</tspan><tspan class="cls-76" x="47.87" y="0">O</tspan><tspan class="cls-77" x="62.36" y="0">N</tspan><tspan class="cls-90" x="75.8" y="0">E</tspan><tspan class="cls-91" x="88.21" y="0"> </tspan></text><text class="cls-74" transform="translate(894.93 2575.52)"><tspan class="cls-77">000</tspan><tspan x="30.96" y="0">C</tspan></text><text class="cls-74" transform="translate(895.29 2610.69)"><tspan class="cls-77">0</tspan><tspan class="cls-76" x="10.32" y="0">, </tspan><tspan class="cls-77" x="20.55" y="0">0</tspan><tspan class="cls-76" x="30.87" y="0">, </tspan><tspan class="cls-77" x="41.11" y="0">0</tspan><tspan class="cls-76" x="51.43" y="0">, </tspan><tspan x="61.66" y="0">0</tspan></text><text class="cls-74" transform="translate(895.29 2643.89)"><tspan class="cls-77">255</tspan><tspan class="cls-93" x="30.96" y="0">, </tspan><tspan class="cls-77" x="41.19" y="0">255</tspan><tspan class="cls-93" x="72.15" y="0">, </tspan><tspan class="cls-77" x="82.38" y="0">25</tspan><tspan x="103.02" y="0">5</tspan></text><text class="cls-74" transform="translate(895.29 2677.09)"><tspan class="cls-77">#</tspan><tspan class="cls-76" x="10.32" y="0">FFFFF</tspan><tspan x="67.14" y="0">F</tspan></text><g class="cls-2"><line class="cls-102" x1="542.78" y1="703.5" x2="542.78" y2="908.7"/><path class="cls-6" d="M607.9,1229.39l10.5-49.68,45.6.08q17.34,0,23.64-.85c7.25-1,13-2.45,17.26-4.37a40.14,40.14,0,0,0,12-8.47,45.33,45.33,0,0,0,9.41-14.91,50.38,50.38,0,0,0,3.86-19.19q0-10.68-4.76-18.37a27.19,27.19,0,0,0-13-11.06c-5.48-2.22-12.93-3.36-22.34-3.37L565.92,1099l-27.54,130.3Zm23-108.87,10.67,0q13.08,0,16.84,1.41a11.89,11.89,0,0,1,5.87,4.41,13.35,13.35,0,0,1,2.07,7.73A22.1,22.1,0,0,1,662.2,1147,23.29,23.29,0,0,1,651,1155.5q-7.07,2.63-28.09,2.6Z" transform="translate(-69.46 -72.5)"/><polygon class="cls-6" points="787.99 1157.35 795.89 1120.99 721.79 1120.85 726.75 1097.03 793.31 1097.15 799.31 1069.69 732.25 1069.98 736.66 1048.69 805.71 1048.82 810.28 1027.05 670.98 1026.78 643.51 1157.08 787.99 1157.35"/><path class="cls-6" d="M305,1218h4.13l56.58.11-2.28,10.79,69.51.13,10.5-49.68,45.61.08q17.35,0,23.65-.84,10.84-1.5,17.26-4.37a40.28,40.28,0,0,0,12-8.47,45.38,45.38,0,0,0,9.41-14.91,50.28,50.28,0,0,0,3.86-19.2q0-10.68-4.76-18.37a27.09,27.09,0,0,0-13-11q-8.2-3.35-22.35-3.38L391,1098.64s-9.36,46.72-12.26,58.39c-48.77,26.07-71.2,57.46-71.29,57.63Zm8.73-4c13.51-16.32,75.32-82.16,198.11-86.42l0,11.65c-27.17,3.53-92.76,17.62-118,75.19l-80.27-.15c.06-.08.13-.17.22-.27" transform="translate(-69.46 -72.5)"/><path class="cls-7" d="M313.72,1213.51c13.51-16.32,75.32-82.17,198.11-86.42l0,11.65c-27.17,3.53-92.76,17.62-118,75.19l-80.27-.15a2.38,2.38,0,0,1,.22-.27" transform="translate(-69.46 -72.5)"/><ellipse class="cls-103" cx="442.63" cy="1066.13" rx="40.26" ry="39.67"/><ellipse class="cls-103" cx="444.69" cy="1063.15" rx="40.15" ry="40.01"/><path class="cls-103" d="M555.19,1133a40,40,0,1,1-40-40A40,40,0,0,1,555.19,1133Z" transform="translate(-69.46 -72.5)"/><circle class="cls-104" cx="520.99" cy="1138.8" r="39.84" transform="matrix(0.53, -0.85, 0.85, 0.53, -791.09, 910.77)"/><circle class="cls-104" cx="687.66" cy="1138.8" r="39.84" transform="matrix(0.53, -0.85, 0.85, 0.53, -712.05, 1052.55)"/><path class="cls-103" d="M729,1135.31a40,40,0,1,1-40-40A40,40,0,0,1,729,1135.31Z" transform="translate(-69.46 -72.5)"/><path class="cls-103" d="M730.15,1132.69a40,40,0,1,1-40-40A40,40,0,0,1,730.15,1132.69Z" transform="translate(-69.46 -72.5)"/><path class="cls-104" d="M735.57,1139.14a39.85,39.85,0,1,1-39.84-39.84A39.85,39.85,0,0,1,735.57,1139.14Z" transform="translate(-69.46 -72.5)"/><line class="cls-105" x1="212.5" y1="1026.46" x2="859.56" y2="1026.46"/><line class="cls-105" x1="212.5" y1="1048.02" x2="859.56" y2="1048.02"/><line class="cls-105" x1="212.5" y1="1069.57" x2="859.56" y2="1069.57"/><line class="cls-105" x1="212.5" y1="1085.6" x2="859.56" y2="1085.6"/><line class="cls-105" x1="212.5" y1="1096.62" x2="859.56" y2="1096.62"/><line class="cls-105" x1="212.5" y1="1106.48" x2="859.56" y2="1106.48"/><line class="cls-105" x1="212.5" y1="1121.07" x2="859.56" y2="1121.07"/><line class="cls-105" x1="212.5" y1="1145.52" x2="859.56" y2="1145.52"/><line class="cls-105" x1="212.5" y1="1157.35" x2="859.56" y2="1157.35"/><line class="cls-105" x1="819" y1="997.19" x2="782.08" y2="1188.18"/><line class="cls-105" x1="813" y1="997.19" x2="776.07" y2="1188.18"/><line class="cls-105" x1="815.94" y1="997.19" x2="779.02" y2="1188.18"/><line class="cls-105" x1="810.28" y1="997.19" x2="773.35" y2="1188.18"/><line class="cls-105" x1="746.33" y1="997.19" x2="709.4" y2="1188.18"/><line class="cls-105" x1="675.65" y1="997.19" x2="638.72" y2="1188.18"/><line class="cls-105" x1="501.74" y1="997.19" x2="464.81" y2="1188.18"/><line class="cls-105" x1="570.6" y1="997.19" x2="533.68" y2="1188.18"/><line class="cls-105" x1="325.72" y1="997.19" x2="288.8" y2="1188.18"/><line class="cls-105" x1="395.52" y1="997.19" x2="358.59" y2="1188.18"/><ellipse class="cls-106" cx="378.2" cy="1238.02" rx="170.1" ry="166.27"/><path class="cls-105" d="M666.31,1133.59a24,24,0,1,1-24-24A24,24,0,0,1,666.31,1133.59Z" transform="translate(-69.46 -72.5)"/><circle class="cls-107" cx="650.7" cy="1138.47" r="17.95" transform="translate(-719.58 1231.46) rotate(-67.5)"/></g><text class="cls-108" transform="translate(877.57 1823.88)">X</text><g class="cls-2"><line class="cls-109" x1="809.02" y1="1819.41" x2="810.82" y2="1819.41"/><line class="cls-110" x1="814.46" y1="1819.41" x2="870.95" y2="1819.41"/><line class="cls-109" x1="872.77" y1="1819.41" x2="874.57" y2="1819.41"/></g><text class="cls-108" transform="translate(201.3 1597.88)">X</text><g class="cls-2"><line class="cls-109" x1="205.2" y1="1521.82" x2="205.2" y2="1523.62"/><line class="cls-110" x1="205.2" y1="1527.26" x2="205.2" y2="1583.75"/><line class="cls-109" x1="205.2" y1="1585.57" x2="205.2" y2="1587.37"/></g><text class="cls-108" transform="translate(562.69 1724.67)">X</text><g class="cls-2"><line class="cls-109" x1="494.14" y1="1720.2" x2="495.94" y2="1720.2"/><line class="cls-110" x1="499.58" y1="1720.2" x2="556.07" y2="1720.2"/><line class="cls-109" x1="557.89" y1="1720.2" x2="559.69" y2="1720.2"/></g></g></svg>