<svg id="Layer_1" data-name="Layer 1" xmlns="http://www.w3.org/2000/svg" viewBox="0 0 533.26 151.17"><defs><style>.cls-1{fill:#231f20;}.cls-2{fill:#e31e27;}.cls-3{fill:#fff;}</style></defs><title>Untitled-2</title><path class="cls-1" d="M29.87,418.65H40.8a3.77,3.77,0,0,1,2.6.75,3.65,3.65,0,0,1,.82,2.74v.53a4,4,0,0,1-.87,3,4.75,4.75,0,0,1-3.15.79H31.63v5.15H29.86Zm1.77,1.41v5h8.53c1.51,0,2.28-.62,2.28-1.85V422a1.83,1.83,0,0,0-.52-1.51,3.12,3.12,0,0,0-1.85-.4Z" transform="translate(-28.73 -280.95)"/><path class="cls-1" d="M47,431.65l7.7-13h2.18l7.66,13h-2l-1.66-2.78H50.62L49,431.65Zm4.46-4.21h8.63l-4.33-7.36h0Z" transform="translate(-28.73 -280.95)"/><path class="cls-1" d="M81.91,427.3h1.65v1a3.31,3.31,0,0,1-1,2.72,5.3,5.3,0,0,1-3.34.79H72.61a4.88,4.88,0,0,1-3.59-1.1,5.09,5.09,0,0,1-1.08-3.61v-3.83a5,5,0,0,1,1.08-3.6,5,5,0,0,1,3.59-1.11h6.62q4,0,4,3.2l0,1.14H81.72v-.58a2.24,2.24,0,0,0-.62-1.81,3.56,3.56,0,0,0-2.2-.52H72.76a3.33,3.33,0,0,0-2.35.67,2.84,2.84,0,0,0-.7,2.13v4.78a3,3,0,0,0,.67,2.11,3.24,3.24,0,0,0,2.38.71h6.15a4.2,4.2,0,0,0,2.36-.48,2,2,0,0,0,.64-1.72Z" transform="translate(-28.73 -280.95)"/><rect class="cls-1" x="82.63" y="424.29" width="12.99" height="1.77" transform="translate(-364.99 232.36) rotate(-89.87)"/><polygon class="cls-1" points="66.56 150.74 66.57 137.74 78.96 137.75 78.96 139.17 68.34 139.16 68.34 143.37 78.55 143.37 78.55 144.8 68.34 144.79 68.33 150.74 66.56 150.74"/><rect class="cls-1" x="83.38" y="137.75" width="1.77" height="12.99"/><path class="cls-1" d="M132.74,427.34h1.64v1a3.33,3.33,0,0,1-1,2.73,5.4,5.4,0,0,1-3.35.79h-6.61a5,5,0,0,1-3.6-1.1,5.07,5.07,0,0,1-1.07-3.62v-3.83a5,5,0,0,1,1.09-3.59,4.88,4.88,0,0,1,3.59-1.11h6.62q4,0,4,3.21v1.13h-1.56l0-.57a2.19,2.19,0,0,0-.63-1.81,3.48,3.48,0,0,0-2.19-.52h-6.15a3.35,3.35,0,0,0-2.34.67,2.82,2.82,0,0,0-.7,2.13v4.79a3,3,0,0,0,.68,2.11,3.26,3.26,0,0,0,2.37.7h6.15a4.2,4.2,0,0,0,2.36-.48,2.07,2.07,0,0,0,.65-1.72Z" transform="translate(-28.73 -280.95)"/><path class="cls-1" d="M149.45,418.72h10.93a3.73,3.73,0,0,1,2.59.75,3.63,3.63,0,0,1,.83,2.74v.53a4.1,4.1,0,0,1-.88,3,4.87,4.87,0,0,1-3.15.78h-8.56v5.15h-1.77Zm1.77,1.43v5h8.53c1.52,0,2.27-.61,2.27-1.85v-1.24a1.86,1.86,0,0,0-.52-1.51,3.12,3.12,0,0,0-1.85-.4Z" transform="translate(-28.73 -280.95)"/><polygon class="cls-1" points="139.28 150.78 139.3 137.79 151.97 137.8 151.97 139.22 141.06 139.21 141.06 143.42 151.53 143.43 151.53 144.85 141.06 144.84 141.06 149.36 152.03 149.36 152.03 150.79 139.28 150.78"/><path class="cls-1" d="M185.12,431.74v-13h10.49a5.29,5.29,0,0,1,3.34.77,3.54,3.54,0,0,1,.93,2.84v1.06a2.45,2.45,0,0,1-.57,1.83,3.22,3.22,0,0,1-1.87.69,2.37,2.37,0,0,1,2.28,2.53v3.27h-1.66v-2.88a2.28,2.28,0,0,0-.56-1.79,3.26,3.26,0,0,0-2.1-.48h-8.52v5.15Zm1.77-6.57h8.37a4.69,4.69,0,0,0,2.12-.4,1.56,1.56,0,0,0,.74-1.51v-1.16a1.62,1.62,0,0,0-.69-1.55,5.55,5.55,0,0,0-2.43-.38h-8.1Z" transform="translate(-28.73 -280.95)"/><polygon class="cls-1" points="175.95 150.81 175.96 137.81 188.35 137.82 188.35 139.25 177.73 139.24 177.72 143.44 187.93 143.45 187.93 144.87 177.72 144.87 177.72 150.81 175.95 150.81"/><path class="cls-1" d="M221.09,427.19v-3.84a4,4,0,0,1,4.7-4.7h7.37a4.66,4.66,0,0,1,3.62,1.15,5.31,5.31,0,0,1,1,3.61v3.74a5.19,5.19,0,0,1-1.06,3.63,4.85,4.85,0,0,1-3.6,1.11h-7.37a4,4,0,0,1-4.69-4.7m1.76-4.32v4.78a2.81,2.81,0,0,0,.74,2.16,3.47,3.47,0,0,0,2.36.66H233a3.24,3.24,0,0,0,2.34-.69,2.91,2.91,0,0,0,.7-2.11v-4.77a2.81,2.81,0,0,0-.72-2.17,3.41,3.41,0,0,0-2.31-.67H226a3.21,3.21,0,0,0-2.41.71,2.86,2.86,0,0,0-.69,2.09" transform="translate(-28.73 -280.95)"/><path class="cls-1" d="M242.56,431.78v-13l10.49,0a5.45,5.45,0,0,1,3.35.77,3.58,3.58,0,0,1,.92,2.84v1.06a2.45,2.45,0,0,1-.57,1.83,3.25,3.25,0,0,1-1.87.69,2.35,2.35,0,0,1,2.27,2.53v3.27H255.5v-2.88a2.31,2.31,0,0,0-.56-1.79,3.26,3.26,0,0,0-2.1-.48h-8.52v5.15Zm1.77-6.57h8.37a4.57,4.57,0,0,0,2.12-.39,1.58,1.58,0,0,0,.74-1.51v-1.16a1.61,1.61,0,0,0-.7-1.55,5.5,5.5,0,0,0-2.42-.38h-8.1Z" transform="translate(-28.73 -280.95)"/><polygon class="cls-1" points="233.27 137.85 236.02 137.86 243.55 148.78 243.53 148.78 251.07 137.87 253.82 137.87 253.81 150.86 252.04 150.86 252.05 139.39 252.07 139.39 244.17 150.85 242.9 150.85 235.02 139.37 235.04 139.37 235.03 150.85 233.26 150.84 233.27 137.85"/><path class="cls-1" d="M286.26,431.81l7.7-13h2.18l7.67,13h-2L300.17,429H289.9l-1.65,2.78Zm4.46-4.21h8.63L295,420.25h0Z" transform="translate(-28.73 -280.95)"/><polygon class="cls-1" points="278.75 137.89 281.35 137.89 293.33 149.31 293.29 149.31 293.3 137.89 295.07 137.9 295.06 150.89 292.47 150.89 280.48 139.46 280.53 139.46 280.52 150.88 278.75 150.88 278.75 137.89"/><path class="cls-1" d="M342.42,427.48h1.64v1a3.32,3.32,0,0,1-1,2.72,5.43,5.43,0,0,1-3.34.8l-6.62,0a4.85,4.85,0,0,1-3.59-1.09,5.06,5.06,0,0,1-1.08-3.61v-3.84a4.94,4.94,0,0,1,1.09-3.59,4.86,4.86,0,0,1,3.58-1.11h6.63c2.68,0,4,1.07,4,3.21v1.13h-1.55v-.58a2.21,2.21,0,0,0-.63-1.81,3.45,3.45,0,0,0-2.18-.52h-6.16a3.26,3.26,0,0,0-2.34.67,2.78,2.78,0,0,0-.7,2.12v4.78a3,3,0,0,0,.67,2.12,3.18,3.18,0,0,0,2.38.7h6.14a4.09,4.09,0,0,0,2.36-.48,2,2,0,0,0,.65-1.72Z" transform="translate(-28.73 -280.95)"/><polygon class="cls-1" points="319.98 150.9 319.99 137.91 332.67 137.92 332.67 139.34 321.76 139.34 321.76 143.54 332.22 143.55 332.22 144.97 321.76 144.96 321.76 149.48 332.73 149.49 332.73 150.91 319.98 150.9"/><polygon class="cls-1" points="347.62 150.93 347.63 137.93 360.31 137.94 360.3 139.37 349.39 139.36 349.39 143.56 359.86 143.56 359.86 144.99 349.39 144.98 349.39 149.5 360.36 149.51 360.36 150.93 347.62 150.93"/><polygon class="cls-1" points="364.73 137.94 367.33 137.94 379.3 149.37 379.26 149.38 379.27 137.95 381.05 137.96 381.04 150.94 378.45 150.95 366.46 139.52 366.5 139.51 366.5 150.93 364.72 150.94 364.73 137.94"/><path class="cls-1" d="M422.36,426.91v-1.43h8.37v2a5,5,0,0,1-1,3.49c-.66.72-1.83,1.06-3.49,1.06h-7.11a4.91,4.91,0,0,1-3.61-1.1,5.08,5.08,0,0,1-1.1-3.71V423.4a5,5,0,0,1,1.14-3.57,5.22,5.22,0,0,1,3.65-1.05h6.48q4.92,0,4.92,3.56v.49H429c0-1.13-.27-1.84-.8-2.16a9.1,9.1,0,0,0-3.68-.46h-5.15a3.53,3.53,0,0,0-2.43.68,2.89,2.89,0,0,0-.72,2.17v4.54a3.31,3.31,0,0,0,.67,2.3,3.36,3.36,0,0,0,2.47.71H426a3.51,3.51,0,0,0,2.23-.55,2.3,2.3,0,0,0,.71-1.91v-1.23Z" transform="translate(-28.73 -280.95)"/><rect class="cls-1" x="429.98" y="424.53" width="12.99" height="1.77" transform="translate(-18.69 579.95) rotate(-89.87)"/><polygon class="cls-1" points="413.79 137.98 416.38 137.98 428.37 149.41 428.32 149.41 428.33 137.99 430.1 137.99 430.1 150.98 427.5 150.98 415.52 139.55 415.56 139.55 415.55 150.97 413.78 150.97 413.79 137.98"/><polygon class="cls-1" points="435.13 150.99 435.13 137.99 447.81 138 447.81 139.42 436.9 139.41 436.9 143.62 447.37 143.62 447.36 145.05 436.9 145.04 436.89 149.56 447.87 149.57 447.87 150.99 435.13 150.99"/><polygon class="cls-1" points="452.36 151 452.37 138 465.05 138.01 465.04 139.43 454.13 139.42 454.13 143.63 464.6 143.64 464.6 145.06 454.13 145.05 454.13 149.57 465.1 149.58 465.1 151 452.36 151"/><path class="cls-1" d="M498.19,432V419h10.5a5.4,5.4,0,0,1,3.34.77,3.58,3.58,0,0,1,.92,2.84v1.06a2.49,2.49,0,0,1-.57,1.83,3.22,3.22,0,0,1-1.87.69,2.37,2.37,0,0,1,2.28,2.53V432h-1.66v-2.88a2.26,2.26,0,0,0-.56-1.79,3.33,3.33,0,0,0-2.1-.48H500V432Zm1.77-6.57h8.37a4.48,4.48,0,0,0,2.13-.4,1.56,1.56,0,0,0,.73-1.51v-1.16a1.57,1.57,0,0,0-.7-1.54,5.28,5.28,0,0,0-2.41-.39H500Z" transform="translate(-28.73 -280.95)"/><rect class="cls-1" x="489.06" y="138.03" width="1.78" height="12.99"/><polygon class="cls-1" points="495.98 138.03 498.58 138.03 510.56 149.47 510.52 149.46 510.53 138.04 512.3 138.04 512.28 151.04 509.69 151.03 497.71 139.6 497.75 139.6 497.75 151.02 495.97 151.02 495.98 138.03"/><path class="cls-1" d="M553.61,427v-1.43H562v2a5,5,0,0,1-1,3.49,4.65,4.65,0,0,1-3.49,1.06h-7.11a5,5,0,0,1-3.62-1.09,5.17,5.17,0,0,1-1.09-3.72v-3.82a5,5,0,0,1,1.14-3.56,5.18,5.18,0,0,1,3.66-1.05h6.46q4.94,0,4.93,3.56v.5h-1.64c0-1.13-.27-1.85-.79-2.16a9,9,0,0,0-3.69-.46h-5.16a3.47,3.47,0,0,0-2.42.68,2.89,2.89,0,0,0-.72,2.17v4.54a3.31,3.31,0,0,0,.67,2.3,3.36,3.36,0,0,0,2.47.71h6.69a3.54,3.54,0,0,0,2.22-.56,2.29,2.29,0,0,0,.72-1.91V427Z" transform="translate(-28.73 -280.95)"/><path class="cls-2" d="M309.51,402.14l9.73-46.05,42.28.08q16.07,0,21.91-.79a59.67,59.67,0,0,0,16-4,37.17,37.17,0,0,0,11.1-7.86,41.88,41.88,0,0,0,8.72-13.82,46.63,46.63,0,0,0,3.58-17.79,31.57,31.57,0,0,0-4.41-17,25.22,25.22,0,0,0-12.07-10.25q-7.61-3.09-20.71-3.13l-115-.21L245.07,402ZM330.8,301.23l9.89,0q12.12,0,15.6,1.3a11,11,0,0,1,5.44,4.09,12.25,12.25,0,0,1,1.92,7.17,20.36,20.36,0,0,1-3.81,11.94,21.56,21.56,0,0,1-10.41,7.91q-6.54,2.43-26,2.41Z" transform="translate(-28.73 -280.95)"/><polygon class="cls-2" points="512.11 121.63 519.43 87.93 450.75 87.8 455.34 65.72 517.04 65.83 522.6 40.38 460.44 40.65 464.53 20.91 528.53 21.03 532.77 0.85 403.64 0.6 378.19 121.38 512.11 121.63"/><path class="cls-2" d="M28.73,391.62h3.83l52.44.1-2.11,10,64.43.12,9.74-46,42.27.08q16.1,0,21.93-.79a60.43,60.43,0,0,0,16-4.05,37.22,37.22,0,0,0,11.09-7.85,41.88,41.88,0,0,0,8.72-13.82,46.44,46.44,0,0,0,3.58-17.79,31.61,31.61,0,0,0-4.41-17,25.17,25.17,0,0,0-12.06-10.24q-7.6-3.09-20.72-3.13l-115-.21S99.73,324.25,97,335.07c-45.21,24.17-66,53.27-66.08,53.42Zm8.09-3.71c12.52-15.13,69.82-76.16,183.64-80.11l0,10.8c-25.19,3.27-86,16.33-109.42,69.7l-74.4-.14a3.11,3.11,0,0,1,.2-.25" transform="translate(-28.73 -280.95)"/><path class="cls-3" d="M36.82,387.43c12.52-15.13,69.82-76.17,183.64-80.11l0,10.8c-25.19,3.27-86,16.33-109.42,69.69l-74.4-.13a2,2,0,0,1,.2-.25" transform="translate(-28.73 -280.95)"/></svg>