<svg id="Layer_1" data-name="Layer 1" xmlns="http://www.w3.org/2000/svg" viewBox="0 0 174.25 90.83"><defs><style>.cls-1{fill:#e31e27;}</style></defs><title>red-p</title><path class="cls-1" d="M139.37,403.23h2.88l39.4.07-1.59,7.51,48.41.09,7.32-34.6,31.76.06a139.75,139.75,0,0,0,16.47-.59,45.18,45.18,0,0,0,12-3,28,28,0,0,0,8.34-5.9,31.46,31.46,0,0,0,6.55-10.38,34.92,34.92,0,0,0,2.69-13.37,23.69,23.69,0,0,0-3.32-12.8,18.81,18.81,0,0,0-9.06-7.69q-5.72-2.33-15.56-2.35l-86.44-.16s-6.52,32.53-8.54,40.66c-34,18.16-49.59,40-49.65,40.14Zm6.08-2.78c9.41-11.37,52.46-57.22,138-60.19v8.11c-18.93,2.46-64.6,12.28-82.21,52.37l-55.9-.1.15-.19" transform="translate(-139.37 -320.09)"/></svg>