<svg id="Layer_1" data-name="Layer 1" xmlns="http://www.w3.org/2000/svg" viewBox="0 0 283.84 64.8"><defs><style>.cls-1{fill:#e31e27;}.cls-2{fill:#fff;}</style></defs><title>red</title><path class="cls-1" d="M274.17,346.84l5.19-24.54,22.52,0a99.9,99.9,0,0,0,11.67-.42,31.78,31.78,0,0,0,8.53-2.15,19.67,19.67,0,0,0,5.91-4.19,22.37,22.37,0,0,0,4.65-7.36,25,25,0,0,0,1.91-9.48,16.79,16.79,0,0,0-2.36-9.07,13.39,13.39,0,0,0-6.42-5.46,30.22,30.22,0,0,0-11-1.67l-61.29-.11-13.6,64.34Zm11.34-53.77h5.27q6.47,0,8.32.7A5.78,5.78,0,0,1,302,296a6.57,6.57,0,0,1,1,3.82,10.93,10.93,0,0,1-2,6.36,11.49,11.49,0,0,1-5.55,4.21q-3.48,1.29-13.87,1.28Z" transform="translate(-124.58 -282.27)"/><polygon class="cls-1" points="272.83 64.8 276.74 46.84 240.14 46.78 242.59 35.01 275.46 35.07 278.42 21.51 245.31 21.66 247.48 11.14 281.58 11.2 283.84 0.45 215.05 0.32 201.48 64.67 272.83 64.8"/><path class="cls-1" d="M124.58,341.23h2l27.94,0-1.13,5.33,34.33.06L193,322.14l22.52,0a100.1,100.1,0,0,0,11.68-.42,32.37,32.37,0,0,0,8.53-2.15,20,20,0,0,0,5.91-4.19,22.3,22.3,0,0,0,4.64-7.36,24.84,24.84,0,0,0,1.91-9.48,16.76,16.76,0,0,0-2.35-9.07,13.36,13.36,0,0,0-6.43-5.46,30.13,30.13,0,0,0-11-1.67l-61.3-.11s-4.62,23.07-6.05,28.83c-24.09,12.88-35.16,28.38-35.21,28.46Zm4.31-2c6.67-8.06,37.2-40.57,97.84-42.68v5.76c-13.42,1.74-45.81,8.7-58.3,37.13l-39.64-.07.11-.14" transform="translate(-124.58 -282.27)"/><path class="cls-2" d="M128.89,339c6.67-8.05,37.2-40.57,97.84-42.67v5.75c-13.42,1.74-45.81,8.7-58.3,37.13l-39.64-.07.11-.14" transform="translate(-124.58 -282.27)"/></svg>