<svg id="Layer_1" data-name="Layer 1" xmlns="http://www.w3.org/2000/svg" viewBox="0 0 393.92 39.18"><defs><style>.cls-1{fill:#fff;}</style></defs><title>white-in</title><polygon class="cls-1" points="4.74 31.7 0 31.7 8.86 0 13.6 0 4.74 31.7"/><path class="cls-1" d="M258.73,614.66h-4.66l4.64-16.6-4.38.08-4.62,16.52h-4.64l5.72-20.47h4.64l-.21.75,3.36-.5a22.55,22.55,0,0,1,3.36-.33c1.69,0,2.3.83,1.83,2.5Z" transform="translate(-236.69 -582.95)"/><path class="cls-1" d="M275.71,614.66h-4.66l4.63-16.6-4.38.08-4.61,16.52h-4.64l5.72-20.47h4.64l-.21.75,3.36-.5a22.43,22.43,0,0,1,3.35-.33c1.69,0,2.3.83,1.84,2.5Z" transform="translate(-236.69 -582.95)"/><path class="cls-1" d="M293.23,612.12a3.12,3.12,0,0,1-3.28,2.53h-8.31c-1.74,0-2.38-.84-1.9-2.53l4.3-15.39a3.15,3.15,0,0,1,3.32-2.54h8.31c1.71,0,2.33.85,1.86,2.54Zm-4.17-1.31,3.56-12.75h-4.4l-3.56,12.75Z" transform="translate(-236.69 -582.95)"/><polygon class="cls-1" points="78.75 11.24 67.8 31.75 63.36 31.75 63.86 11.24 68.62 11.24 67.56 24.7 74.01 11.24 78.75 11.24"/><path class="cls-1" d="M325.2,614.66h-4.44l.2-.71-3.3.48a26.06,26.06,0,0,1-3.22.31c-1.69,0-2.3-.83-1.84-2.5l2.06-7.37a3.14,3.14,0,0,1,3.32-2.53h6.26l1.32-4.7h-4.44l-.81,2.91h-4.2l1.07-3.82a3.15,3.15,0,0,1,3.32-2.54h7.84c1.72,0,2.34.85,1.87,2.54ZM321.83,611l1.54-5.49h-4.44l-1.58,5.65Z" transform="translate(-236.69 -582.95)"/><path class="cls-1" d="M337.35,614.66h-5.14c-1.72,0-2.34-.85-1.87-2.54l3.91-14h-2.19l1.1-3.95h2.19l1.55-5.55h4.62L340,594.19h3l-1.1,3.95h-3l-3.51,12.56h3.1Z" transform="translate(-236.69 -582.95)"/><path class="cls-1" d="M344.61,614.66h-4.56l5.72-20.47h4.56Zm6.58-23.4h-4.64l1.33-4.79h4.64Z" transform="translate(-236.69 -582.95)"/><path class="cls-1" d="M362.25,612.12a3.12,3.12,0,0,1-3.28,2.53h-8.31c-1.74,0-2.37-.84-1.9-2.53l4.3-15.39a3.15,3.15,0,0,1,3.32-2.54h8.31c1.71,0,2.34.85,1.86,2.54Zm-4.17-1.31,3.56-12.75h-4.39l-3.56,12.75Z" transform="translate(-236.69 -582.95)"/><path class="cls-1" d="M378.54,614.66h-4.66l4.64-16.6-4.38.08-4.62,16.52h-4.63l5.71-20.47h4.64l-.21.75,3.37-.5a22.31,22.31,0,0,1,3.35-.33c1.69,0,2.3.83,1.83,2.5Z" transform="translate(-236.69 -582.95)"/><path class="cls-1" d="M395.44,612.12a3.14,3.14,0,0,1-3.28,2.54h-7.8c-1.72,0-2.34-.85-1.87-2.54l1.23-4.39h4.44l-1,3.44h4.08l.9-3.24-5.94-4.19a1.9,1.9,0,0,1-.77-2.23l1.33-4.78a3.15,3.15,0,0,1,3.32-2.54h7.72c1.72,0,2.34.85,1.87,2.54l-1.15,4.11h-4.4l.89-3.16H391l-.82,3,5.93,4.15a1.9,1.9,0,0,1,.78,2.27Z" transform="translate(-236.69 -582.95)"/><path class="cls-1" d="M411.2,614.66h-4.56l5.72-20.47h4.56Zm6.58-23.4h-4.64l1.33-4.79h4.65Z" transform="translate(-236.69 -582.95)"/><path class="cls-1" d="M428.3,614.66h-4.66l4.63-16.6-4.37.08-4.62,16.52h-4.64l5.72-20.47H425l-.21.75,3.36-.5a22.55,22.55,0,0,1,3.36-.33c1.68,0,2.3.83,1.83,2.5Z" transform="translate(-236.69 -582.95)"/><path class="cls-1" d="M455,610.54a5.22,5.22,0,0,1-2.76,3.49,9.86,9.86,0,0,1-4.13.71l-1.7,0c-.73,0-1.25,0-1.58,0l-2.09,7.47h-4.64l7.81-27.94h4.64l-.21.75,3.38-.5a23.45,23.45,0,0,1,3.34-.33c1.68,0,2.3.83,1.83,2.49Zm-4.31-1.27,3.13-11.21-4.37.08-3.54,12.67h2.87a1.85,1.85,0,0,0,1.91-1.54" transform="translate(-236.69 -582.95)"/><path class="cls-1" d="M471.06,612.12a3.16,3.16,0,0,1-3.33,2.54h-8c-1.74,0-2.37-.85-1.9-2.54l4.3-15.39a3.15,3.15,0,0,1,3.32-2.54h8c1.75,0,2.38.85,1.91,2.54l-2.1,7.51-1.63,1.28h-7.52l-1.6,5.73h4.35l.95-3.4h4.44Zm-1.75-9.62,1.37-4.9h-4.36L465,602.5Z" transform="translate(-236.69 -582.95)"/><path class="cls-1" d="M490,602.74h-4.6l1.3-4.68-3.69.08-4.61,16.52h-4.64l5.72-20.47h4.64l-.21.75,3-.52a18,18,0,0,1,3-.31c1.68,0,2.3.83,1.83,2.49Z" transform="translate(-236.69 -582.95)"/><path class="cls-1" d="M506,587h-3.4l-2,7.21h3l-1.11,3.95h-2.95l-4.62,16.52h-4.6l4.62-16.52h-2.11l1.1-3.95h2.11l2.44-8.71a3.12,3.12,0,0,1,3.28-2.53h5.43Z" transform="translate(-236.69 -582.95)"/><path class="cls-1" d="M514.13,612.12a3.12,3.12,0,0,1-3.28,2.53h-8.31c-1.74,0-2.38-.84-1.9-2.53l4.3-15.39a3.15,3.15,0,0,1,3.32-2.54h8.31c1.71,0,2.33.85,1.86,2.54ZM510,610.81l3.56-12.75h-4.4l-3.56,12.75Z" transform="translate(-236.69 -582.95)"/><path class="cls-1" d="M533,602.74h-4.6l1.31-4.68-3.69.08-4.62,16.52h-4.64l5.72-20.47h4.64l-.21.75,3-.52a18,18,0,0,1,3-.31c1.68,0,2.3.83,1.83,2.49Z" transform="translate(-236.69 -582.95)"/><path class="cls-1" d="M554.85,614.66h-4.6l4.64-16.6-4.38.08-4.61,16.52h-4.62l4.63-16.6-4.38.08-4.61,16.52h-4.64L538,594.19h4.64l-.21.75,3.37-.52a22.75,22.75,0,0,1,3.34-.31c1.07,0,1.67.31,1.82.91,1.18-.17,2.37-.35,3.55-.54a24.49,24.49,0,0,1,3.55-.37c1.69,0,2.3.83,1.83,2.5Z" transform="translate(-236.69 -582.95)"/><path class="cls-1" d="M571.36,614.66h-4.44l.2-.71-3.29.48a26.18,26.18,0,0,1-3.23.31c-1.69,0-2.3-.83-1.83-2.5l2.06-7.37a3.14,3.14,0,0,1,3.32-2.53h6.26l1.31-4.7h-4.44l-.81,2.91h-4.2l1.07-3.82a3.16,3.16,0,0,1,3.33-2.54h7.84c1.71,0,2.33.85,1.86,2.54ZM568,611l1.53-5.49h-4.44l-1.58,5.65Z" transform="translate(-236.69 -582.95)"/><path class="cls-1" d="M588.34,614.66h-4.66l4.64-16.6-4.38.08-4.62,16.52h-4.64l5.72-20.47H585l-.21.75,3.37-.5a22.31,22.31,0,0,1,3.35-.33c1.68,0,2.3.83,1.83,2.5Z" transform="translate(-236.69 -582.95)"/><path class="cls-1" d="M605.6,612.12a3.13,3.13,0,0,1-3.28,2.54h-8c-1.75,0-2.38-.85-1.91-2.54l4.3-15.39a3.15,3.15,0,0,1,3.32-2.54h8c1.71,0,2.33.85,1.86,2.54l-1.36,4.86H604l1-3.53h-4.15l-3.56,12.75h4.15l1.09-3.91h4.52Z" transform="translate(-236.69 -582.95)"/><path class="cls-1" d="M622.15,612.12a3.15,3.15,0,0,1-3.32,2.54h-8c-1.75,0-2.38-.85-1.91-2.54l4.3-15.39a3.16,3.16,0,0,1,3.32-2.54h8c1.74,0,2.37.85,1.9,2.54l-2.1,7.51-1.63,1.28H615.2l-1.6,5.73H618l.95-3.4h4.44Zm-1.75-9.62,1.37-4.9h-4.35l-1.37,4.9Z" transform="translate(-236.69 -582.95)"/><polygon class="cls-1" points="392.56 31.7 388 31.7 389.37 26.8 393.93 26.8 392.56 31.7"/></svg>