<svg id="Layer_1" data-name="Layer 1" xmlns="http://www.w3.org/2000/svg" viewBox="0 0 257.49 77.9"><defs><style>.cls-1{fill:#fff;}</style></defs><title>white</title><path class="cls-1" d="M110,360.84h5.28a1.7,1.7,0,0,1,1.25.39,1.93,1.93,0,0,1,.4,1.41v.27a1.59,1.59,0,0,1-2,2h-4.13v2.65H110Zm.85.73v2.58h4.12c.74,0,1.1-.32,1.1-.95v-.64a.94.94,0,0,0-.25-.78,1.34,1.34,0,0,0-.89-.2Z" transform="translate(-109.42 -289.88)"/><path class="cls-1" d="M118.23,367.54l3.72-6.69h1l3.71,6.7h-1l-.8-1.43h-5l-.8,1.43Zm2.16-2.17h4.16l-2.08-3.8h0Z" transform="translate(-109.42 -289.88)"/><path class="cls-1" d="M135.1,365.3h.8v.5a1.74,1.74,0,0,1-.48,1.4,2.43,2.43,0,0,1-1.61.42h-3.2a2.31,2.31,0,0,1-1.74-.56,2.76,2.76,0,0,1-.51-1.86v-2a2.66,2.66,0,0,1,.52-1.85,2.28,2.28,0,0,1,1.74-.57h3.19q2,0,1.95,1.65V363H135v-.3a1.21,1.21,0,0,0-.3-.93,1.59,1.59,0,0,0-1.06-.27h-3a1.54,1.54,0,0,0-1.13.35,1.47,1.47,0,0,0-.34,1.09v2.47a1.65,1.65,0,0,0,.32,1.09,1.51,1.51,0,0,0,1.15.36h3a2,2,0,0,0,1.14-.24,1.09,1.09,0,0,0,.31-.89Z" transform="translate(-109.42 -289.88)"/><rect class="cls-1" x="135.24" y="363.78" width="6.69" height="0.85" transform="translate(-335.4 211.97) rotate(-89.85)"/><polygon class="cls-1" points="32.14 77.68 32.15 70.98 38.13 70.98 38.13 71.72 33 71.71 33 73.88 37.93 73.88 37.93 74.62 33 74.61 32.99 77.68 32.14 77.68"/><rect class="cls-1" x="40.26" y="70.99" width="0.85" height="6.7"/><path class="cls-1" d="M159.65,365.32h.79v.5a1.79,1.79,0,0,1-.48,1.41,2.48,2.48,0,0,1-1.61.4h-3.19a2.28,2.28,0,0,1-1.74-.56,2.73,2.73,0,0,1-.52-1.87v-2a2.71,2.71,0,0,1,.52-1.85,2.29,2.29,0,0,1,1.74-.57h3.2c1.29,0,1.95.55,1.95,1.65V363h-.75v-.3a1.14,1.14,0,0,0-.31-.93,1.58,1.58,0,0,0-1.05-.27h-3a1.24,1.24,0,0,0-1.47,1.44v2.47a1.55,1.55,0,0,0,.33,1.08,1.47,1.47,0,0,0,1.15.37h3a2,2,0,0,0,1.14-.24,1.12,1.12,0,0,0,.31-.89Z" transform="translate(-109.42 -289.88)"/><path class="cls-1" d="M167.71,360.88H173a1.75,1.75,0,0,1,1.25.39,1.93,1.93,0,0,1,.4,1.41V363a1.6,1.6,0,0,1-1.94,2h-4.14v2.66h-.85Zm.86.74v2.57h4.11c.74,0,1.1-.31,1.1-.95v-.64a1,1,0,0,0-.26-.78,1.39,1.39,0,0,0-.88-.2Z" transform="translate(-109.42 -289.88)"/><polygon class="cls-1" points="67.25 77.7 67.26 71 73.38 71.01 73.38 71.74 68.11 71.74 68.11 73.91 73.17 73.91 73.17 74.64 68.11 74.64 68.11 76.97 73.41 76.97 73.41 77.7 67.25 77.7"/><path class="cls-1" d="M184.94,367.59v-6.7H190a2.49,2.49,0,0,1,1.61.39,1.93,1.93,0,0,1,.45,1.47v.54a1.3,1.3,0,0,1-.28.95,1.45,1.45,0,0,1-.9.35,1.2,1.2,0,0,1,1.1,1.31v1.68h-.8v-1.48a1.2,1.2,0,0,0-.27-.92,1.5,1.5,0,0,0-1-.25h-4.12v2.65Zm.85-3.39h4.05a2.16,2.16,0,0,0,1-.21.82.82,0,0,0,.35-.78v-.59a.87.87,0,0,0-.34-.8,2.47,2.47,0,0,0-1.17-.2H185.8Z" transform="translate(-109.42 -289.88)"/><polygon class="cls-1" points="84.96 77.71 84.96 71.02 90.95 71.02 90.95 71.75 85.82 71.75 85.81 73.92 90.75 73.92 90.74 74.66 85.82 74.65 85.81 77.71 84.96 77.71"/><path class="cls-1" d="M202.3,365.24v-2a2.74,2.74,0,0,1,.53-1.85,2.32,2.32,0,0,1,1.75-.57h3.56a2.15,2.15,0,0,1,1.74.6,2.85,2.85,0,0,1,.5,1.86v1.93a2.77,2.77,0,0,1-.51,1.87,2.26,2.26,0,0,1-1.74.57h-3.56a2.28,2.28,0,0,1-1.74-.57,2.7,2.7,0,0,1-.53-1.86m.86-2.22v2.46a1.52,1.52,0,0,0,.35,1.11,1.6,1.6,0,0,0,1.14.34h3.41a1.5,1.5,0,0,0,1.13-.36,1.54,1.54,0,0,0,.33-1.09V363a1.52,1.52,0,0,0-.35-1.12,1.55,1.55,0,0,0-1.12-.34h-3.41a1.47,1.47,0,0,0-1.16.37,1.55,1.55,0,0,0-.33,1.08" transform="translate(-109.42 -289.88)"/><path class="cls-1" d="M212.67,367.61v-6.7h5.07a2.51,2.51,0,0,1,1.61.39,1.93,1.93,0,0,1,.45,1.47v.55a1.29,1.29,0,0,1-.27.94,1.53,1.53,0,0,1-.9.36,1.17,1.17,0,0,1,1.09,1.3v1.68h-.8v-1.48a1.26,1.26,0,0,0-.26-.92,1.52,1.52,0,0,0-1-.25h-4.11v2.65Zm.86-3.39h4a2,2,0,0,0,1-.21.8.8,0,0,0,.36-.78v-.59a.83.83,0,0,0-.34-.8,2.45,2.45,0,0,0-1.16-.2h-3.92Z" transform="translate(-109.42 -289.88)"/><polygon class="cls-1" points="112.64 71.04 113.97 71.04 117.6 76.67 117.59 76.67 121.23 71.04 122.56 71.05 122.56 77.74 121.7 77.74 121.71 71.83 121.72 71.83 117.9 77.74 117.29 77.73 113.48 71.82 113.5 71.82 113.49 77.73 112.63 77.73 112.64 71.04"/><path class="cls-1" d="M233.77,367.62l3.72-6.69h1l3.71,6.7h-1l-.8-1.43h-5l-.79,1.43Zm2.16-2.16h4.17l-2.1-3.79h0Z" transform="translate(-109.42 -289.88)"/><polygon class="cls-1" points="134.6 71.05 135.85 71.05 141.64 76.94 141.62 76.94 141.63 71.06 142.48 71.06 142.47 77.75 141.22 77.75 135.44 71.86 135.46 71.86 135.45 77.75 134.6 77.75 134.6 71.05"/><path class="cls-1" d="M260.89,365.39h.8v.5a1.8,1.8,0,0,1-.48,1.4,2.52,2.52,0,0,1-1.62.41H256.4a2.27,2.27,0,0,1-1.74-.56,2.76,2.76,0,0,1-.52-1.86v-2a2.67,2.67,0,0,1,.52-1.85,2.27,2.27,0,0,1,1.73-.57h3.2q1.95,0,1.95,1.65v.59h-.74v-.29a1.18,1.18,0,0,0-.3-.93,1.6,1.6,0,0,0-1.06-.28h-3a1.53,1.53,0,0,0-1.13.35,1.49,1.49,0,0,0-.34,1.1v2.46a1.65,1.65,0,0,0,.32,1.09,1.51,1.51,0,0,0,1.15.36h3a1.89,1.89,0,0,0,1.14-.24,1.09,1.09,0,0,0,.31-.89Z" transform="translate(-109.42 -289.88)"/><polygon class="cls-1" points="154.51 77.76 154.51 71.07 160.63 71.07 160.63 71.81 155.37 71.8 155.37 73.97 160.42 73.97 160.42 74.7 155.37 74.7 155.37 77.03 160.66 77.03 160.66 77.77 154.51 77.76"/><polygon class="cls-1" points="167.85 77.77 167.86 71.08 173.98 71.08 173.98 71.82 168.71 71.81 168.71 73.98 173.76 73.98 173.76 74.72 168.71 74.71 168.71 77.04 174 77.04 174 77.78 167.85 77.77"/><polygon class="cls-1" points="176.12 71.08 177.37 71.08 183.15 76.97 183.13 76.97 183.14 71.09 184 71.09 183.99 77.78 182.74 77.78 176.95 71.89 176.97 71.89 176.97 77.78 176.11 77.78 176.12 71.08"/><path class="cls-1" d="M299.49,365.1v-.74h4v1a2.73,2.73,0,0,1-.48,1.8,2.13,2.13,0,0,1-1.68.55h-3.44a2.27,2.27,0,0,1-1.74-.56,2.76,2.76,0,0,1-.53-1.92v-2a2.66,2.66,0,0,1,.55-1.84,2.41,2.41,0,0,1,1.76-.54h3.13c1.59,0,2.38.61,2.38,1.84V363h-.8c0-.59-.12-.95-.38-1.12a4.42,4.42,0,0,0-1.78-.24H298a1.65,1.65,0,0,0-1.17.35,1.53,1.53,0,0,0-.35,1.12v2.34a1.81,1.81,0,0,0,.32,1.18,1.55,1.55,0,0,0,1.2.37h3.23a1.7,1.7,0,0,0,1.08-.28,1.25,1.25,0,0,0,.34-1v-.63Z" transform="translate(-109.42 -289.88)"/><rect class="cls-1" x="302.96" y="363.9" width="6.7" height="0.85" transform="matrix(0, -1, 1, 0, -168.23, 379.82)"/><polygon class="cls-1" points="199.81 71.1 201.06 71.1 206.84 76.99 206.82 76.99 206.83 71.11 207.68 71.11 207.68 77.8 206.43 77.8 200.64 71.91 200.66 71.91 200.66 77.8 199.8 77.8 199.81 71.1"/><polygon class="cls-1" points="210.11 77.8 210.11 71.11 216.24 71.11 216.23 71.85 210.97 71.84 210.97 74.01 216.02 74.01 216.02 74.75 210.97 74.74 210.96 77.07 216.26 77.07 216.26 77.81 210.11 77.8"/><polygon class="cls-1" points="218.43 77.81 218.43 71.11 224.56 71.12 224.56 71.85 219.29 71.84 219.29 74.01 224.34 74.02 224.34 74.75 219.28 74.75 219.28 77.08 224.58 77.08 224.58 77.81 218.43 77.81"/><path class="cls-1" d="M336.11,367.7V361h5.07a2.47,2.47,0,0,1,1.61.39,1.93,1.93,0,0,1,.45,1.47v.54a1.35,1.35,0,0,1-.27.95,1.57,1.57,0,0,1-.91.35,1.2,1.2,0,0,1,1.1,1.31v1.68h-.8v-1.48a1.24,1.24,0,0,0-.27-.93,1.55,1.55,0,0,0-1-.24H337v2.66Zm.85-3.39H341a2,2,0,0,0,1-.2.82.82,0,0,0,.36-.78v-.6a.84.84,0,0,0-.33-.79,2.47,2.47,0,0,0-1.17-.2H337Z" transform="translate(-109.42 -289.88)"/><rect class="cls-1" x="236.15" y="71.13" width="0.86" height="6.7"/><polygon class="cls-1" points="239.49 71.13 240.75 71.13 246.53 77.02 246.51 77.02 246.52 71.13 247.37 71.14 247.37 77.83 246.11 77.83 240.33 71.94 240.35 71.94 240.35 77.82 239.49 77.82 239.49 71.13"/><path class="cls-1" d="M362.87,365.14v-.73h4v1a2.73,2.73,0,0,1-.48,1.8,2.18,2.18,0,0,1-1.69.54h-3.43a2.36,2.36,0,0,1-1.75-.56,2.76,2.76,0,0,1-.52-1.92v-2a2.58,2.58,0,0,1,.55-1.83,2.35,2.35,0,0,1,1.76-.55h3.13c1.58,0,2.38.61,2.38,1.83v.26h-.8c0-.58-.13-1-.38-1.11a4.08,4.08,0,0,0-1.78-.24h-2.49a1.58,1.58,0,0,0-1.17.35,1.53,1.53,0,0,0-.35,1.12v2.34a1.83,1.83,0,0,0,.32,1.18,1.59,1.59,0,0,0,1.2.37h3.23a1.61,1.61,0,0,0,1.07-.29,1.21,1.21,0,0,0,.35-1v-.64Z" transform="translate(-109.42 -289.88)"/><path class="cls-1" d="M245,352.34l4.7-23.73,20.41,0a85,85,0,0,0,10.59-.41,27.46,27.46,0,0,0,7.72-2.08,18.11,18.11,0,0,0,5.36-4.05A21.75,21.75,0,0,0,298,315a25.25,25.25,0,0,0,1.73-9.17,17,17,0,0,0-2.13-8.78,12.4,12.4,0,0,0-5.83-5.28,25.84,25.84,0,0,0-10-1.61L226.21,290l-12.32,62.24Zm10.28-52h4.78c3.9,0,6.41.23,7.53.68a5.27,5.27,0,0,1,2.63,2.11,6.69,6.69,0,0,1,.93,3.69,11.07,11.07,0,0,1-1.84,6.15,10.54,10.54,0,0,1-5,4.08q-3.16,1.24-12.57,1.24Z" transform="translate(-109.42 -289.88)"/><polygon class="cls-1" points="247.28 62.68 250.82 45.31 217.65 45.25 219.87 33.87 249.66 33.92 252.35 20.81 222.33 20.95 224.31 10.78 255.21 10.84 257.26 0.44 194.91 0.31 182.61 62.55 247.28 62.68"/><path class="cls-1" d="M109.42,346.91h1.85l25.32.05-1,5.15,31.12.06,4.7-23.73,20.41,0a85.65,85.65,0,0,0,10.59-.4,28,28,0,0,0,7.72-2.09,18.11,18.11,0,0,0,5.36-4.05,21.92,21.92,0,0,0,4.21-7.12,25.42,25.42,0,0,0,1.73-9.17,17.09,17.09,0,0,0-2.13-8.77,12.35,12.35,0,0,0-5.83-5.28,25.6,25.6,0,0,0-10-1.62l-55.55-.11s-4.19,22.32-5.49,27.89c-21.83,12.46-31.87,27.45-31.91,27.53Zm3.91-1.91c6-7.79,33.71-39.24,88.67-41.28v5.57c-12.16,1.68-41.52,8.41-52.83,35.91l-35.93-.07.1-.13" transform="translate(-109.42 -289.88)"/></svg>